AsbirMono-Regular.ufo
<glyph name="uni0021" format="2">
  <advance width="600"/>
  <unicode hex="0021"/>
  <outline>
    <contour>
      <point x="218" y="130" type="line"/>
      <point x="276" y="130" type="line"/>
      <point x="276" y="555" type="line"/>
      <point x="218" y="555" type="line"/>
    </contour>
    <contour>
      <point x="279.0" y="35" type="curve"/>
      <point x="279.0" y="51.01625775"/>
      <point x="266.01625775" y="64.0"/>
      <point x="250" y="64.0" type="curve"/>
      <point x="233.98374225" y="64.0"/>
      <point x="221.0" y="51.01625775"/>
      <point x="221.0" y="35" type="curve"/>
      <point x="221.0" y="18.98374225"/>
      <point x="233.98374225" y="6.0"/>
      <point x="250" y="6.0" type="curve"/>
      <point x="266.01625775" y="6.0"/>
      <point x="279.0" y="18.98374225"/>
    </contour>
  </outline>
</glyph>
<glyph name="uni0022" format="2">
  <advance width="600"/>
  <unicode hex="0022"/>
  <outline>
    <contour>
      <point x="203.25026745499372" y="549.110992242225" type="line"/>
      <point x="163.25026745499372" y="459.110992242225" type="line"/>
      <point x="136.74973254500628" y="470.889007757775" type="line"/>
      <point x="176.74973254500628" y="560.889007757775" type="line"/>
    </contour>
    <contour>
      <point x="323.2502674549937" y="560.889007757775" type="line"/>
      <point x="363.2502674549937" y="470.889007757775" type="line"/>
      <point x="336.7497325450063" y="459.110992242225" type="line"/>
      <point x="296.7497325450063" y="549.110992242225" type="line"/>
    </contour>
  </outline>
</glyph>
<glyph name="uni0023" format="2">
  <advance width="600"/>
  <unicode hex="0023"/>
  <outline>
    <contour>
      <point x="160" y="80" type="line"/>
      <point x="218" y="80" type="line"/>
      <point x="218" y="620" type="line"/>
      <point x="160" y="620" type="line"/>
    </contour>
    <contour>
      <point x="300" y="80" type="line"/>
      <point x="358" y="80" type="line"/>
      <point x="358" y="620" type="line"/>
      <point x="300" y="620" type="line"/>
    </contour>
    <contour>
      <point x="80" y="240" type="line"/>
      <point x="420" y="240" type="line"/>
      <point x="420" y="298" type="line"/>
      <point x="80" y="298" type="line"/>
    </contour>
    <contour>
      <point x="80" y="400" type="line"/>
      <point x="420" y="400" type="line"/>
      <point x="420" y="458" type="line"/>
      <point x="80" y="458" type="line"/>
    </contour>
  </outline>
</glyph>
<glyph name="uni0024" format="2">
  <advance width="600"/>
  <unicode hex="0024"/>
  <outline>
    <contour>
      <point x="80" y="0" type="line"/>
      <point x="420" y="0" type="line"/>
      <point x="420" y="58" type="line"/>
      <point x="80" y="58" type="line"/>
    </contour>
    <contour>
      <point x="80" y="642" type="line"/>
      <point x="420" y="642" type="line"/>
      <point x="420" y="700" type="line"/>
      <point x="80" y="700" type="line"/>
    </contour>
    <contour>
      <point x="80" y="0" type="line"/>
      <point x="138" y="0" type="line"/>
      <point x="138" y="700" type="line"/>
      <point x="80" y="700" type="line"/>
    </contour>
    <contour>
      <point x="362" y="0" type="line"/>
      <point x="420" y="0" type="line"/>
      <point x="420" y="700" type="line"/>
      <point x="362" y="700" type="line"/>
    </contour>
  </outline>
</glyph>
<glyph name="uni0025" format="2">
  <advance width="600"/>
  <unicode hex="0025"/>
  <outline>
    <contour>
      <point x="190" y="520" type="curve"/>
      <point x="190" y="550.37566125"/>
      <point x="165.37566125" y="575"/>
      <point x="135" y="575" type="curve"/>
      <point x="104.62433874999999" y="575"/>
      <point x="80" y="550.37566125"/>
      <point x="80" y="520" type="curve"/>
      <point x="80" y="489.62433875"/>
      <point x="104.62433874999999" y="465"/>
      <point x="135" y="465" type="curve"/>
      <point x="165.37566125" y="465"/>
      <point x="190" y="489.62433875"/>
    </contour>
    <contour>
      <point x="420" y="180" type="curve"/>
      <point x="420" y="210.37566125"/>
      <point x="395.37566125" y="235"/>
      <point x="365" y="235" type="curve"/>
      <point x="334.62433875" y="235"/>
      <point x="310" y="210.37566125"/>
      <point x="310" y="180" type="curve"/>
      <point x="310" y="149.62433875"/>
      <point x="334.62433875" y="125"/>
      <point x="365" y="125" type="curve"/>
      <point x="395.37566125" y="125"/>
      <point x="420" y="149.62433875"/>
    </contour>
    <contour>
      <point x="84.25511858798104" y="93.34919776919502" type="line"/>
      <point x="364.25511858798103" y="633.349197769195" type="line"/>
      <point x="415.74488141201897" y="606.650802230805" type="line"/>
      <point x="135.74488141201894" y="66.65080223080498" type="line"/>
    </contour>
  </outline>
</glyph>
<glyph name="uni0026" format="2">
  <advance width="600"/>
  <unicode hex="0026"/>
  <outline>
    <contour>
      <point x="350" y="220" type="curve"/>
      <point x="350" y="319.411255"/>
      <point x="291.7970175" y="400"/>
      <point x="220" y="400" type="curve"/>
      <point x="148.20298250000002" y="400"/>
      <point x="90" y="319.411255"/>
      <point x="90" y="220" type="curve"/>
      <point x="90" y="120.588745"/>
      <point x="148.20298250000002" y="40"/>
      <point x="220" y="40" type="curve"/>
      <point x="291.7970175" y="40"/>
      <point x="350" y="120.588745"/>
    </contour>
    <contour>
      <point x="292" y="220" type="curve"/>
      <point x="292" y="152.6212605"/>
      <point x="259.764502" y="98"/>
      <point x="220" y="98" type="curve"/>
      <point x="180.235498" y="98"/>
      <point x="148" y="152.6212605"/>
      <point x="148" y="220" type="curve"/>
      <point x="148" y="287.3787395"/>
      <point x="180.235498" y="342"/>
      <point x="220" y="342" type="curve"/>
      <point x="259.764502" y="342"/>
      <point x="292" y="287.3787395"/>
    </contour>
    <contour>
      <point x="136.11599745457278" y="592.6077229091042" type="line"/>
      <point x="416.1159974545728" y="12.6077229091041" type="line"/>
      <point x="363.8840025454272" y="-12.6077229091041" type="line"/>
      <point x="83.88400254542722" y="567.3922770908958" type="line"/>
    </contour>
    <contour>
      <point x="400" y="520" type="curve"/>
      <point x="400" y="586.27417"/>
      <point x="355.228475" y="640"/>
      <point x="300" y="640" type="curve"/>
      <point x="244.771525" y="640"/>
      <point x="200" y="586.27417"/>
      <point x="200" y="520" type="curve"/>
      <point x="200" y="453.72583"/>
      <point x="244.771525" y="400"/>
      <point x="300" y="400" type="curve"/>
      <point x="355.228475" y="400"/>
      <point x="400" y="453.72583"/>
    </contour>
  </outline>
</glyph>
<glyph name="uni0027" format="2">
  <advance width="600"/>
  <unicode hex="0027"/>
  <outline>
    <contour>
      <point x="263.2502674549937" y="560.889007757775" type="line"/>
      <point x="303.2502674549937" y="470.889007757775" type="line"/>
      <point x="276.7497325450063" y="459.110992242225" type="line"/>
      <point x="236.74973254500628" y="549.110992242225" type="line"/>
    </contour>
  </outline>
</glyph>
<glyph name="uni0029" format="2">
  <advance width="600"/>
  <unicode hex="0029"/>
  <outline>
    <contour>
      <point x="292" y="80" type="line"/>
      <point x="350" y="80" type="line"/>
      <point x="350" y="620" type="line"/>
      <point x="292" y="620" type="line"/>
    </contour>
  </outline>
</glyph>
<glyph name="uni002A" format="2">
  <advance width="600"/>
  <unicode hex="002A"/>
  <outline>
    <contour>
      <point x="105.48082181210184" y="175.48579675025147" type="line"/>
      <point x="345.48082181210185" y="555.4857967502514" type="line"/>
      <point x="394.51917818789815" y="524.5142032497486" type="line"/>
      <point x="154.51917818789815" y="144.51420324974853" type="line"/>
    </contour>
    <contour>
      <point x="345.48082181210185" y="144.51420324974853" type="line"/>
      <point x="105.48082181210184" y="524.5142032497486" type="line"/>
      <point x="154.51917818789815" y="555.4857967502514" type="line"/>
      <point x="394.51917818789815" y="175.48579675025147" type="line"/>
    </contour>
    <contour>
      <point x="90" y="330" type="line"/>
      <point x="410" y="330" type="line"/>
      <point x="410" y="388" type="line"/>
      <point x="90" y="388" type="line"/>
    </contour>
  </outline>
</glyph>
<glyph name="uni002B" format="2">
  <advance width="600"/>
  <unicode hex="002B"/>
  <outline>
    <contour>
      <point x="90" y="300" type="line"/>
      <point x="410" y="300" type="line"/>
      <point x="410" y="358" type="line"/>
      <point x="90" y="358" type="line"/>
    </contour>
    <contour>
      <point x="218" y="140" type="line"/>
      <point x="276" y="140" type="line"/>
      <point x="276" y="520" type="line"/>
      <point x="218" y="520" type="line"/>
    </contour>
  </outline>
</glyph>
<glyph name="uni002E" format="2">
  <advance width="600"/>
  <unicode hex="002E"/>
  <outline>
    <contour>
      <point x="279.0" y="35" type="curve"/>
      <point x="279.0" y="51.01625775"/>
      <point x="266.01625775" y="64.0"/>
      <point x="250" y="64.0" type="curve"/>
      <point x="233.98374225" y="64.0"/>
      <point x="221.0" y="51.01625775"/>
      <point x="221.0" y="35" type="curve"/>
      <point x="221.0" y="18.98374225"/>
      <point x="233.98374225" y="6.0"/>
      <point x="250" y="6.0" type="curve"/>
      <point x="266.01625775" y="6.0"/>
      <point x="279.0" y="18.98374225"/>
    </contour>
  </outline>
</glyph>
<glyph name="uni0030" format="2">
  <advance width="600"/>
  <unicode hex="0030"/>
  <outline>
    <contour>
      <point x="430" y="350" type="curve" smooth="yes"/>
      <point x="430" y="543.2996625000001"/>
      <point x="349.411255" y="700"/>
      <point x="250" y="700" type="curve" smooth="yes"/>
      <point x="150.58874500000002" y="700"/>
      <point x="70" y="543.2996625000001"/>
      <point x="70" y="350" type="curve" smooth="yes"/>
      <point x="70" y="156.7003375"/>
      <point x="150.58874500000002" y="0"/>
      <point x="250" y="0" type="curve" smooth="yes"/>
      <point x="349.411255" y="0"/>
      <point x="430" y="156.7003375"/>
    </contour>
    <contour>
      <point x="372" y="350" type="curve" smooth="yes"/>
      <point x="372" y="188.732853"/>
      <point x="317.3787395" y="58"/>
      <point x="250" y="58" type="curve" smooth="yes"/>
      <point x="182.6212605" y="58"/>
      <point x="128" y="188.732853"/>
      <point x="128" y="350" type="curve" smooth="yes"/>
      <point x="128" y="511.267147"/>
      <point x="182.6212605" y="642"/>
      <point x="250" y="642" type="curve" smooth="yes"/>
      <point x="317.3787395" y="642"/>
      <point x="372" y="511.267147"/>
    </contour>
  </outline>
</glyph>
<glyph name="uni0031" format="2">
  <advance width="600"/>
  <unicode hex="0031"/>
  <outline>
    <contour>
      <point x="234.24" y="0" type="curve"/>
      <point x="259.76" y="0" type="line"/>
      <point x="268.72910434" y="0"/>
      <point x="276" y="7.270895660000001"/>
      <point x="276" y="16.240000000000002" type="curve"/>
      <point x="276" y="683.76" type="line"/>
      <point x="276" y="692.72910434"/>
      <point x="268.72910434" y="700"/>
      <point x="259.76" y="700" type="curve"/>
      <point x="234.24" y="700" type="line"/>
      <point x="225.27089566" y="700"/>
      <point x="218" y="692.72910434"/>
      <point x="218" y="683.76" type="curve"/>
      <point x="218" y="16.240000000000002" type="line"/>
      <point x="218" y="7.270895660000001"/>
      <point x="225.27089566" y="0"/>
    </contour>
    <contour>
      <point x="82.43364622871438" y="578.214271258252" type="line"/>
      <point x="195.4336462287144" y="718.214271258252" type="line"/>
      <point x="240.5663537712856" y="681.785728741748" type="line"/>
      <point x="127.56635377128562" y="541.785728741748" type="line"/>
    </contour>
    <contour>
      <point x="180" y="0" type="line"/>
      <point x="320" y="0" type="line"/>
      <point x="320" y="31.900000000000002" type="line"/>
      <point x="180" y="31.900000000000002" type="line"/>
    </contour>
    <contour>
      <point x="180" y="668.1" type="line"/>
      <point x="320" y="668.1" type="line"/>
      <point x="320" y="700.0" type="line"/>
      <point x="180" y="700.0" type="line"/>
    </contour>
  </outline>
</glyph>
<glyph name="uni0033" format="2">
  <advance width="600"/>
  <unicode hex="0033"/>
  <outline>
    <contour>
      <point x="398.7" y="694.2" type="line"/>
      <point x="283.8" y="704.64"/>
      <point x="89.7" y="695.36"/>
      <point x="86.8" y="434.0" type="curve"/>
      <point x="83.9" y="357.0"/>
      <point x="229.72" y="354.64"/>
      <point x="246.62" y="350" type="curve"/>
      <point x="283.8" y="266.0"/>
      <point x="416.68" y="329.0"/>
      <point x="414.36" y="203.0" type="curve"/>
      <point x="412.04" y="2.9000000000000004"/>
      <point x="209.44" y="-3.48"/>
      <point x="83.9" y="8.120000000000001" type="curve"/>
      <point x="90.28" y="56.839999999999996" type="line"/>
      <point x="216.2" y="35.96"/>
      <point x="381.3" y="49.3"/>
      <point x="385.36" y="189.0" type="curve"/>
      <point x="387.68" y="315.0"/>
      <point x="266.9" y="308.0"/>
      <point x="236.48" y="351.74" type="curve"/>
      <point x="192.54" y="358.7"/>
      <point x="107.68" y="356.96"/>
      <point x="111.16" y="448.0" type="curve"/>
      <point x="114.64" y="664.04"/>
      <point x="277.04" y="673.9"/>
      <point x="400.44" y="643.16" type="curve"/>
    </contour>
    <contour>
      <point x="248.92" y="316" type="curve"/>
      <point x="341.08" y="316" type="line"/>
      <point x="348.76780371999996" y="316"/>
      <point x="355" y="322.23219628000004"/>
      <point x="355" y="329.92" type="curve"/>
      <point x="355" y="360.08" type="line"/>
      <point x="355" y="367.76780371999996"/>
      <point x="348.76780371999996" y="374"/>
      <point x="341.08" y="374" type="curve"/>
      <point x="248.92" y="374" type="line"/>
      <point x="241.23219627999998" y="374"/>
      <point x="235" y="367.76780371999996"/>
      <point x="235" y="360.08" type="curve"/>
      <point x="235" y="329.92" type="line"/>
      <point x="235" y="322.23219628000004"/>
      <point x="241.23219627999998" y="316"/>
    </contour>
  </outline>
</glyph>
<glyph name="uni0034" format="2">
  <advance width="600"/>
  <unicode hex="0034"/>
  <outline>
    <contour>
      <point x="308.24" y="0" type="curve"/>
      <point x="333.76" y="0" type="line"/>
      <point x="342.72910434" y="0"/>
      <point x="350" y="7.270895660000001"/>
      <point x="350" y="16.240000000000002" type="curve"/>
      <point x="350" y="683.76" type="line"/>
      <point x="350" y="692.72910434"/>
      <point x="342.72910434" y="700"/>
      <point x="333.76" y="700" type="curve"/>
      <point x="308.24" y="700" type="line"/>
      <point x="299.27089566" y="700"/>
      <point x="292" y="692.72910434"/>
      <point x="292" y="683.76" type="curve"/>
      <point x="292" y="16.240000000000002" type="line"/>
      <point x="292" y="7.270895660000001"/>
      <point x="299.27089566" y="0"/>
    </contour>
    <contour>
      <point x="53.118542416528406" y="290.8805899742623" type="line"/>
      <point x="223.1185424165284" y="710.8805899742623" type="line"/>
      <point x="276.8814575834716" y="689.1194100257377" type="line"/>
      <point x="106.88145758347159" y="269.1194100257377" type="line"/>
    </contour>
    <contour>
      <point x="93.92" y="280" type="curve"/>
      <point x="396.08" y="280" type="line"/>
      <point x="403.76780371999996" y="280"/>
      <point x="410" y="286.23219628000004"/>
      <point x="410" y="293.92" type="curve"/>
      <point x="410" y="324.08" type="line"/>
      <point x="410" y="331.76780371999996"/>
      <point x="403.76780371999996" y="338"/>
      <point x="396.08" y="338" type="curve"/>
      <point x="93.92" y="338" type="line"/>
      <point x="86.23219628" y="338"/>
      <point x="80" y="331.76780371999996"/>
      <point x="80" y="324.08" type="curve"/>
      <point x="80" y="293.92" type="line"/>
      <point x="80" y="286.23219628000004"/>
      <point x="86.23219628" y="280"/>
    </contour>
  </outline>
</glyph>
<glyph name="uni0036" format="2">
  <advance width="600"/>
  <unicode hex="0036"/>
  <outline>
    <contour>
      <point x="425" y="190" type="curve"/>
      <point x="425" y="294.9341025"/>
      <point x="346.64983125000003" y="380"/>
      <point x="250" y="380" type="curve"/>
      <point x="153.35016875" y="380"/>
      <point x="75" y="294.9341025"/>
      <point x="75" y="190" type="curve"/>
      <point x="75" y="85.0658975"/>
      <point x="153.35016875" y="0"/>
      <point x="250" y="0" type="curve"/>
      <point x="346.64983125000003" y="0"/>
      <point x="425" y="85.0658975"/>
    </contour>
    <contour>
      <point x="367" y="190" type="curve"/>
      <point x="367" y="117.09841300000001"/>
      <point x="314.61731575" y="58"/>
      <point x="250" y="58" type="curve"/>
      <point x="185.38268425" y="58"/>
      <point x="133" y="117.09841300000001"/>
      <point x="133" y="190" type="curve"/>
      <point x="133" y="262.901587"/>
      <point x="185.38268425" y="322"/>
      <point x="250" y="322" type="curve"/>
      <point x="314.61731575" y="322"/>
      <point x="367" y="262.901587"/>
    </contour>
    <contour>
      <point x="75" y="190" type="line"/>
      <point x="75" y="505"/>
      <point x="188" y="710"/>
      <point x="352" y="710" type="curve"/>
      <point x="385" y="646" type="line"/>
      <point x="250" y="636"/>
      <point x="139" y="492"/>
      <point x="139" y="220" type="curve"/>
    </contour>
  </outline>
</glyph>
<glyph name="uni0037" format="2">
  <advance width="600"/>
  <unicode hex="0037"/>
  <outline>
    <contour>
      <point x="83.92" y="642" type="curve"/>
      <point x="416.08" y="642" type="line"/>
      <point x="423.76780371999996" y="642"/>
      <point x="430" y="648.2321962799999"/>
      <point x="430" y="655.92" type="curve"/>
      <point x="430" y="686.08" type="line"/>
      <point x="430" y="693.7678037200001"/>
      <point x="423.76780371999996" y="700"/>
      <point x="416.08" y="700" type="curve"/>
      <point x="83.92" y="700" type="line"/>
      <point x="76.23219628" y="700"/>
      <point x="70" y="693.7678037200001"/>
      <point x="70" y="686.08" type="curve"/>
      <point x="70" y="655.92" type="line"/>
      <point x="70" y="648.2321962799999"/>
      <point x="76.23219628" y="642"/>
    </contour>
    <contour>
      <point x="437.3059089612489" y="661.233355960209" type="line"/>
      <point x="197.30590896124895" y="-9.766644039790979" type="line"/>
      <point x="142.69409103875105" y="9.766644039790979" type="line"/>
      <point x="382.6940910387511" y="680.766644039791" type="line"/>
    </contour>
  </outline>
</glyph>
<glyph name="uni0038" format="2">
  <advance width="600"/>
  <unicode hex="0038"/>
  <outline>
    <contour>
      <point x="415" y="525" type="curve"/>
      <point x="415" y="613.36556"/>
      <point x="341.12698375" y="685"/>
      <point x="250" y="685" type="curve"/>
      <point x="158.87301625" y="685"/>
      <point x="85" y="613.36556"/>
      <point x="85" y="525" type="curve"/>
      <point x="85" y="436.63444"/>
      <point x="158.87301625" y="365"/>
      <point x="250" y="365" type="curve"/>
      <point x="341.12698375" y="365"/>
      <point x="415" y="436.63444"/>
    </contour>
    <contour>
      <point x="357" y="525" type="curve"/>
      <point x="357" y="468.6669555"/>
      <point x="309.09446825" y="423"/>
      <point x="250" y="423" type="curve"/>
      <point x="190.90553175" y="423"/>
      <point x="143" y="468.6669555"/>
      <point x="143" y="525" type="curve"/>
      <point x="143" y="581.3330445"/>
      <point x="190.90553175" y="627"/>
      <point x="250" y="627" type="curve"/>
      <point x="309.09446825" y="627"/>
      <point x="357" y="581.3330445"/>
    </contour>
    <contour>
      <point x="415" y="175" type="curve"/>
      <point x="415" y="263.36556"/>
      <point x="341.12698375" y="335"/>
      <point x="250" y="335" type="curve"/>
      <point x="158.87301625" y="335"/>
      <point x="85" y="263.36556"/>
      <point x="85" y="175" type="curve"/>
      <point x="85" y="86.63444"/>
      <point x="158.87301625" y="15"/>
      <point x="250" y="15" type="curve"/>
      <point x="341.12698375" y="15"/>
      <point x="415" y="86.63444"/>
    </contour>
    <contour>
      <point x="357" y="175" type="curve"/>
      <point x="357" y="118.6669555"/>
      <point x="309.09446825" y="73"/>
      <point x="250" y="73" type="curve"/>
      <point x="190.90553175" y="73"/>
      <point x="143" y="118.6669555"/>
      <point x="143" y="175" type="curve"/>
      <point x="143" y="231.3330445"/>
      <point x="190.90553175" y="277"/>
      <point x="250" y="277" type="curve"/>
      <point x="309.09446825" y="277"/>
      <point x="357" y="231.3330445"/>
    </contour>
  </outline>
</glyph>
<glyph name="uni0039" format="2">
  <advance width="600"/>
  <unicode hex="0039"/>
  <outline>
    <contour>
      <point x="425" y="510" type="curve"/>
      <point x="425" y="614.9341025"/>
      <point x="346.64983125000003" y="700"/>
      <point x="250" y="700" type="curve"/>
      <point x="153.35016875" y="700"/>
      <point x="75" y="614.9341025"/>
      <point x="75" y="510" type="curve"/>
      <point x="75" y="405.0658975"/>
      <point x="153.35016875" y="320"/>
      <point x="250" y="320" type="curve"/>
      <point x="346.64983125000003" y="320"/>
      <point x="425" y="405.0658975"/>
    </contour>
    <contour>
      <point x="367" y="510" type="curve"/>
      <point x="367" y="437.098413"/>
      <point x="314.61731575" y="378"/>
      <point x="250" y="378" type="curve"/>
      <point x="185.38268425" y="378"/>
      <point x="133" y="437.098413"/>
      <point x="133" y="510" type="curve"/>
      <point x="133" y="582.901587"/>
      <point x="185.38268425" y="642"/>
      <point x="250" y="642" type="curve"/>
      <point x="314.61731575" y="642"/>
      <point x="367" y="582.901587"/>
    </contour>
    <contour>
      <point x="425" y="510" type="line"/>
      <point x="425" y="194"/>
      <point x="312" y="-10"/>
      <point x="148" y="-10" type="curve"/>
      <point x="115" y="54" type="line"/>
      <point x="250" y="64"/>
      <point x="361" y="208"/>
      <point x="361" y="480" type="curve"/>
    </contour>
  </outline>
</glyph>
<glyph name="uni003A" format="2">
  <advance width="600"/>
  <unicode hex="003A"/>
  <outline>
    <contour>
      <point x="279.0" y="390" type="curve"/>
      <point x="279.0" y="406.01625775"/>
      <point x="266.01625775" y="419.0"/>
      <point x="250" y="419.0" type="curve"/>
      <point x="233.98374225" y="419.0"/>
      <point x="221.0" y="406.01625775"/>
      <point x="221.0" y="390" type="curve"/>
      <point x="221.0" y="373.98374225"/>
      <point x="233.98374225" y="361.0"/>
      <point x="250" y="361.0" type="curve"/>
      <point x="266.01625775" y="361.0"/>
      <point x="279.0" y="373.98374225"/>
    </contour>
    <contour>
      <point x="279.0" y="35" type="curve"/>
      <point x="279.0" y="51.01625775"/>
      <point x="266.01625775" y="64.0"/>
      <point x="250" y="64.0" type="curve"/>
      <point x="233.98374225" y="64.0"/>
      <point x="221.0" y="51.01625775"/>
      <point x="221.0" y="35" type="curve"/>
      <point x="221.0" y="18.98374225"/>
      <point x="233.98374225" y="6.0"/>
      <point x="250" y="6.0" type="curve"/>
      <point x="266.01625775" y="6.0"/>
      <point x="279.0" y="18.98374225"/>
    </contour>
  </outline>
</glyph>
<glyph name="uni003B" format="2">
  <advance width="600"/>
  <unicode hex="003B"/>
  <outline>
    <contour>
      <point x="279.0" y="390" type="curve"/>
      <point x="279.0" y="406.01625775"/>
      <point x="266.01625775" y="419.0"/>
      <point x="250" y="419.0" type="curve"/>
      <point x="233.98374225" y="419.0"/>
      <point x="221.0" y="406.01625775"/>
      <point x="221.0" y="390" type="curve"/>
      <point x="221.0" y="373.98374225"/>
      <point x="233.98374225" y="361.0"/>
      <point x="250" y="361.0" type="curve"/>
      <point x="266.01625775" y="361.0"/>
      <point x="279.0" y="373.98374225"/>
    </contour>
    <contour>
      <point x="279.0" y="35" type="curve"/>
      <point x="279.0" y="51.01625775"/>
      <point x="266.01625775" y="64.0"/>
      <point x="250" y="64.0" type="curve"/>
      <point x="233.98374225" y="64.0"/>
      <point x="221.0" y="51.01625775"/>
      <point x="221.0" y="35" type="curve"/>
      <point x="221.0" y="18.98374225"/>
      <point x="233.98374225" y="6.0"/>
      <point x="250" y="6.0" type="curve"/>
      <point x="266.01625775" y="6.0"/>
      <point x="279.0" y="18.98374225"/>
    </contour>
    <contour>
      <point x="263.8101501343902" y="15.580751956995137" type="line"/>
      <point x="223.8101501343902" y="-109.41924804300487" type="line"/>
      <point x="196.1898498656098" y="-100.58075195699513" type="line"/>
      <point x="236.1898498656098" y="24.419248043004863" type="line"/>
    </contour>
  </outline>
</glyph>
<glyph name="uni003D" format="2">
  <advance width="600"/>
  <unicode hex="003D"/>
  <outline>
    <contour>
      <point x="90" y="230" type="line"/>
      <point x="410" y="230" type="line"/>
      <point x="410" y="288" type="line"/>
      <point x="90" y="288" type="line"/>
    </contour>
    <contour>
      <point x="90" y="390" type="line"/>
      <point x="410" y="390" type="line"/>
      <point x="410" y="448" type="line"/>
      <point x="90" y="448" type="line"/>
    </contour>
  </outline>
</glyph>
<glyph name="uni003F" format="2">
  <advance width="600"/>
  <unicode hex="003F"/>
  <outline>
    <contour>
      <point x="105" y="497" type="line"/>
      <point x="355" y="497" type="line"/>
      <point x="355" y="555" type="line"/>
      <point x="105" y="555" type="line"/>
    </contour>
    <contour>
      <point x="297" y="300" type="line"/>
      <point x="355" y="300" type="line"/>
      <point x="355" y="555" type="line"/>
      <point x="297" y="555" type="line"/>
    </contour>
    <contour>
      <point x="215" y="190" type="line"/>
      <point x="273" y="190" type="line"/>
      <point x="273" y="300" type="line"/>
      <point x="215" y="300" type="line"/>
    </contour>
    <contour>
      <point x="279.0" y="35" type="curve"/>
      <point x="279.0" y="51.01625775"/>
      <point x="266.01625775" y="64.0"/>
      <point x="250" y="64.0" type="curve"/>
      <point x="233.98374225" y="64.0"/>
      <point x="221.0" y="51.01625775"/>
      <point x="221.0" y="35" type="curve"/>
      <point x="221.0" y="18.98374225"/>
      <point x="233.98374225" y="6.0"/>
      <point x="250" y="6.0" type="curve"/>
      <point x="266.01625775" y="6.0"/>
      <point x="279.0" y="18.98374225"/>
    </contour>
  </outline>
</glyph>
<glyph name="uni0040" format="2">
  <advance width="600"/>
  <unicode hex="0040"/>
  <outline>
    <contour>
      <point x="460" y="350" type="curve"/>
      <point x="460" y="504.63973"/>
      <point x="365.9797975" y="630"/>
      <point x="250" y="630" type="curve"/>
      <point x="134.02020249999998" y="630"/>
      <point x="40" y="504.63973"/>
      <point x="40" y="350" type="curve"/>
      <point x="40" y="195.36027"/>
      <point x="134.02020249999998" y="70"/>
      <point x="250" y="70" type="curve"/>
      <point x="365.9797975" y="70"/>
      <point x="460" y="195.36027"/>
    </contour>
    <contour>
      <point x="402" y="350" type="curve"/>
      <point x="402" y="227.3927855"/>
      <point x="333.947282" y="128"/>
      <point x="250" y="128" type="curve"/>
      <point x="166.052718" y="128"/>
      <point x="98" y="227.3927855"/>
      <point x="98" y="350" type="curve"/>
      <point x="98" y="472.6072145"/>
      <point x="166.052718" y="572"/>
      <point x="250" y="572" type="curve"/>
      <point x="333.947282" y="572"/>
      <point x="402" y="472.6072145"/>
    </contour>
    <contour>
      <point x="360" y="350" type="curve"/>
      <point x="360" y="416.27417"/>
      <point x="315.228475" y="470"/>
      <point x="260" y="470" type="curve"/>
      <point x="204.771525" y="470"/>
      <point x="160" y="416.27417"/>
      <point x="160" y="350" type="curve"/>
      <point x="160" y="283.72583"/>
      <point x="204.771525" y="230"/>
      <point x="260" y="230" type="curve"/>
      <point x="315.228475" y="230"/>
      <point x="360" y="283.72583"/>
    </contour>
    <contour>
      <point x="302" y="350" type="curve"/>
      <point x="302" y="315.7583455"/>
      <point x="283.1959595" y="288"/>
      <point x="260" y="288" type="curve"/>
      <point x="236.80404049999999" y="288"/>
      <point x="218" y="315.7583455"/>
      <point x="218" y="350" type="curve"/>
      <point x="218" y="384.2416545"/>
      <point x="236.80404049999999" y="412"/>
      <point x="260" y="412" type="curve"/>
      <point x="283.1959595" y="412"/>
      <point x="302" y="384.2416545"/>
    </contour>
    <contour>
      <point x="320" y="290" type="line"/>
      <point x="378" y="290" type="line"/>
      <point x="378" y="440" type="line"/>
      <point x="320" y="440" type="line"/>
    </contour>
  </outline>
</glyph>
<glyph name="A" format="2">
  <advance width="600"/>
  <unicode hex="0041"/>
  <outline>
    <contour>
      <point x="43.62722746334938" y="5.998814764891845" type="line"/>
      <point x="191.62722746334939" y="705.9988147648918" type="line"/>
      <point x="248.37277253665061" y="694.0011852351082" type="line"/>
      <point x="100.37277253665061" y="-5.998814764891845" type="line"/>
    </contour>
    <contour>
      <point x="399.62722746334936" y="-5.998814764891845" type="line"/>
      <point x="251.62722746334939" y="694.0011852351082" type="line"/>
      <point x="308.37277253665064" y="705.9988147648918" type="line"/>
      <point x="456.37277253665064" y="5.998814764891845" type="line"/>
    </contour>
    <contour>
      <point x="163.76" y="286" type="curve"/>
      <point x="336.24" y="286" type="line"/>
      <point x="343.28715341000003" y="286"/>
      <point x="349" y="291.71284658999997"/>
      <point x="349" y="298.76" type="curve"/>
      <point x="349" y="320.8" type="line"/>
      <point x="349" y="327.84715341000003"/>
      <point x="343.28715341000003" y="333.56"/>
      <point x="336.24" y="333.56" type="curve"/>
      <point x="163.76" y="333.56" type="line"/>
      <point x="156.71284659" y="333.56"/>
      <point x="151" y="327.84715341000003"/>
      <point x="151" y="320.8" type="curve"/>
      <point x="151" y="298.76" type="line"/>
      <point x="151" y="291.71284658999997"/>
      <point x="156.71284659" y="286"/>
    </contour>
  </outline>
</glyph>
<glyph name="B" format="2">
  <advance width="600"/>
  <unicode hex="0042"/>
  <outline>
    <contour>
      <point x="40" y="0" type="line"/>
      <point x="98" y="0" type="line"/>
      <point x="98" y="700" type="line"/>
      <point x="40" y="700" type="line"/>
    </contour>
    <contour>
      <point x="435" y="525" type="curve"/>
      <point x="435" y="613.36556"/>
      <point x="349.9341025" y="685"/>
      <point x="245" y="685" type="curve"/>
      <point x="140.0658975" y="685"/>
      <point x="55" y="613.36556"/>
      <point x="55" y="525" type="curve"/>
      <point x="55" y="436.63444"/>
      <point x="140.0658975" y="365"/>
      <point x="245" y="365" type="curve"/>
      <point x="349.9341025" y="365"/>
      <point x="435" y="436.63444"/>
    </contour>
    <contour>
      <point x="377" y="525" type="curve"/>
      <point x="377" y="468.6669555"/>
      <point x="317.901587" y="423"/>
      <point x="245" y="423" type="curve"/>
      <point x="172.098413" y="423"/>
      <point x="113" y="468.6669555"/>
      <point x="113" y="525" type="curve"/>
      <point x="113" y="581.3330445"/>
      <point x="172.098413" y="627"/>
      <point x="245" y="627" type="curve"/>
      <point x="317.901587" y="627"/>
      <point x="377" y="581.3330445"/>
    </contour>
    <contour>
      <point x="435" y="175" type="curve"/>
      <point x="435" y="263.36556"/>
      <point x="349.9341025" y="335"/>
      <point x="245" y="335" type="curve"/>
      <point x="140.0658975" y="335"/>
      <point x="55" y="263.36556"/>
      <point x="55" y="175" type="curve"/>
      <point x="55" y="86.63444"/>
      <point x="140.0658975" y="15"/>
      <point x="245" y="15" type="curve"/>
      <point x="349.9341025" y="15"/>
      <point x="435" y="86.63444"/>
    </contour>
    <contour>
      <point x="377" y="175" type="curve"/>
      <point x="377" y="118.6669555"/>
      <point x="317.901587" y="73"/>
      <point x="245" y="73" type="curve"/>
      <point x="172.098413" y="73"/>
      <point x="113" y="118.6669555"/>
      <point x="113" y="175" type="curve"/>
      <point x="113" y="231.3330445"/>
      <point x="172.098413" y="277"/>
      <point x="245" y="277" type="curve"/>
      <point x="317.901587" y="277"/>
      <point x="377" y="231.3330445"/>
    </contour>
  </outline>
</glyph>
<glyph name="D" format="2">
  <advance width="600"/>
  <unicode hex="0044"/>
  <outline>
    <contour>
      <point x="460" y="350" type="curve"/>
      <point x="460" y="543.2996625000001"/>
      <point x="365.9797975" y="700"/>
      <point x="250" y="700" type="curve"/>
      <point x="134.02020249999998" y="700"/>
      <point x="40" y="543.2996625000001"/>
      <point x="40" y="350" type="curve"/>
      <point x="40" y="156.7003375"/>
      <point x="134.02020249999998" y="0"/>
      <point x="250" y="0" type="curve"/>
      <point x="365.9797975" y="0"/>
      <point x="460" y="156.7003375"/>
    </contour>
    <contour>
      <point x="402" y="350" type="curve"/>
      <point x="402" y="188.732853"/>
      <point x="333.947282" y="58"/>
      <point x="250" y="58" type="curve"/>
      <point x="166.052718" y="58"/>
      <point x="98" y="188.732853"/>
      <point x="98" y="350" type="curve"/>
      <point x="98" y="511.267147"/>
      <point x="166.052718" y="642"/>
      <point x="250" y="642" type="curve"/>
      <point x="333.947282" y="642"/>
      <point x="402" y="511.267147"/>
    </contour>
    <contour>
      <point x="40" y="0" type="line"/>
      <point x="98" y="0" type="line"/>
      <point x="98" y="700" type="line"/>
      <point x="40" y="700" type="line"/>
    </contour>
  </outline>
</glyph>
<glyph name="E" format="2">
  <advance width="600"/>
  <unicode hex="0045"/>
  <outline>
    <contour>
      <point x="40" y="0" type="line"/>
      <point x="98" y="0" type="line"/>
      <point x="98" y="700" type="line"/>
      <point x="40" y="700" type="line"/>
    </contour>
    <contour>
      <point x="40" y="642" type="line"/>
      <point x="430" y="642" type="line"/>
      <point x="430" y="700" type="line"/>
      <point x="40" y="700" type="line"/>
    </contour>
    <contour>
      <point x="40" y="310" type="line"/>
      <point x="350" y="310" type="line"/>
      <point x="350" y="368" type="line"/>
      <point x="40" y="368" type="line"/>
    </contour>
    <contour>
      <point x="40" y="0" type="line"/>
      <point x="430" y="0" type="line"/>
      <point x="430" y="58" type="line"/>
      <point x="40" y="58" type="line"/>
    </contour>
  </outline>
</glyph>
<glyph name="G" format="2">
  <advance width="600"/>
  <unicode hex="0047"/>
  <outline>
    <contour>
      <point x="419.48" y="588.0" type="line"/>
      <point x="353.76" y="700"/>
      <point x="162.96" y="700"/>
      <point x="40" y="500.5" type="curve"/>
      <point x="40" y="199.5"/>
      <point x="162.96" y="0"/>
      <point x="353.76" y="0" type="curve"/>
      <point x="406.76" y="87.5"/>
      <point x="419.48" y="147.0"/>
      <point x="419.48" y="175.0" type="curve"/>
      <point x="373.66" y="213.5" type="line"/>
      <point x="332.56" y="58"/>
      <point x="98" y="238.0"/>
      <point x="98" y="350" type="curve"/>
      <point x="98" y="462.0"/>
      <point x="332.56" y="642"/>
      <point x="373.66" y="486.5" type="curve"/>
    </contour>
    <contour>
      <point x="266.24" y="294" type="curve"/>
      <point x="423.76" y="294" type="line"/>
      <point x="432.72910434" y="294"/>
      <point x="440" y="301.27089566"/>
      <point x="440" y="310.24" type="curve"/>
      <point x="440" y="335.76" type="line"/>
      <point x="440" y="344.72910434"/>
      <point x="432.72910434" y="352"/>
      <point x="423.76" y="352" type="curve"/>
      <point x="266.24" y="352" type="line"/>
      <point x="257.27089566" y="352"/>
      <point x="250" y="344.72910434"/>
      <point x="250" y="335.76" type="curve"/>
      <point x="250" y="310.24" type="line"/>
      <point x="250" y="301.27089566"/>
      <point x="257.27089566" y="294"/>
    </contour>
    <contour>
      <point x="392.24" y="132" type="curve"/>
      <point x="417.76" y="132" type="line"/>
      <point x="426.72910434" y="132"/>
      <point x="434" y="139.27089566"/>
      <point x="434" y="148.24" type="curve"/>
      <point x="434" y="283.76" type="line"/>
      <point x="434" y="292.72910434"/>
      <point x="426.72910434" y="300"/>
      <point x="417.76" y="300" type="curve"/>
      <point x="392.24" y="300" type="line"/>
      <point x="383.27089566" y="300"/>
      <point x="376" y="292.72910434"/>
      <point x="376" y="283.76" type="curve"/>
      <point x="376" y="148.24" type="line"/>
      <point x="376" y="139.27089566"/>
      <point x="383.27089566" y="132"/>
    </contour>
  </outline>
</glyph>
<glyph name="I" format="2">
  <advance width="600"/>
  <unicode hex="0049"/>
  <outline>
    <contour>
      <point x="218" y="0" type="line"/>
      <point x="276" y="0" type="line"/>
      <point x="276" y="700" type="line"/>
      <point x="218" y="700" type="line"/>
    </contour>
    <contour>
      <point x="180" y="0" type="line"/>
      <point x="320" y="0" type="line"/>
      <point x="320" y="31.900000000000002" type="line"/>
      <point x="180" y="31.900000000000002" type="line"/>
    </contour>
    <contour>
      <point x="180" y="668.1" type="line"/>
      <point x="320" y="668.1" type="line"/>
      <point x="320" y="700.0" type="line"/>
      <point x="180" y="700.0" type="line"/>
    </contour>
  </outline>
</glyph>
<glyph name="J" format="2">
  <advance width="600"/>
  <unicode hex="004A"/>
  <outline>
    <contour>
      <point x="361.24" y="150" type="curve"/>
      <point x="386.76" y="150" type="line"/>
      <point x="395.72910434" y="150"/>
      <point x="403" y="157.27089566"/>
      <point x="403" y="166.24" type="curve"/>
      <point x="403" y="683.76" type="line"/>
      <point x="403" y="692.72910434"/>
      <point x="395.72910434" y="700"/>
      <point x="386.76" y="700" type="curve"/>
      <point x="361.24" y="700" type="line"/>
      <point x="352.27089566" y="700"/>
      <point x="345" y="692.72910434"/>
      <point x="345" y="683.76" type="curve"/>
      <point x="345" y="166.24" type="line"/>
      <point x="345" y="157.27089566"/>
      <point x="352.27089566" y="150"/>
    </contour>
    <contour>
      <point x="409" y="150" type="line"/>
      <point x="409" y="42"/>
      <point x="328" y="-8"/>
      <point x="218" y="-8" type="curve"/>
      <point x="110" y="-8"/>
      <point x="48" y="47"/>
      <point x="48" y="160" type="curve"/>
      <point x="112" y="160" type="line"/>
      <point x="112" y="85"/>
      <point x="147" y="54"/>
      <point x="218" y="54" type="curve"/>
      <point x="286" y="54"/>
      <point x="345" y="83"/>
      <point x="345" y="150" type="curve"/>
    </contour>
  </outline>
</glyph>
<glyph name="K" format="2">
  <advance width="600"/>
  <unicode hex="004B"/>
  <outline>
    <contour>
      <point x="40" y="0" type="line"/>
      <point x="98" y="0" type="line"/>
      <point x="98" y="700" type="line"/>
      <point x="40" y="700" type="line"/>
    </contour>
    <contour>
      <point x="451.2207540097268" y="680.234383408083" type="line"/>
      <point x="125.22075400972682" y="330.23438340808303" type="line"/>
      <point x="82.77924599027318" y="369.76561659191697" type="line"/>
      <point x="408.7792459902732" y="719.765616591917" type="line"/>
    </contour>
    <contour>
      <point x="124.9202323098976" y="370.0834230175017" type="line"/>
      <point x="460.9202323098976" y="20.08342301750169" type="line"/>
      <point x="419.0797676901024" y="-20.08342301750169" type="line"/>
      <point x="83.0797676901024" y="329.9165769824983" type="line"/>
    </contour>
  </outline>
</glyph>
<glyph name="L" format="2">
  <advance width="600"/>
  <unicode hex="004C"/>
  <outline>
    <contour>
      <point x="40" y="0" type="line"/>
      <point x="98" y="0" type="line"/>
      <point x="98" y="700" type="line"/>
      <point x="40" y="700" type="line"/>
    </contour>
    <contour>
      <point x="40" y="0" type="line"/>
      <point x="440" y="0" type="line"/>
      <point x="440" y="58" type="line"/>
      <point x="40" y="58" type="line"/>
    </contour>
  </outline>
</glyph>
<glyph name="M" format="2">
  <advance width="600"/>
  <unicode hex="004D"/>
  <outline>
    <contour>
      <point x="40" y="0" type="line"/>
      <point x="98" y="0" type="line"/>
      <point x="98" y="700" type="line"/>
      <point x="40" y="700" type="line"/>
    </contour>
    <contour>
      <point x="430" y="0" type="line"/>
      <point x="488" y="0" type="line"/>
      <point x="488" y="700" type="line"/>
      <point x="430" y="700" type="line"/>
    </contour>
    <contour>
      <point x="130.76470367994088" y="711.1647049636325" type="line"/>
      <point x="276.76470367994085" y="361.16470496363246" type="line"/>
      <point x="223.23529632005912" y="338.83529503636754" type="line"/>
      <point x="77.23529632005913" y="688.8352950363675" type="line"/>
    </contour>
    <contour>
      <point x="422.76470367994085" y="688.8352950363675" type="line"/>
      <point x="276.76470367994085" y="338.83529503636754" type="line"/>
      <point x="223.23529632005912" y="361.16470496363246" type="line"/>
      <point x="369.23529632005915" y="711.1647049636325" type="line"/>
    </contour>
  </outline>
</glyph>
<glyph name="N" format="2">
  <advance width="600"/>
  <unicode hex="004E"/>
  <outline>
    <contour>
      <point x="40" y="0" type="line"/>
      <point x="98" y="0" type="line"/>
      <point x="98" y="700" type="line"/>
      <point x="40" y="700" type="line"/>
    </contour>
    <contour>
      <point x="396" y="0" type="line"/>
      <point x="454" y="0" type="line"/>
      <point x="454" y="700" type="line"/>
      <point x="396" y="700" type="line"/>
    </contour>
    <contour>
      <point x="130.76470367994088" y="711.1647049636325" type="line"/>
      <point x="422.76470367994085" y="11.164704963632477" type="line"/>
      <point x="369.23529632005915" y="-11.164704963632477" type="line"/>
      <point x="77.23529632005913" y="688.8352950363675" type="line"/>
    </contour>
  </outline>
</glyph>
<glyph name="O" format="2">
  <advance width="600"/>
  <unicode hex="004F"/>
  <outline>
    <contour>
      <point x="460" y="350" type="curve"/>
      <point x="460" y="543.2996625000001"/>
      <point x="365.9797975" y="700"/>
      <point x="250" y="700" type="curve"/>
      <point x="134.02020249999998" y="700"/>
      <point x="40" y="543.2996625000001"/>
      <point x="40" y="350" type="curve"/>
      <point x="40" y="156.7003375"/>
      <point x="134.02020249999998" y="0"/>
      <point x="250" y="0" type="curve"/>
      <point x="365.9797975" y="0"/>
      <point x="460" y="156.7003375"/>
    </contour>
    <contour>
      <point x="402" y="350" type="curve"/>
      <point x="402" y="188.732853"/>
      <point x="333.947282" y="58"/>
      <point x="250" y="58" type="curve"/>
      <point x="166.052718" y="58"/>
      <point x="98" y="188.732853"/>
      <point x="98" y="350" type="curve"/>
      <point x="98" y="511.267147"/>
      <point x="166.052718" y="642"/>
      <point x="250" y="642" type="curve"/>
      <point x="333.947282" y="642"/>
      <point x="402" y="511.267147"/>
    </contour>
    <contour>
      <point x="160" y="331" type="line"/>
      <point x="340" y="331" type="line"/>
      <point x="340" y="369.28" type="line"/>
      <point x="160" y="369.28" type="line"/>
    </contour>
  </outline>
</glyph>
<glyph name="P" format="2">
  <advance width="600"/>
  <unicode hex="0050"/>
  <outline>
    <contour>
      <point x="40" y="0" type="line"/>
      <point x="98" y="0" type="line"/>
      <point x="98" y="700" type="line"/>
      <point x="40" y="700" type="line"/>
    </contour>
    <contour>
      <point x="435" y="525" type="curve"/>
      <point x="435" y="613.36556"/>
      <point x="349.9341025" y="685"/>
      <point x="245" y="685" type="curve"/>
      <point x="140.0658975" y="685"/>
      <point x="55" y="613.36556"/>
      <point x="55" y="525" type="curve"/>
      <point x="55" y="436.63444"/>
      <point x="140.0658975" y="365"/>
      <point x="245" y="365" type="curve"/>
      <point x="349.9341025" y="365"/>
      <point x="435" y="436.63444"/>
    </contour>
    <contour>
      <point x="377" y="525" type="curve"/>
      <point x="377" y="468.6669555"/>
      <point x="317.901587" y="423"/>
      <point x="245" y="423" type="curve"/>
      <point x="172.098413" y="423"/>
      <point x="113" y="468.6669555"/>
      <point x="113" y="525" type="curve"/>
      <point x="113" y="581.3330445"/>
      <point x="172.098413" y="627"/>
      <point x="245" y="627" type="curve"/>
      <point x="317.901587" y="627"/>
      <point x="377" y="581.3330445"/>
    </contour>
  </outline>
</glyph>
<glyph name="Q" format="2">
  <advance width="600"/>
  <unicode hex="0051"/>
  <outline>
    <contour>
      <point x="460" y="350" type="curve"/>
      <point x="460" y="543.2996625000001"/>
      <point x="365.9797975" y="700"/>
      <point x="250" y="700" type="curve"/>
      <point x="134.02020249999998" y="700"/>
      <point x="40" y="543.2996625000001"/>
      <point x="40" y="350" type="curve"/>
      <point x="40" y="156.7003375"/>
      <point x="134.02020249999998" y="0"/>
      <point x="250" y="0" type="curve"/>
      <point x="365.9797975" y="0"/>
      <point x="460" y="156.7003375"/>
    </contour>
    <contour>
      <point x="402" y="350" type="curve"/>
      <point x="402" y="188.732853"/>
      <point x="333.947282" y="58"/>
      <point x="250" y="58" type="curve"/>
      <point x="166.052718" y="58"/>
      <point x="98" y="188.732853"/>
      <point x="98" y="350" type="curve"/>
      <point x="98" y="511.267147"/>
      <point x="166.052718" y="642"/>
      <point x="250" y="642" type="curve"/>
      <point x="333.947282" y="642"/>
      <point x="402" y="511.267147"/>
    </contour>
    <contour>
      <point x="316.1000927793739" y="154.89437319198106" type="line"/>
      <point x="481.1000927793739" y="-20.105626808018933" type="line"/>
      <point x="438.8999072206261" y="-59.89437319198107" type="line"/>
      <point x="273.8999072206261" y="115.10562680801894" type="line"/>
    </contour>
  </outline>
</glyph>
<glyph name="R" format="2">
  <advance width="600"/>
  <unicode hex="0052"/>
  <outline>
    <contour>
      <point x="40" y="0" type="line"/>
      <point x="98" y="0" type="line"/>
      <point x="98" y="700" type="line"/>
      <point x="40" y="700" type="line"/>
    </contour>
    <contour>
      <point x="435" y="525" type="curve"/>
      <point x="435" y="613.36556"/>
      <point x="349.9341025" y="685"/>
      <point x="245" y="685" type="curve"/>
      <point x="140.0658975" y="685"/>
      <point x="55" y="613.36556"/>
      <point x="55" y="525" type="curve"/>
      <point x="55" y="436.63444"/>
      <point x="140.0658975" y="365"/>
      <point x="245" y="365" type="curve"/>
      <point x="349.9341025" y="365"/>
      <point x="435" y="436.63444"/>
    </contour>
    <contour>
      <point x="377" y="525" type="curve"/>
      <point x="377" y="468.6669555"/>
      <point x="317.901587" y="423"/>
      <point x="245" y="423" type="curve"/>
      <point x="172.098413" y="423"/>
      <point x="113" y="468.6669555"/>
      <point x="113" y="525" type="curve"/>
      <point x="113" y="581.3330445"/>
      <point x="172.098413" y="627"/>
      <point x="245" y="627" type="curve"/>
      <point x="317.901587" y="627"/>
      <point x="377" y="581.3330445"/>
    </contour>
    <contour>
      <point x="275.64715783256213" y="373.53599996718555" type="line"/>
      <point x="465.64715783256213" y="13.535999967185564" type="line"/>
      <point x="414.35284216743787" y="-13.535999967185564" type="line"/>
      <point x="224.35284216743787" y="346.46400003281445" type="line"/>
    </contour>
  </outline>
</glyph>
<glyph name="S" format="2">
  <advance width="600"/>
  <unicode hex="0053"/>
  <outline>
    <contour>
      <point x="414.7" y="694.2" type="line"/>
      <point x="287.0" y="704.64"/>
      <point x="73.7" y="695.36"/>
      <point x="70.8" y="434.0" type="curve"/>
      <point x="67.9" y="357.0"/>
      <point x="227.8" y="354.64"/>
      <point x="246.3" y="350" type="curve"/>
      <point x="287.0" y="266.0"/>
      <point x="432.68" y="329.0"/>
      <point x="430.36" y="203.0" type="curve"/>
      <point x="428.04" y="2.9000000000000004"/>
      <point x="205.6" y="-3.48"/>
      <point x="67.9" y="8.120000000000001" type="curve"/>
      <point x="74.28" y="56.839999999999996" type="line"/>
      <point x="213.0" y="35.96"/>
      <point x="397.3" y="49.3"/>
      <point x="401.36" y="189.0" type="curve"/>
      <point x="403.68" y="315.0"/>
      <point x="268.5" y="308.0"/>
      <point x="235.2" y="351.74" type="curve"/>
      <point x="187.1" y="358.7"/>
      <point x="91.68" y="356.96"/>
      <point x="95.16" y="448.0" type="curve"/>
      <point x="98.64" y="664.04"/>
      <point x="279.6" y="673.9"/>
      <point x="416.44" y="643.16" type="curve"/>
    </contour>
  </outline>
</glyph>
<glyph name="U" format="2">
  <advance width="600"/>
  <unicode hex="0055"/>
  <outline>
    <contour>
      <point x="56.24" y="210" type="curve"/>
      <point x="81.75999999999999" y="210" type="line"/>
      <point x="90.72910433999999" y="210"/>
      <point x="98" y="217.27089566"/>
      <point x="98" y="226.24" type="curve"/>
      <point x="98" y="683.76" type="line"/>
      <point x="98" y="692.72910434"/>
      <point x="90.72910433999999" y="700"/>
      <point x="81.75999999999999" y="700" type="curve"/>
      <point x="56.24" y="700" type="line"/>
      <point x="47.27089566" y="700"/>
      <point x="40" y="692.72910434"/>
      <point x="40" y="683.76" type="curve"/>
      <point x="40" y="226.24" type="line"/>
      <point x="40" y="217.27089566"/>
      <point x="47.27089566" y="210"/>
    </contour>
    <contour>
      <point x="412.24" y="210" type="curve"/>
      <point x="437.76" y="210" type="line"/>
      <point x="446.72910434" y="210"/>
      <point x="454" y="217.27089566"/>
      <point x="454" y="226.24" type="curve"/>
      <point x="454" y="683.76" type="line"/>
      <point x="454" y="692.72910434"/>
      <point x="446.72910434" y="700"/>
      <point x="437.76" y="700" type="curve"/>
      <point x="412.24" y="700" type="line"/>
      <point x="403.27089566" y="700"/>
      <point x="396" y="692.72910434"/>
      <point x="396" y="683.76" type="curve"/>
      <point x="396" y="226.24" type="line"/>
      <point x="396" y="217.27089566"/>
      <point x="403.27089566" y="210"/>
    </contour>
    <contour>
      <point x="40" y="210" type="line"/>
      <point x="40" y="68"/>
      <point x="127" y="-8"/>
      <point x="250" y="-8" type="curve"/>
      <point x="373" y="-8"/>
      <point x="460" y="68"/>
      <point x="460" y="210" type="curve"/>
      <point x="396" y="210" type="line"/>
      <point x="396" y="104"/>
      <point x="345" y="54"/>
      <point x="250" y="54" type="curve"/>
      <point x="155" y="54"/>
      <point x="104" y="104"/>
      <point x="104" y="210" type="curve"/>
    </contour>
  </outline>
</glyph>
<glyph name="V" format="2">
  <advance width="600"/>
  <unicode hex="0056"/>
  <outline>
    <contour>
      <point x="103.13413250421462" y="707.0335331260536" type="line"/>
      <point x="278.1341325042146" y="7.033533126053655" type="line"/>
      <point x="221.86586749578538" y="-7.033533126053655" type="line"/>
      <point x="46.86586749578538" y="692.9664668739464" type="line"/>
    </contour>
    <contour>
      <point x="453.1341325042146" y="692.9664668739464" type="line"/>
      <point x="278.1341325042146" y="-7.033533126053655" type="line"/>
      <point x="221.86586749578538" y="7.033533126053655" type="line"/>
      <point x="396.8658674957854" y="707.0335331260536" type="line"/>
    </contour>
  </outline>
</glyph>
<glyph name="W" format="2">
  <advance width="600"/>
  <unicode hex="0057"/>
  <outline>
    <contour>
      <point x="73.73656714131982" y="703.8999626834649" type="line"/>
      <point x="168.73656714131982" y="3.8999626834648318" type="line"/>
      <point x="111.26343285868018" y="-3.8999626834648318" type="line"/>
      <point x="16.263432858680183" y="696.1000373165351" type="line"/>
    </contour>
    <contour>
      <point x="483.7365671413198" y="696.1000373165351" type="line"/>
      <point x="388.7365671413198" y="-3.8999626834648318" type="line"/>
      <point x="331.2634328586802" y="3.8999626834648318" type="line"/>
      <point x="426.2634328586802" y="703.8999626834649" type="line"/>
    </contour>
    <contour>
      <point x="112.08895939639429" y="7.87234478563238" type="line"/>
      <point x="222.08895939639427" y="397.8723447856324" type="line"/>
      <point x="277.9110406036057" y="382.1276552143676" type="line"/>
      <point x="167.91104060360573" y="-7.87234478563238" type="line"/>
    </contour>
    <contour>
      <point x="332.0889593963943" y="-7.87234478563238" type="line"/>
      <point x="222.08895939639427" y="382.1276552143676" type="line"/>
      <point x="277.9110406036057" y="397.8723447856324" type="line"/>
      <point x="387.9110406036057" y="7.87234478563238" type="line"/>
    </contour>
  </outline>
</glyph>
<glyph name="X" format="2">
  <advance width="600"/>
  <unicode hex="0058"/>
  <outline>
    <contour>
      <point x="95.78934626722626" y="713.2630923660021" type="line"/>
      <point x="455.7893462672263" y="13.263092366002079" type="line"/>
      <point x="404.2106537327737" y="-13.263092366002079" type="line"/>
      <point x="44.210653732773736" y="686.7369076339979" type="line"/>
    </contour>
    <contour>
      <point x="455.7893462672263" y="686.7369076339979" type="line"/>
      <point x="95.78934626722626" y="-13.263092366002079" type="line"/>
      <point x="44.210653732773736" y="13.263092366002079" type="line"/>
      <point x="404.2106537327737" y="713.2630923660021" type="line"/>
    </contour>
  </outline>
</glyph>
<glyph name="Y" format="2">
  <advance width="600"/>
  <unicode hex="0059"/>
  <outline>
    <contour>
      <point x="95.78934626722626" y="713.2630923660021" type="line"/>
      <point x="275.7893462672263" y="363.26309236600207" type="line"/>
      <point x="224.21065373277372" y="336.73690763399793" type="line"/>
      <point x="44.210653732773736" y="686.7369076339979" type="line"/>
    </contour>
    <contour>
      <point x="455.7893462672263" y="686.7369076339979" type="line"/>
      <point x="275.7893462672263" y="336.73690763399793" type="line"/>
      <point x="224.21065373277372" y="363.26309236600207" type="line"/>
      <point x="404.2106537327737" y="713.2630923660021" type="line"/>
    </contour>
    <contour>
      <point x="218" y="0" type="line"/>
      <point x="276" y="0" type="line"/>
      <point x="276" y="350" type="line"/>
      <point x="218" y="350" type="line"/>
    </contour>
  </outline>
</glyph>
<glyph name="Z" format="2">
  <advance width="600"/>
  <unicode hex="005A"/>
  <outline>
    <contour>
      <point x="50" y="642" type="line"/>
      <point x="450" y="642" type="line"/>
      <point x="450" y="700" type="line"/>
      <point x="50" y="700" type="line"/>
    </contour>
    <contour>
      <point x="455.2946080648813" y="656.8161076271693" type="line"/>
      <point x="95.29460806488129" y="14.816107627169373" type="line"/>
      <point x="44.70539193511872" y="43.18389237283063" type="line"/>
      <point x="404.7053919351187" y="685.1838923728307" type="line"/>
    </contour>
    <contour>
      <point x="50" y="0" type="line"/>
      <point x="450" y="0" type="line"/>
      <point x="450" y="58" type="line"/>
      <point x="50" y="58" type="line"/>
    </contour>
  </outline>
</glyph>
<glyph name="uni005B" format="2">
  <advance width="600"/>
  <unicode hex="005B"/>
  <outline>
    <contour>
      <point x="150" y="80" type="line"/>
      <point x="208" y="80" type="line"/>
      <point x="208" y="620" type="line"/>
      <point x="150" y="620" type="line"/>
    </contour>
    <contour>
      <point x="150" y="620" type="line"/>
      <point x="250" y="620" type="line"/>
      <point x="250" y="678" type="line"/>
      <point x="150" y="678" type="line"/>
    </contour>
    <contour>
      <point x="150" y="80" type="line"/>
      <point x="250" y="80" type="line"/>
      <point x="250" y="138" type="line"/>
      <point x="150" y="138" type="line"/>
    </contour>
  </outline>
</glyph>
<glyph name="uni005C" format="2">
  <advance width="600"/>
  <unicode hex="005C"/>
  <outline>
    <contour>
      <point x="352.8146671117168" y="-10.097409358505187" type="line"/>
      <point x="92.8146671117168" y="689.9025906414948" type="line"/>
      <point x="147.1853328882832" y="710.0974093585052" type="line"/>
      <point x="407.1853328882832" y="10.097409358505187" type="line"/>
    </contour>
  </outline>
</glyph>
<glyph name="uni005D" format="2">
  <advance width="600"/>
  <unicode hex="005D"/>
  <outline>
    <contour>
      <point x="292" y="80" type="line"/>
      <point x="350" y="80" type="line"/>
      <point x="350" y="620" type="line"/>
      <point x="292" y="620" type="line"/>
    </contour>
    <contour>
      <point x="234" y="620" type="line"/>
      <point x="334" y="620" type="line"/>
      <point x="334" y="678" type="line"/>
      <point x="234" y="678" type="line"/>
    </contour>
    <contour>
      <point x="234" y="80" type="line"/>
      <point x="334" y="80" type="line"/>
      <point x="334" y="138" type="line"/>
      <point x="234" y="138" type="line"/>
    </contour>
  </outline>
</glyph>
<glyph name="uni0060" format="2">
  <advance width="600"/>
  <unicode hex="0060"/>
  <outline>
    <contour>
      <point x="263.2502674549937" y="549.110992242225" type="line"/>
      <point x="223.25026745499372" y="459.110992242225" type="line"/>
      <point x="196.74973254500628" y="470.889007757775" type="line"/>
      <point x="236.74973254500628" y="560.889007757775" type="line"/>
    </contour>
  </outline>
</glyph>
<glyph name="a" format="2">
  <advance width="600"/>
  <unicode hex="0061"/>
  <outline>
    <contour>
      <point x="378" y="244" type="curve"/>
      <point x="378" y="378.757479"/>
      <point x="310.8427125" y="488"/>
      <point x="228" y="488" type="curve"/>
      <point x="145.1572875" y="488"/>
      <point x="78" y="378.757479"/>
      <point x="78" y="244" type="curve"/>
      <point x="78" y="109.24252100000001"/>
      <point x="145.1572875" y="0"/>
      <point x="228" y="0" type="curve"/>
      <point x="310.8427125" y="0"/>
      <point x="378" y="109.24252100000001"/>
    </contour>
    <contour>
      <point x="320" y="244" type="curve"/>
      <point x="320" y="141.2750365"/>
      <point x="278.810197" y="58"/>
      <point x="228" y="58" type="curve"/>
      <point x="177.18980299999998" y="58"/>
      <point x="136" y="141.2750365"/>
      <point x="136" y="244" type="curve"/>
      <point x="136" y="346.7249635"/>
      <point x="177.18980299999998" y="430"/>
      <point x="228" y="430" type="curve"/>
      <point x="278.810197" y="430"/>
      <point x="320" y="346.7249635"/>
    </contour>
    <contour>
      <point x="360.24" y="0" type="curve"/>
      <point x="385.76" y="0" type="line"/>
      <point x="394.72910434" y="0"/>
      <point x="402" y="7.270895660000001"/>
      <point x="402" y="16.240000000000002" type="curve"/>
      <point x="402" y="538.76" type="line"/>
      <point x="402" y="547.72910434"/>
      <point x="394.72910434" y="555"/>
      <point x="385.76" y="555" type="curve"/>
      <point x="360.24" y="555" type="line"/>
      <point x="351.27089566" y="555"/>
      <point x="344" y="547.72910434"/>
      <point x="344" y="538.76" type="curve"/>
      <point x="344" y="16.240000000000002" type="line"/>
      <point x="344" y="7.270895660000001"/>
      <point x="351.27089566" y="0"/>
    </contour>
  </outline>
</glyph>
<glyph name="b" format="2">
  <advance width="600"/>
  <unicode hex="0062"/>
  <outline>
    <contour>
      <point x="76.24000000000001" y="0" type="curve"/>
      <point x="101.75999999999999" y="0" type="line"/>
      <point x="110.72910433999999" y="0"/>
      <point x="118" y="7.270895660000001"/>
      <point x="118" y="16.240000000000002" type="curve"/>
      <point x="118" y="743.76" type="line"/>
      <point x="118" y="752.72910434"/>
      <point x="110.72910433999999" y="760"/>
      <point x="101.75999999999999" y="760" type="curve"/>
      <point x="76.24000000000001" y="760" type="line"/>
      <point x="67.27089566000001" y="760"/>
      <point x="60" y="752.72910434"/>
      <point x="60" y="743.76" type="curve"/>
      <point x="60" y="16.240000000000002" type="line"/>
      <point x="60" y="7.270895660000001"/>
      <point x="67.27089566000001" y="0"/>
    </contour>
    <contour>
      <point x="430" y="278" type="curve"/>
      <point x="430" y="431.53516049999996"/>
      <point x="349.411255" y="556"/>
      <point x="250" y="556" type="curve"/>
      <point x="150.58874500000002" y="556"/>
      <point x="70" y="431.53516049999996"/>
      <point x="70" y="278" type="curve"/>
      <point x="70" y="124.46483950000001"/>
      <point x="150.58874500000002" y="0"/>
      <point x="250" y="0" type="curve"/>
      <point x="349.411255" y="0"/>
      <point x="430" y="124.46483950000001"/>
    </contour>
    <contour>
      <point x="372" y="278" type="curve"/>
      <point x="372" y="156.497355"/>
      <point x="317.3787395" y="58"/>
      <point x="250" y="58" type="curve"/>
      <point x="182.6212605" y="58"/>
      <point x="128" y="156.497355"/>
      <point x="128" y="278" type="curve"/>
      <point x="128" y="399.50264500000003"/>
      <point x="182.6212605" y="498"/>
      <point x="250" y="498" type="curve"/>
      <point x="317.3787395" y="498"/>
      <point x="372" y="399.50264500000003"/>
    </contour>
  </outline>
</glyph>
<glyph name="d" format="2">
  <advance width="600"/>
  <unicode hex="0064"/>
  <outline>
    <contour>
      <point x="334.24" y="0" type="curve"/>
      <point x="359.76" y="0" type="line"/>
      <point x="368.72910434" y="0"/>
      <point x="376" y="7.270895660000001"/>
      <point x="376" y="16.240000000000002" type="curve"/>
      <point x="376" y="743.76" type="line"/>
      <point x="376" y="752.72910434"/>
      <point x="368.72910434" y="760"/>
      <point x="359.76" y="760" type="curve"/>
      <point x="334.24" y="760" type="line"/>
      <point x="325.27089566" y="760"/>
      <point x="318" y="752.72910434"/>
      <point x="318" y="743.76" type="curve"/>
      <point x="318" y="16.240000000000002" type="line"/>
      <point x="318" y="7.270895660000001"/>
      <point x="325.27089566" y="0"/>
    </contour>
    <contour>
      <point x="430" y="278" type="curve"/>
      <point x="430" y="431.53516049999996"/>
      <point x="349.411255" y="556"/>
      <point x="250" y="556" type="curve"/>
      <point x="150.58874500000002" y="556"/>
      <point x="70" y="431.53516049999996"/>
      <point x="70" y="278" type="curve"/>
      <point x="70" y="124.46483950000001"/>
      <point x="150.58874500000002" y="0"/>
      <point x="250" y="0" type="curve"/>
      <point x="349.411255" y="0"/>
      <point x="430" y="124.46483950000001"/>
    </contour>
    <contour>
      <point x="372" y="278" type="curve"/>
      <point x="372" y="156.497355"/>
      <point x="317.3787395" y="58"/>
      <point x="250" y="58" type="curve"/>
      <point x="182.6212605" y="58"/>
      <point x="128" y="156.497355"/>
      <point x="128" y="278" type="curve"/>
      <point x="128" y="399.50264500000003"/>
      <point x="182.6212605" y="498"/>
      <point x="250" y="498" type="curve"/>
      <point x="317.3787395" y="498"/>
      <point x="372" y="399.50264500000003"/>
    </contour>
  </outline>
</glyph>
<glyph name="e" format="2">
  <advance width="600"/>
  <unicode hex="0065"/>
  <outline>
    <contour>
      <point x="388.6" y="467.04" type="line"/>
      <point x="336.4" y="556"/>
      <point x="174.4" y="556"/>
      <point x="70" y="397.53999999999996" type="curve"/>
      <point x="70" y="158.46"/>
      <point x="174.4" y="0"/>
      <point x="336.4" y="0" type="curve"/>
      <point x="381.4" y="69.5"/>
      <point x="388.6" y="116.76000000000002"/>
      <point x="388.6" y="139.0" type="curve"/>
      <point x="343.94" y="169.57999999999998" type="line"/>
      <point x="318.4" y="58"/>
      <point x="128" y="189.04"/>
      <point x="128" y="278" type="curve"/>
      <point x="128" y="366.96000000000004"/>
      <point x="318.4" y="498"/>
      <point x="343.94" y="386.42" type="curve"/>
    </contour>
    <contour>
      <point x="105.92" y="246" type="curve"/>
      <point x="388.08" y="246" type="line"/>
      <point x="395.76780371999996" y="246"/>
      <point x="402" y="252.23219628"/>
      <point x="402" y="259.92" type="curve"/>
      <point x="402" y="290.08" type="line"/>
      <point x="402" y="297.76780371999996"/>
      <point x="395.76780371999996" y="304"/>
      <point x="388.08" y="304" type="curve"/>
      <point x="105.92" y="304" type="line"/>
      <point x="98.23219628" y="304"/>
      <point x="92" y="297.76780371999996"/>
      <point x="92" y="290.08" type="curve"/>
      <point x="92" y="259.92" type="line"/>
      <point x="92" y="252.23219628"/>
      <point x="98.23219628" y="246"/>
    </contour>
  </outline>
</glyph>
<glyph name="f" format="2">
  <advance width="600"/>
  <unicode hex="0066"/>
  <outline>
    <contour>
      <point x="231.24" y="0" type="curve"/>
      <point x="256.76" y="0" type="line"/>
      <point x="265.72910434" y="0"/>
      <point x="273" y="7.270895660000001"/>
      <point x="273" y="16.240000000000002" type="curve"/>
      <point x="273" y="743.76" type="line"/>
      <point x="273" y="752.72910434"/>
      <point x="265.72910434" y="760"/>
      <point x="256.76" y="760" type="curve"/>
      <point x="231.24" y="760" type="line"/>
      <point x="222.27089566" y="760"/>
      <point x="215" y="752.72910434"/>
      <point x="215" y="743.76" type="curve"/>
      <point x="215" y="16.240000000000002" type="line"/>
      <point x="215" y="7.270895660000001"/>
      <point x="222.27089566" y="0"/>
    </contour>
    <contour>
      <point x="215" y="500" type="line"/>
      <point x="215" y="670"/>
      <point x="294" y="770"/>
      <point x="398" y="734" type="curve"/>
      <point x="398" y="670" type="line"/>
      <point x="325" y="687"/>
      <point x="279" y="632"/>
      <point x="279" y="500" type="curve"/>
    </contour>
    <contour>
      <point x="118.92" y="350" type="curve"/>
      <point x="381.08" y="350" type="line"/>
      <point x="388.76780371999996" y="350"/>
      <point x="395" y="356.23219628000004"/>
      <point x="395" y="363.92" type="curve"/>
      <point x="395" y="394.08" type="line"/>
      <point x="395" y="401.76780371999996"/>
      <point x="388.76780371999996" y="408"/>
      <point x="381.08" y="408" type="curve"/>
      <point x="118.92" y="408" type="line"/>
      <point x="111.23219628" y="408"/>
      <point x="105" y="401.76780371999996"/>
      <point x="105" y="394.08" type="curve"/>
      <point x="105" y="363.92" type="line"/>
      <point x="105" y="356.23219628000004"/>
      <point x="111.23219628" y="350"/>
    </contour>
  </outline>
</glyph>
<glyph name="g" format="2">
  <advance width="600"/>
  <unicode hex="0067"/>
  <outline>
    <contour>
      <point x="378" y="260" type="curve"/>
      <point x="378" y="392.54834"/>
      <point x="310.8427125" y="500"/>
      <point x="228" y="500" type="curve"/>
      <point x="145.1572875" y="500"/>
      <point x="78" y="392.54834"/>
      <point x="78" y="260" type="curve"/>
      <point x="78" y="127.45166"/>
      <point x="145.1572875" y="20"/>
      <point x="228" y="20" type="curve"/>
      <point x="310.8427125" y="20"/>
      <point x="378" y="127.45166"/>
    </contour>
    <contour>
      <point x="320" y="260" type="curve"/>
      <point x="320" y="159.4841755"/>
      <point x="278.810197" y="78"/>
      <point x="228" y="78" type="curve"/>
      <point x="177.18980299999998" y="78"/>
      <point x="136" y="159.4841755"/>
      <point x="136" y="260" type="curve"/>
      <point x="136" y="360.5158245"/>
      <point x="177.18980299999998" y="442"/>
      <point x="228" y="442" type="curve"/>
      <point x="278.810197" y="442"/>
      <point x="320" y="360.5158245"/>
    </contour>
    <contour>
      <point x="360.24" y="-210" type="curve"/>
      <point x="385.76" y="-210" type="line"/>
      <point x="394.72910434" y="-210"/>
      <point x="402" y="-202.72910434"/>
      <point x="402" y="-193.76" type="curve"/>
      <point x="402" y="538.76" type="line"/>
      <point x="402" y="547.72910434"/>
      <point x="394.72910434" y="555"/>
      <point x="385.76" y="555" type="curve"/>
      <point x="360.24" y="555" type="line"/>
      <point x="351.27089566" y="555"/>
      <point x="344" y="547.72910434"/>
      <point x="344" y="538.76" type="curve"/>
      <point x="344" y="-193.76" type="line"/>
      <point x="344" y="-202.72910434"/>
      <point x="351.27089566" y="-210"/>
    </contour>
    <contour>
      <point x="408" y="0" type="line"/>
      <point x="408" y="-210"/>
      <point x="324" y="-210"/>
      <point x="230" y="-210" type="curve"/>
      <point x="173" y="-210"/>
      <point x="139" y="-185"/>
      <point x="128" y="-146" type="curve"/>
      <point x="192" y="-146" type="line"/>
      <point x="205" y="-175"/>
      <point x="221" y="-180"/>
      <point x="245" y="-180" type="curve"/>
      <point x="305" y="-180"/>
      <point x="344" y="-138"/>
      <point x="344" y="0" type="curve"/>
    </contour>
  </outline>
</glyph>
<glyph name="h" format="2">
  <advance width="600"/>
  <unicode hex="0068"/>
  <outline>
    <contour>
      <point x="76.24000000000001" y="0" type="curve"/>
      <point x="101.75999999999999" y="0" type="line"/>
      <point x="110.72910433999999" y="0"/>
      <point x="118" y="7.270895660000001"/>
      <point x="118" y="16.240000000000002" type="curve"/>
      <point x="118" y="743.76" type="line"/>
      <point x="118" y="752.72910434"/>
      <point x="110.72910433999999" y="760"/>
      <point x="101.75999999999999" y="760" type="curve"/>
      <point x="76.24000000000001" y="760" type="line"/>
      <point x="67.27089566000001" y="760"/>
      <point x="60" y="752.72910434"/>
      <point x="60" y="743.76" type="curve"/>
      <point x="60" y="16.240000000000002" type="line"/>
      <point x="60" y="7.270895660000001"/>
      <point x="67.27089566000001" y="0"/>
    </contour>
    <contour>
      <point x="124" y="0" type="line"/>
      <point x="124" y="555" type="line"/>
      <point x="198.8" y="565"/>
      <point x="344" y="460.65"/>
      <point x="344" y="349.65" type="curve"/>
      <point x="344" y="0" type="line"/>
      <point x="286" y="0" type="line"/>
      <point x="286" y="349.65" type="line"/>
      <point x="286" y="523.1"/>
      <point x="256.8" y="497"/>
      <point x="182" y="497" type="curve"/>
      <point x="182" y="0" type="line"/>
    </contour>
  </outline>
</glyph>
<glyph name="i" format="2">
  <advance width="600"/>
  <unicode hex="0069"/>
  <outline>
    <contour>
      <point x="234.24" y="0" type="curve"/>
      <point x="259.76" y="0" type="line"/>
      <point x="268.72910434" y="0"/>
      <point x="276" y="7.270895660000001"/>
      <point x="276" y="16.240000000000002" type="curve"/>
      <point x="276" y="438.76" type="line"/>
      <point x="276" y="447.72910434"/>
      <point x="268.72910434" y="455"/>
      <point x="259.76" y="455" type="curve"/>
      <point x="234.24" y="455" type="line"/>
      <point x="225.27089566" y="455"/>
      <point x="218" y="447.72910434"/>
      <point x="218" y="438.76" type="curve"/>
      <point x="218" y="16.240000000000002" type="line"/>
      <point x="218" y="7.270895660000001"/>
      <point x="225.27089566" y="0"/>
    </contour>
    <contour>
      <point x="281.9" y="525" type="curve"/>
      <point x="281.9" y="542.617883525"/>
      <point x="267.617883525" y="556.9"/>
      <point x="250" y="556.9" type="curve"/>
      <point x="232.382116475" y="556.9"/>
      <point x="218.1" y="542.617883525"/>
      <point x="218.1" y="525" type="curve"/>
      <point x="218.1" y="507.382116475"/>
      <point x="232.382116475" y="493.1"/>
      <point x="250" y="493.1" type="curve"/>
      <point x="267.617883525" y="493.1"/>
      <point x="281.9" y="507.382116475"/>
    </contour>
  </outline>
</glyph>
<glyph name="j" format="2">
  <advance width="600"/>
  <unicode hex="006A"/>
  <outline>
    <contour>
      <point x="234.24" y="-190" type="curve"/>
      <point x="259.76" y="-190" type="line"/>
      <point x="268.72910434" y="-190"/>
      <point x="276" y="-182.72910434"/>
      <point x="276" y="-173.76" type="curve"/>
      <point x="276" y="438.76" type="line"/>
      <point x="276" y="447.72910434"/>
      <point x="268.72910434" y="455"/>
      <point x="259.76" y="455" type="curve"/>
      <point x="234.24" y="455" type="line"/>
      <point x="225.27089566" y="455"/>
      <point x="218" y="447.72910434"/>
      <point x="218" y="438.76" type="curve"/>
      <point x="218" y="-173.76" type="line"/>
      <point x="218" y="-182.72910434"/>
      <point x="225.27089566" y="-190"/>
    </contour>
    <contour>
      <point x="281.9" y="525" type="curve"/>
      <point x="281.9" y="542.617883525"/>
      <point x="267.617883525" y="556.9"/>
      <point x="250" y="556.9" type="curve"/>
      <point x="232.382116475" y="556.9"/>
      <point x="218.1" y="542.617883525"/>
      <point x="218.1" y="525" type="curve"/>
      <point x="218.1" y="507.382116475"/>
      <point x="232.382116475" y="493.1"/>
      <point x="250" y="493.1" type="curve"/>
      <point x="267.617883525" y="493.1"/>
      <point x="281.9" y="507.382116475"/>
    </contour>
    <contour>
      <point x="282" y="-190" type="line"/>
      <point x="282" y="-210"/>
      <point x="247" y="-210"/>
      <point x="201" y="-210" type="curve"/>
      <point x="177" y="-210" type="line"/>
      <point x="177" y="-185" type="line"/>
      <point x="201" y="-185" type="line"/>
      <point x="212" y="-185"/>
      <point x="218" y="-188"/>
      <point x="218" y="-190" type="curve"/>
    </contour>
  </outline>
</glyph>
<glyph name="k" format="2">
  <advance width="600"/>
  <unicode hex="006B"/>
  <outline>
    <contour>
      <point x="76.24000000000001" y="0" type="curve"/>
      <point x="101.75999999999999" y="0" type="line"/>
      <point x="110.72910433999999" y="0"/>
      <point x="118" y="7.270895660000001"/>
      <point x="118" y="16.240000000000002" type="curve"/>
      <point x="118" y="743.76" type="line"/>
      <point x="118" y="752.72910434"/>
      <point x="110.72910433999999" y="760"/>
      <point x="101.75999999999999" y="760" type="curve"/>
      <point x="76.24000000000001" y="760" type="line"/>
      <point x="67.27089566000001" y="760"/>
      <point x="60" y="752.72910434"/>
      <point x="60" y="743.76" type="curve"/>
      <point x="60" y="16.240000000000002" type="line"/>
      <point x="60" y="7.270895660000001"/>
      <point x="67.27089566000001" y="0"/>
    </contour>
    <contour>
      <point x="102.31649416496896" y="297.25683189681456" type="line"/>
      <point x="348.31649416496896" y="574.2568318968146" type="line"/>
      <point x="391.68350583503104" y="535.7431681031854" type="line"/>
      <point x="145.68350583503104" y="258.74316810318544" type="line"/>
    </contour>
    <contour>
      <point x="145.33282051675567" y="297.64461169888295" type="line"/>
      <point x="401.3328205167557" y="19.64461169888293" type="line"/>
      <point x="358.6671794832443" y="-19.64461169888293" type="line"/>
      <point x="102.66717948324433" y="258.35538830111705" type="line"/>
    </contour>
  </outline>
</glyph>
<glyph name="l" format="2">
  <advance width="600"/>
  <unicode hex="006C"/>
  <outline>
    <contour>
      <point x="234.24" y="0" type="curve"/>
      <point x="259.76" y="0" type="line"/>
      <point x="268.72910434" y="0"/>
      <point x="276" y="7.270895660000001"/>
      <point x="276" y="16.240000000000002" type="curve"/>
      <point x="276" y="743.76" type="line"/>
      <point x="276" y="752.72910434"/>
      <point x="268.72910434" y="760"/>
      <point x="259.76" y="760" type="curve"/>
      <point x="234.24" y="760" type="line"/>
      <point x="225.27089566" y="760"/>
      <point x="218" y="752.72910434"/>
      <point x="218" y="743.76" type="curve"/>
      <point x="218" y="16.240000000000002" type="line"/>
      <point x="218" y="7.270895660000001"/>
      <point x="225.27089566" y="0"/>
    </contour>
    <contour>
      <point x="180" y="0" type="line"/>
      <point x="320" y="0" type="line"/>
      <point x="320" y="31.900000000000002" type="line"/>
      <point x="180" y="31.900000000000002" type="line"/>
    </contour>
    <contour>
      <point x="180" y="668.1" type="line"/>
      <point x="320" y="668.1" type="line"/>
      <point x="320" y="700.0" type="line"/>
      <point x="180" y="700.0" type="line"/>
    </contour>
  </outline>
</glyph>
<glyph name="m" format="2">
  <advance width="600"/>
  <unicode hex="006D"/>
  <outline>
    <contour>
      <point x="56.24" y="0" type="curve"/>
      <point x="81.75999999999999" y="0" type="line"/>
      <point x="90.72910433999999" y="0"/>
      <point x="98" y="7.270895660000001"/>
      <point x="98" y="16.240000000000002" type="curve"/>
      <point x="98" y="538.76" type="line"/>
      <point x="98" y="547.72910434"/>
      <point x="90.72910433999999" y="555"/>
      <point x="81.75999999999999" y="555" type="curve"/>
      <point x="56.24" y="555" type="line"/>
      <point x="47.27089566" y="555"/>
      <point x="40" y="547.72910434"/>
      <point x="40" y="538.76" type="curve"/>
      <point x="40" y="16.240000000000002" type="line"/>
      <point x="40" y="7.270895660000001"/>
      <point x="47.27089566" y="0"/>
    </contour>
    <contour>
      <point x="104" y="0" type="line"/>
      <point x="104" y="555" type="line"/>
      <point x="153.64" y="565"/>
      <point x="250" y="460.65"/>
      <point x="250" y="349.65" type="curve"/>
      <point x="250" y="0" type="line"/>
      <point x="192" y="0" type="line"/>
      <point x="192" y="349.65" type="line"/>
      <point x="192" y="523.1"/>
      <point x="211.64" y="497"/>
      <point x="162" y="497" type="curve"/>
      <point x="162" y="0" type="line"/>
    </contour>
    <contour>
      <point x="239" y="0" type="line"/>
      <point x="239" y="555" type="line"/>
      <point x="284.9" y="565"/>
      <point x="374" y="460.65"/>
      <point x="374" y="349.65" type="curve"/>
      <point x="374" y="0" type="line"/>
      <point x="316" y="0" type="line"/>
      <point x="316" y="349.65" type="line"/>
      <point x="316" y="523.1"/>
      <point x="342.9" y="497"/>
      <point x="297" y="497" type="curve"/>
      <point x="297" y="0" type="line"/>
    </contour>
  </outline>
</glyph>
<glyph name="n" format="2">
  <advance width="600"/>
  <unicode hex="006E"/>
  <outline>
    <contour>
      <point x="76.24000000000001" y="0" type="curve"/>
      <point x="101.75999999999999" y="0" type="line"/>
      <point x="110.72910433999999" y="0"/>
      <point x="118" y="7.270895660000001"/>
      <point x="118" y="16.240000000000002" type="curve"/>
      <point x="118" y="538.76" type="line"/>
      <point x="118" y="547.72910434"/>
      <point x="110.72910433999999" y="555"/>
      <point x="101.75999999999999" y="555" type="curve"/>
      <point x="76.24000000000001" y="555" type="line"/>
      <point x="67.27089566000001" y="555"/>
      <point x="60" y="547.72910434"/>
      <point x="60" y="538.76" type="curve"/>
      <point x="60" y="16.240000000000002" type="line"/>
      <point x="60" y="7.270895660000001"/>
      <point x="67.27089566000001" y="0"/>
    </contour>
    <contour>
      <point x="124" y="0" type="line"/>
      <point x="124" y="555" type="line"/>
      <point x="198.8" y="565"/>
      <point x="344" y="460.65"/>
      <point x="344" y="349.65" type="curve"/>
      <point x="344" y="0" type="line"/>
      <point x="286" y="0" type="line"/>
      <point x="286" y="349.65" type="line"/>
      <point x="286" y="523.1"/>
      <point x="256.8" y="497"/>
      <point x="182" y="497" type="curve"/>
      <point x="182" y="0" type="line"/>
    </contour>
  </outline>
</glyph>
<glyph name="q" format="2">
  <advance width="600"/>
  <unicode hex="0071"/>
  <outline>
    <contour>
      <point x="334.24" y="-210" type="curve"/>
      <point x="359.76" y="-210" type="line"/>
      <point x="368.72910434" y="-210"/>
      <point x="376" y="-202.72910434"/>
      <point x="376" y="-193.76" type="curve"/>
      <point x="376" y="538.76" type="line"/>
      <point x="376" y="547.72910434"/>
      <point x="368.72910434" y="555"/>
      <point x="359.76" y="555" type="curve"/>
      <point x="334.24" y="555" type="line"/>
      <point x="325.27089566" y="555"/>
      <point x="318" y="547.72910434"/>
      <point x="318" y="538.76" type="curve"/>
      <point x="318" y="-193.76" type="line"/>
      <point x="318" y="-202.72910434"/>
      <point x="325.27089566" y="-210"/>
    </contour>
    <contour>
      <point x="430" y="278" type="curve"/>
      <point x="430" y="431.53516049999996"/>
      <point x="349.411255" y="556"/>
      <point x="250" y="556" type="curve"/>
      <point x="150.58874500000002" y="556"/>
      <point x="70" y="431.53516049999996"/>
      <point x="70" y="278" type="curve"/>
      <point x="70" y="124.46483950000001"/>
      <point x="150.58874500000002" y="0"/>
      <point x="250" y="0" type="curve"/>
      <point x="349.411255" y="0"/>
      <point x="430" y="124.46483950000001"/>
    </contour>
    <contour>
      <point x="372" y="278" type="curve"/>
      <point x="372" y="156.497355"/>
      <point x="317.3787395" y="58"/>
      <point x="250" y="58" type="curve"/>
      <point x="182.6212605" y="58"/>
      <point x="128" y="156.497355"/>
      <point x="128" y="278" type="curve"/>
      <point x="128" y="399.50264500000003"/>
      <point x="182.6212605" y="498"/>
      <point x="250" y="498" type="curve"/>
      <point x="317.3787395" y="498"/>
      <point x="372" y="399.50264500000003"/>
    </contour>
  </outline>
</glyph>
<glyph name="r" format="2">
  <advance width="600"/>
  <unicode hex="0072"/>
  <outline>
    <contour>
      <point x="76.24000000000001" y="0" type="curve"/>
      <point x="101.75999999999999" y="0" type="line"/>
      <point x="110.72910433999999" y="0"/>
      <point x="118" y="7.270895660000001"/>
      <point x="118" y="16.240000000000002" type="curve"/>
      <point x="118" y="538.76" type="line"/>
      <point x="118" y="547.72910434"/>
      <point x="110.72910433999999" y="555"/>
      <point x="101.75999999999999" y="555" type="curve"/>
      <point x="76.24000000000001" y="555" type="line"/>
      <point x="67.27089566000001" y="555"/>
      <point x="60" y="547.72910434"/>
      <point x="60" y="538.76" type="curve"/>
      <point x="60" y="16.240000000000002" type="line"/>
      <point x="60" y="7.270895660000001"/>
      <point x="67.27089566000001" y="0"/>
    </contour>
    <contour>
      <point x="124" y="305" type="line"/>
      <point x="154" y="474"/>
      <point x="270" y="555"/>
      <point x="390" y="472" type="curve"/>
      <point x="390" y="400" type="line"/>
      <point x="284" y="450"/>
      <point x="205" y="417"/>
      <point x="188" y="305" type="curve"/>
    </contour>
  </outline>
</glyph>
<glyph name="s" format="2">
  <advance width="600"/>
  <unicode hex="0073"/>
  <outline>
    <contour>
      <point x="394.7" y="549.7" type="line"/>
      <point x="283.0" y="560.14"/>
      <point x="93.7" y="550.86"/>
      <point x="90.8" y="344.6" type="curve"/>
      <point x="87.9" y="283.55"/>
      <point x="230.2" y="282.64"/>
      <point x="246.7" y="278" type="curve"/>
      <point x="283.0" y="211.4"/>
      <point x="412.68" y="261.35"/>
      <point x="410.36" y="161.45" type="curve"/>
      <point x="408.04" y="3.4000000000000004"/>
      <point x="210.4" y="-2.98"/>
      <point x="87.9" y="8.620000000000001" type="curve"/>
      <point x="94.28" y="57.339999999999996" type="line"/>
      <point x="217.0" y="36.46"/>
      <point x="377.3" y="49.8"/>
      <point x="381.36" y="150.35" type="curve"/>
      <point x="383.68" y="250.25"/>
      <point x="266.5" y="244.7"/>
      <point x="236.8" y="279.74" type="curve"/>
      <point x="193.9" y="286.7"/>
      <point x="111.68" y="284.96"/>
      <point x="115.16" y="355.7" type="curve"/>
      <point x="118.64" y="519.54"/>
      <point x="276.4" y="529.4"/>
      <point x="396.44" y="498.66" type="curve"/>
    </contour>
  </outline>
</glyph>
<glyph name="t" format="2">
  <advance width="600"/>
  <unicode hex="0074"/>
  <outline>
    <contour>
      <point x="231.24" y="0" type="curve"/>
      <point x="256.76" y="0" type="line"/>
      <point x="265.72910434" y="0"/>
      <point x="273" y="7.270895660000001"/>
      <point x="273" y="16.240000000000002" type="curve"/>
      <point x="273" y="743.76" type="line"/>
      <point x="273" y="752.72910434"/>
      <point x="265.72910434" y="760"/>
      <point x="256.76" y="760" type="curve"/>
      <point x="231.24" y="760" type="line"/>
      <point x="222.27089566" y="760"/>
      <point x="215" y="752.72910434"/>
      <point x="215" y="743.76" type="curve"/>
      <point x="215" y="16.240000000000002" type="line"/>
      <point x="215" y="7.270895660000001"/>
      <point x="222.27089566" y="0"/>
    </contour>
    <contour>
      <point x="118.92" y="360" type="curve"/>
      <point x="361.08" y="360" type="line"/>
      <point x="368.76780371999996" y="360"/>
      <point x="375" y="366.23219628000004"/>
      <point x="375" y="373.92" type="curve"/>
      <point x="375" y="404.08" type="line"/>
      <point x="375" y="411.76780371999996"/>
      <point x="368.76780371999996" y="418"/>
      <point x="361.08" y="418" type="curve"/>
      <point x="118.92" y="418" type="line"/>
      <point x="111.23219628" y="418"/>
      <point x="105" y="411.76780371999996"/>
      <point x="105" y="404.08" type="curve"/>
      <point x="105" y="373.92" type="line"/>
      <point x="105" y="366.23219628000004"/>
      <point x="111.23219628" y="360"/>
    </contour>
  </outline>
</glyph>
<glyph name="u" format="2">
  <advance width="600"/>
  <unicode hex="0075"/>
  <outline>
    <contour>
      <point x="76.24000000000001" y="190" type="curve"/>
      <point x="101.75999999999999" y="190" type="line"/>
      <point x="110.72910433999999" y="190"/>
      <point x="118" y="197.27089566"/>
      <point x="118" y="206.24" type="curve"/>
      <point x="118" y="538.76" type="line"/>
      <point x="118" y="547.72910434"/>
      <point x="110.72910433999999" y="555"/>
      <point x="101.75999999999999" y="555" type="curve"/>
      <point x="76.24000000000001" y="555" type="line"/>
      <point x="67.27089566000001" y="555"/>
      <point x="60" y="547.72910434"/>
      <point x="60" y="538.76" type="curve"/>
      <point x="60" y="206.24" type="line"/>
      <point x="60" y="197.27089566"/>
      <point x="67.27089566000001" y="190"/>
    </contour>
    <contour>
      <point x="302.24" y="0" type="curve"/>
      <point x="327.76" y="0" type="line"/>
      <point x="336.72910434" y="0"/>
      <point x="344" y="7.270895660000001"/>
      <point x="344" y="16.240000000000002" type="curve"/>
      <point x="344" y="538.76" type="line"/>
      <point x="344" y="547.72910434"/>
      <point x="336.72910434" y="555"/>
      <point x="327.76" y="555" type="curve"/>
      <point x="302.24" y="555" type="line"/>
      <point x="293.27089566" y="555"/>
      <point x="286" y="547.72910434"/>
      <point x="286" y="538.76" type="curve"/>
      <point x="286" y="16.240000000000002" type="line"/>
      <point x="286" y="7.270895660000001"/>
      <point x="293.27089566" y="0"/>
    </contour>
    <contour>
      <point x="60" y="190" type="line"/>
      <point x="60" y="67"/>
      <point x="125" y="-4"/>
      <point x="234" y="-4" type="curve"/>
      <point x="320" y="-4"/>
      <point x="344" y="67"/>
      <point x="344" y="190" type="curve"/>
      <point x="280" y="190" type="line"/>
      <point x="280" y="91"/>
      <point x="263" y="54"/>
      <point x="234" y="54" type="curve"/>
      <point x="201" y="54"/>
      <point x="124" y="91"/>
      <point x="124" y="190" type="curve"/>
    </contour>
  </outline>
</glyph>
<glyph name="v" format="2">
  <advance width="600"/>
  <unicode hex="0076"/>
  <outline>
    <contour>
      <point x="102.6576604826794" y="563.7208839359799" type="line"/>
      <point x="277.65766048267943" y="8.720883935979993" type="line"/>
      <point x="222.3423395173206" y="-8.720883935979993" type="line"/>
      <point x="47.342339517320596" y="546.2791160640201" type="line"/>
    </contour>
    <contour>
      <point x="452.65766048267943" y="546.2791160640201" type="line"/>
      <point x="277.65766048267943" y="-8.720883935979993" type="line"/>
      <point x="222.3423395173206" y="8.720883935979993" type="line"/>
      <point x="397.34233951732057" y="563.7208839359799" type="line"/>
    </contour>
  </outline>
</glyph>
<glyph name="w" format="2">
  <advance width="600"/>
  <unicode hex="0077"/>
  <outline>
    <contour>
      <point x="73.66575821243413" y="559.3902512577602" type="line"/>
      <point x="158.66575821243413" y="4.390251257760182" type="line"/>
      <point x="101.33424178756587" y="-4.390251257760182" type="line"/>
      <point x="16.334241787565865" y="550.6097487422398" type="line"/>
    </contour>
    <contour>
      <point x="483.6657582124341" y="550.6097487422398" type="line"/>
      <point x="398.6657582124341" y="-4.390251257760182" type="line"/>
      <point x="341.3342417875659" y="4.390251257760182" type="line"/>
      <point x="426.3342417875659" y="559.3902512577602" type="line"/>
    </contour>
    <contour>
      <point x="103.07417596432748" y="10.770329614269007" type="line"/>
      <point x="223.07417596432748" y="310.77032961426903" type="line"/>
      <point x="276.9258240356725" y="289.22967038573097" type="line"/>
      <point x="156.92582403567252" y="-10.770329614269007" type="line"/>
    </contour>
    <contour>
      <point x="343.0741759643275" y="-10.770329614269007" type="line"/>
      <point x="223.07417596432748" y="289.22967038573097" type="line"/>
      <point x="276.9258240356725" y="310.77032961426903" type="line"/>
      <point x="396.9258240356725" y="10.770329614269007" type="line"/>
    </contour>
  </outline>
</glyph>
<glyph name="x" format="2">
  <advance width="600"/>
  <unicode hex="0078"/>
  <outline>
    <contour>
      <point x="94.3298773238021" y="570.7815420478717" type="line"/>
      <point x="454.3298773238021" y="15.781542047871632" type="line"/>
      <point x="405.6701226761979" y="-15.781542047871632" type="line"/>
      <point x="45.670122676197906" y="539.2184579521283" type="line"/>
    </contour>
    <contour>
      <point x="454.3298773238021" y="539.2184579521283" type="line"/>
      <point x="94.3298773238021" y="-15.781542047871632" type="line"/>
      <point x="45.670122676197906" y="15.781542047871632" type="line"/>
      <point x="405.6701226761979" y="570.7815420478717" type="line"/>
    </contour>
  </outline>
</glyph>
<glyph name="z" format="2">
  <advance width="600"/>
  <unicode hex="007A"/>
  <outline>
    <contour>
      <point x="70" y="497" type="line"/>
      <point x="430" y="497" type="line"/>
      <point x="430" y="555" type="line"/>
      <point x="70" y="555" type="line"/>
    </contour>
    <contour>
      <point x="434.38301147273603" y="510.3006767177555" type="line"/>
      <point x="114.383011472736" y="13.30067671775549" type="line"/>
      <point x="65.616988527264" y="44.69932328224451" type="line"/>
      <point x="385.61698852726397" y="541.6993232822446" type="line"/>
    </contour>
    <contour>
      <point x="70" y="0" type="line"/>
      <point x="430" y="0" type="line"/>
      <point x="430" y="58" type="line"/>
      <point x="70" y="58" type="line"/>
    </contour>
  </outline>
</glyph>
<glyph name="uni00A1" format="2">
  <advance width="600"/>
  <unicode hex="00A1"/>
  <outline>
    <contour>
      <point x="271.0" y="0" type="line"/>
      <point x="329.0" y="0" type="line"/>
      <point x="329.0" y="425" type="line"/>
      <point x="271.0" y="425" type="line"/>
    </contour>
    <contour>
      <point x="329.0" y="520" type="curve" smooth="yes"/>
      <point x="329.0" y="536.01625775"/>
      <point x="316.01625775" y="549.0"/>
      <point x="300.0" y="549.0" type="curve" smooth="yes"/>
      <point x="283.98374225" y="549.0"/>
      <point x="271.0" y="536.01625775"/>
      <point x="271.0" y="520" type="curve" smooth="yes"/>
      <point x="271.0" y="503.98374225"/>
      <point x="283.98374225" y="491.0"/>
      <point x="300.0" y="491.0" type="curve" smooth="yes"/>
      <point x="316.01625775" y="491.0"/>
      <point x="329.0" y="503.98374225"/>
    </contour>
  </outline>
</glyph>
<glyph name="uni00A9" format="2">
  <advance width="600"/>
  <unicode hex="00A9"/>
  <outline>
    <contour>
      <point x="490.0" y="350" type="curve" smooth="yes"/>
      <point x="490.0" y="493.59403499999996"/>
      <point x="404.9341025" y="610"/>
      <point x="300.0" y="610" type="curve" smooth="yes"/>
      <point x="195.0658975" y="610"/>
      <point x="110.0" y="493.59403499999996"/>
      <point x="110.0" y="350" type="curve" smooth="yes"/>
      <point x="110.0" y="206.405965"/>
      <point x="195.0658975" y="90"/>
      <point x="300.0" y="90" type="curve" smooth="yes"/>
      <point x="404.9341025" y="90"/>
      <point x="490.0" y="206.405965"/>
    </contour>
    <contour>
      <point x="436.0" y="350" type="curve" smooth="yes"/>
      <point x="436.0" y="236.2293415"/>
      <point x="375.110726" y="144"/>
      <point x="300.0" y="144" type="curve" smooth="yes"/>
      <point x="224.889274" y="144"/>
      <point x="164.0" y="236.2293415"/>
      <point x="164.0" y="350" type="curve" smooth="yes"/>
      <point x="164.0" y="463.77065849999997"/>
      <point x="224.889274" y="556"/>
      <point x="300.0" y="556" type="curve" smooth="yes"/>
      <point x="375.110726" y="556"/>
      <point x="436.0" y="463.77065849999997"/>
    </contour>
    <contour>
      <point x="245.0" y="180" type="line"/>
      <point x="303.0" y="180" type="line"/>
      <point x="303.0" y="520" type="line"/>
      <point x="245.0" y="520" type="line"/>
    </contour>
    <contour>
      <point x="290.0" y="180" type="line"/>
      <point x="400.0" y="180" type="line"/>
      <point x="400.0" y="238" type="line"/>
      <point x="290.0" y="238" type="line"/>
    </contour>
    <contour>
      <point x="290.0" y="480" type="line"/>
      <point x="400.0" y="480" type="line"/>
      <point x="400.0" y="538" type="line"/>
      <point x="290.0" y="538" type="line"/>
    </contour>
  </outline>
</glyph>
<glyph name="uni00AE" format="2">
  <advance width="600"/>
  <unicode hex="00AE"/>
  <outline>
    <contour>
      <point x="490.0" y="350" type="curve" smooth="yes"/>
      <point x="490.0" y="493.59403499999996"/>
      <point x="404.9341025" y="610"/>
      <point x="300.0" y="610" type="curve" smooth="yes"/>
      <point x="195.0658975" y="610"/>
      <point x="110.0" y="493.59403499999996"/>
      <point x="110.0" y="350" type="curve" smooth="yes"/>
      <point x="110.0" y="206.405965"/>
      <point x="195.0658975" y="90"/>
      <point x="300.0" y="90" type="curve" smooth="yes"/>
      <point x="404.9341025" y="90"/>
      <point x="490.0" y="206.405965"/>
    </contour>
    <contour>
      <point x="436.0" y="350" type="curve" smooth="yes"/>
      <point x="436.0" y="236.2293415"/>
      <point x="375.110726" y="144"/>
      <point x="300.0" y="144" type="curve" smooth="yes"/>
      <point x="224.889274" y="144"/>
      <point x="164.0" y="236.2293415"/>
      <point x="164.0" y="350" type="curve" smooth="yes"/>
      <point x="164.0" y="463.77065849999997"/>
      <point x="224.889274" y="556"/>
      <point x="300.0" y="556" type="curve" smooth="yes"/>
      <point x="375.110726" y="556"/>
      <point x="436.0" y="463.77065849999997"/>
    </contour>
    <contour>
      <point x="238.0" y="225" type="line"/>
      <point x="296.0" y="225" type="line"/>
      <point x="296.0" y="450" type="line"/>
      <point x="238.0" y="450" type="line"/>
    </contour>
    <contour>
      <point x="238.0" y="410" type="line"/>
      <point x="326.0" y="410" type="line"/>
      <point x="326.0" y="468" type="line"/>
      <point x="238.0" y="468" type="line"/>
    </contour>
    <contour>
      <point x="308.0" y="340" type="line"/>
      <point x="366.0" y="340" type="line"/>
      <point x="366.0" y="435" type="line"/>
      <point x="308.0" y="435" type="line"/>
    </contour>
    <contour>
      <point x="321.5265309950024" y="353.76212975382737" type="line"/>
      <point x="383.5265309950024" y="238.7621297538274" type="line"/>
      <point x="332.4734690049976" y="211.2378702461726" type="line"/>
      <point x="270.4734690049976" y="326.23787024617263" type="line"/>
    </contour>
  </outline>
</glyph>
<glyph name="uni00B0" format="2">
  <advance width="600"/>
  <unicode hex="00B0"/>
  <outline>
    <contour>
      <point x="370.0" y="500" type="curve" smooth="yes"/>
      <point x="370.0" y="538.6599325"/>
      <point x="338.65993249999997" y="570"/>
      <point x="300.0" y="570" type="curve" smooth="yes"/>
      <point x="261.34006750000003" y="570"/>
      <point x="230.0" y="538.6599325"/>
      <point x="230.0" y="500" type="curve" smooth="yes"/>
      <point x="230.0" y="461.34006750000003"/>
      <point x="261.34006750000003" y="430"/>
      <point x="300.0" y="430" type="curve" smooth="yes"/>
      <point x="338.65993249999997" y="430"/>
      <point x="370.0" y="461.34006750000003"/>
    </contour>
    <contour>
      <point x="312.0" y="500" type="curve" smooth="yes"/>
      <point x="312.0" y="493.372583"/>
      <point x="306.627417" y="488"/>
      <point x="300.0" y="488" type="curve" smooth="yes"/>
      <point x="293.372583" y="488"/>
      <point x="288.0" y="493.372583"/>
      <point x="288.0" y="500" type="curve" smooth="yes"/>
      <point x="288.0" y="506.627417"/>
      <point x="293.372583" y="512"/>
      <point x="300.0" y="512" type="curve" smooth="yes"/>
      <point x="306.627417" y="512"/>
      <point x="312.0" y="506.627417"/>
    </contour>
  </outline>
</glyph>
<glyph name="uni00B5" format="2">
  <advance width="600"/>
  <unicode hex="00B5"/>
  <outline>
    <contour>
      <point x="80" y="0" type="line"/>
      <point x="138" y="0" type="line"/>
      <point x="138" y="555" type="line"/>
      <point x="80" y="555" type="line"/>
    </contour>
    <contour>
      <point x="462" y="-210" type="line"/>
      <point x="520" y="-210" type="line"/>
      <point x="520" y="555" type="line"/>
      <point x="462" y="555" type="line"/>
    </contour>
    <contour>
      <point x="145" y="0" type="line"/>
      <point x="520" y="0" type="line"/>
      <point x="520" y="58" type="line"/>
      <point x="145" y="58" type="line"/>
    </contour>
  </outline>
</glyph>
<glyph name="uni00B7" format="2">
  <advance width="600"/>
  <unicode hex="00B7"/>
  <outline>
    <contour>
      <point x="329.0" y="280" type="curve" smooth="yes"/>
      <point x="329.0" y="296.01625775"/>
      <point x="316.01625775" y="309.0"/>
      <point x="300.0" y="309.0" type="curve" smooth="yes"/>
      <point x="283.98374225" y="309.0"/>
      <point x="271.0" y="296.01625775"/>
      <point x="271.0" y="280" type="curve" smooth="yes"/>
      <point x="271.0" y="263.98374225"/>
      <point x="283.98374225" y="251.0"/>
      <point x="300.0" y="251.0" type="curve" smooth="yes"/>
      <point x="316.01625775" y="251.0"/>
      <point x="329.0" y="263.98374225"/>
    </contour>
  </outline>
</glyph>
<glyph name="uni00C5" format="2">
  <advance width="600"/>
  <unicode hex="00C5"/>
  <outline>
    <contour>
      <point x="342.0" y="764" type="curve" smooth="yes"/>
      <point x="342.0" y="787.1959595"/>
      <point x="323.1959595" y="806"/>
      <point x="300.0" y="806" type="curve" smooth="yes"/>
      <point x="276.8040405" y="806"/>
      <point x="258.0" y="787.1959595"/>
      <point x="258.0" y="764" type="curve" smooth="yes"/>
      <point x="258.0" y="740.8040405"/>
      <point x="276.8040405" y="722"/>
      <point x="300.0" y="722" type="curve" smooth="yes"/>
      <point x="323.1959595" y="722"/>
      <point x="342.0" y="740.8040405"/>
    </contour>
    <contour>
      <point x="321.0" y="764" type="curve" smooth="yes"/>
      <point x="321.0" y="752.40202025"/>
      <point x="311.59797975" y="743"/>
      <point x="300.0" y="743" type="curve" smooth="yes"/>
      <point x="288.40202025" y="743"/>
      <point x="279.0" y="752.40202025"/>
      <point x="279.0" y="764" type="curve" smooth="yes"/>
      <point x="279.0" y="775.59797975"/>
      <point x="288.40202025" y="785"/>
      <point x="300.0" y="785" type="curve" smooth="yes"/>
      <point x="311.59797975" y="785"/>
      <point x="321.0" y="775.59797975"/>
    </contour>
    <component base="A"/>
  </outline>
</glyph>
<glyph name="uni00D5" format="2">
  <advance width="600"/>
  <unicode hex="00D5"/>
  <outline>
    <contour>
      <point x="232.25114014582343" y="769.9269426488237" type="line"/>
      <point x="272.2511401458234" y="797.9269426488237" type="line"/>
      <point x="291.7488598541766" y="770.0730573511763" type="line"/>
      <point x="251.74885985417657" y="742.0730573511763" type="line"/>
    </contour>
    <contour>
      <point x="291.7488598541766" y="797.9269426488237" type="line"/>
      <point x="331.7488598541766" y="769.9269426488237" type="line"/>
      <point x="312.2511401458234" y="742.0730573511763" type="line"/>
      <point x="272.2511401458234" y="770.0730573511763" type="line"/>
    </contour>
    <contour>
      <point x="311.91561635315253" y="769.6859492350072" type="line"/>
      <point x="349.91561635315253" y="797.6859492350072" type="line"/>
      <point x="370.08438364684747" y="770.3140507649928" type="line"/>
      <point x="332.08438364684747" y="742.3140507649928" type="line"/>
    </contour>
    <component base="O"/>
  </outline>
</glyph>
<glyph name="uni00D7" format="2">
  <advance width="600"/>
  <unicode hex="00D7"/>
  <outline>
    <contour>
      <point x="149.49390334559013" y="230.50609665440987" type="line"/>
      <point x="409.4939033455901" y="490.5060966544099" type="line"/>
      <point x="450.5060966544099" y="449.4939033455901" type="line"/>
      <point x="190.50609665440987" y="189.49390334559013" type="line"/>
    </contour>
    <contour>
      <point x="409.4939033455901" y="189.49390334559013" type="line"/>
      <point x="149.49390334559013" y="449.4939033455901" type="line"/>
      <point x="190.50609665440987" y="490.5060966544099" type="line"/>
      <point x="450.5060966544099" y="230.50609665440987" type="line"/>
    </contour>
  </outline>
</glyph>
<glyph name="uni00EC" format="2">
  <advance width="600"/>
  <unicode hex="00EC"/>
  <outline>
    <contour>
      <point x="350.1759029984635" y="621.1362996425227" type="line"/>
      <point x="274.1759029984635" y="543.1362996425227" type="line"/>
      <point x="249.82409700153647" y="566.8637003574773" type="line"/>
      <point x="325.8240970015365" y="644.8637003574773" type="line"/>
    </contour>
    <component base="i"/>
  </outline>
</glyph>
<glyph name="uni00EE" format="2">
  <advance width="600"/>
  <unicode hex="00EE"/>
  <outline>
    <contour>
      <point x="229.14695803961962" y="583.1265139358517" type="line"/>
      <point x="287.1469580396196" y="650.1265139358517" type="line"/>
      <point x="312.8530419603804" y="627.8734860641483" type="line"/>
      <point x="254.85304196038038" y="560.8734860641483" type="line"/>
    </contour>
    <contour>
      <point x="312.8530419603804" y="650.1265139358517" type="line"/>
      <point x="370.8530419603804" y="583.1265139358517" type="line"/>
      <point x="345.1469580396196" y="560.8734860641483" type="line"/>
      <point x="287.1469580396196" y="627.8734860641483" type="line"/>
    </contour>
    <component base="i"/>
  </outline>
</glyph>
<glyph name="uni00F5" format="2">
  <advance width="600"/>
  <unicode hex="00F5"/>
  <outline>
    <contour>
      <point x="232.25114014582343" y="620.9269426488237" type="line"/>
      <point x="272.2511401458234" y="648.9269426488237" type="line"/>
      <point x="291.7488598541766" y="621.0730573511763" type="line"/>
      <point x="251.74885985417657" y="593.0730573511763" type="line"/>
    </contour>
    <contour>
      <point x="291.7488598541766" y="648.9269426488237" type="line"/>
      <point x="331.7488598541766" y="620.9269426488237" type="line"/>
      <point x="312.2511401458234" y="593.0730573511763" type="line"/>
      <point x="272.2511401458234" y="621.0730573511763" type="line"/>
    </contour>
    <contour>
      <point x="311.91561635315253" y="620.6859492350072" type="line"/>
      <point x="349.91561635315253" y="648.6859492350072" type="line"/>
      <point x="370.08438364684747" y="621.3140507649928" type="line"/>
      <point x="332.08438364684747" y="593.3140507649928" type="line"/>
    </contour>
    <component base="o"/>
  </outline>
</glyph>
<glyph name="uni00F6" format="2">
  <advance width="600"/>
  <unicode hex="00F6"/>
  <outline>
    <contour>
      <point x="279.0" y="615" type="curve" smooth="yes"/>
      <point x="279.0" y="624.38884075"/>
      <point x="271.38884075" y="632.0"/>
      <point x="262.0" y="632.0" type="curve" smooth="yes"/>
      <point x="252.61115925000001" y="632.0"/>
      <point x="245.0" y="624.38884075"/>
      <point x="245.0" y="615" type="curve" smooth="yes"/>
      <point x="245.0" y="605.61115925"/>
      <point x="252.61115925000001" y="598.0"/>
      <point x="262.0" y="598.0" type="curve" smooth="yes"/>
      <point x="271.38884075" y="598.0"/>
      <point x="279.0" y="605.61115925"/>
    </contour>
    <contour>
      <point x="355.0" y="615" type="curve" smooth="yes"/>
      <point x="355.0" y="624.38884075"/>
      <point x="347.38884075" y="632.0"/>
      <point x="338.0" y="632.0" type="curve" smooth="yes"/>
      <point x="328.61115925" y="632.0"/>
      <point x="321.0" y="624.38884075"/>
      <point x="321.0" y="615" type="curve" smooth="yes"/>
      <point x="321.0" y="605.61115925"/>
      <point x="328.61115925" y="598.0"/>
      <point x="338.0" y="598.0" type="curve" smooth="yes"/>
      <point x="347.38884075" y="598.0"/>
      <point x="355.0" y="605.61115925"/>
    </contour>
    <component base="o"/>
  </outline>
</glyph>
<glyph name="uni00F7" format="2">
  <advance width="600"/>
  <unicode hex="00F7"/>
  <outline>
    <contour>
      <point x="150.0" y="320" type="line"/>
      <point x="450.0" y="320" type="line"/>
      <point x="450.0" y="378" type="line"/>
      <point x="150.0" y="378" type="line"/>
    </contour>
    <contour>
      <point x="329.0" y="500" type="curve" smooth="yes"/>
      <point x="329.0" y="516.01625775"/>
      <point x="316.01625775" y="529.0"/>
      <point x="300.0" y="529.0" type="curve" smooth="yes"/>
      <point x="283.98374225" y="529.0"/>
      <point x="271.0" y="516.01625775"/>
      <point x="271.0" y="500" type="curve" smooth="yes"/>
      <point x="271.0" y="483.98374225"/>
      <point x="283.98374225" y="471.0"/>
      <point x="300.0" y="471.0" type="curve" smooth="yes"/>
      <point x="316.01625775" y="471.0"/>
      <point x="329.0" y="483.98374225"/>
    </contour>
    <contour>
      <point x="329.0" y="140" type="curve" smooth="yes"/>
      <point x="329.0" y="156.01625775"/>
      <point x="316.01625775" y="169.0"/>
      <point x="300.0" y="169.0" type="curve" smooth="yes"/>
      <point x="283.98374225" y="169.0"/>
      <point x="271.0" y="156.01625775"/>
      <point x="271.0" y="140" type="curve" smooth="yes"/>
      <point x="271.0" y="123.98374225"/>
      <point x="283.98374225" y="111.0"/>
      <point x="300.0" y="111.0" type="curve" smooth="yes"/>
      <point x="316.01625775" y="111.0"/>
      <point x="329.0" y="123.98374225"/>
    </contour>
  </outline>
</glyph>
<glyph name="uni0114" format="2">
  <advance width="600"/>
  <unicode hex="0114"/>
  <outline>
    <contour>
      <point x="364.0" y="764" type="curve" smooth="yes"/>
      <point x="364.0" y="744.67003375"/>
      <point x="335.346224" y="729"/>
      <point x="300.0" y="729" type="curve" smooth="yes"/>
      <point x="264.653776" y="729"/>
      <point x="236.0" y="744.67003375"/>
      <point x="236.0" y="764" type="curve" smooth="yes"/>
      <point x="236.0" y="783.32996625"/>
      <point x="264.653776" y="799"/>
      <point x="300.0" y="799" type="curve" smooth="yes"/>
      <point x="335.346224" y="799"/>
      <point x="364.0" y="783.32996625"/>
    </contour>
    <contour>
      <point x="230.0" y="728" type="line"/>
      <point x="370.0" y="728" type="line"/>
      <point x="370.0" y="766" type="line"/>
      <point x="230.0" y="766" type="line"/>
    </contour>
    <component base="E"/>
  </outline>
</glyph>
<glyph name="uni0120" format="2">
  <advance width="600"/>
  <unicode hex="0120"/>
  <outline>
    <contour>
      <point x="317.0" y="764" type="curve" smooth="yes"/>
      <point x="317.0" y="773.38884075"/>
      <point x="309.38884075" y="781.0"/>
      <point x="300.0" y="781.0" type="curve" smooth="yes"/>
      <point x="290.61115925" y="781.0"/>
      <point x="283.0" y="773.38884075"/>
      <point x="283.0" y="764" type="curve" smooth="yes"/>
      <point x="283.0" y="754.61115925"/>
      <point x="290.61115925" y="747.0"/>
      <point x="300.0" y="747.0" type="curve" smooth="yes"/>
      <point x="309.38884075" y="747.0"/>
      <point x="317.0" y="754.61115925"/>
    </contour>
    <component base="G"/>
  </outline>
</glyph>
<glyph name="uni0122" format="2">
  <advance width="600"/>
  <unicode hex="0122"/>
  <outline>
    <contour>
      <point x="317.0" y="-105.0" type="curve" smooth="yes"/>
      <point x="317.0" y="-95.61115925"/>
      <point x="309.38884075" y="-88.0"/>
      <point x="300.0" y="-88.0" type="curve" smooth="yes"/>
      <point x="290.61115925" y="-88.0"/>
      <point x="283.0" y="-95.61115925"/>
      <point x="283.0" y="-105.0" type="curve" smooth="yes"/>
      <point x="283.0" y="-114.38884075"/>
      <point x="290.61115925" y="-122.0"/>
      <point x="300.0" y="-122.0" type="curve" smooth="yes"/>
      <point x="309.38884075" y="-122.0"/>
      <point x="317.0" y="-114.38884075"/>
    </contour>
    <contour>
      <point x="316.7538610029586" y="-14.88238468868105" type="line"/>
      <point x="284.7538610029586" y="-200.88238468868104" type="line"/>
      <point x="251.24613899704138" y="-195.11761531131896" type="line"/>
      <point x="283.2461389970414" y="-9.11761531131895" type="line"/>
    </contour>
    <component base="G"/>
  </outline>
</glyph>
<glyph name="uni0126" format="2">
  <advance width="600"/>
  <unicode hex="0126"/>
  <outline>
    <contour>
      <point x="147.91149895528616" y="107.47774286219426" type="line"/>
      <point x="423.91149895528616" y="627.4777428621943" type="line"/>
      <point x="452.08850104471384" y="612.5222571378057" type="line"/>
      <point x="176.08850104471384" y="92.52225713780574" type="line"/>
    </contour>
    <component base="H"/>
  </outline>
</glyph>
<glyph name="uni0129" format="2">
  <advance width="600"/>
  <unicode hex="0129"/>
  <outline>
    <contour>
      <point x="238.0" y="605" type="line"/>
      <point x="262.0" y="631" type="line"/>
      <point x="286.0" y="631" type="line"/>
      <point x="310.0" y="605" type="line"/>
      <point x="334.0" y="605" type="line"/>
      <point x="362.0" y="631" type="line"/>
      <point x="362.0" y="611.28" type="line"/>
      <point x="334.0" y="585.28" type="line"/>
      <point x="310.0" y="585.28" type="line"/>
      <point x="286.0" y="611.28" type="line"/>
      <point x="262.0" y="611.28" type="line"/>
      <point x="238.0" y="585.28" type="line"/>
    </contour>
    <component base="i"/>
  </outline>
</glyph>
<glyph name="uni0140" format="2">
  <advance width="600"/>
  <unicode hex="0140"/>
  <outline>
    <contour>
      <point x="455.4" y="266.4" type="curve" smooth="yes"/>
      <point x="455.4" y="276.00975465"/>
      <point x="447.60975465" y="283.79999999999995"/>
      <point x="438.0" y="283.79999999999995" type="curve" smooth="yes"/>
      <point x="428.39024535" y="283.79999999999995"/>
      <point x="420.6" y="276.00975465"/>
      <point x="420.6" y="266.4" type="curve" smooth="yes"/>
      <point x="420.6" y="256.79024534999996"/>
      <point x="428.39024535" y="248.99999999999997"/>
      <point x="438.0" y="248.99999999999997" type="curve" smooth="yes"/>
      <point x="447.60975465" y="248.99999999999997"/>
      <point x="455.4" y="256.79024534999996"/>
    </contour>
    <component base="l"/>
  </outline>
</glyph>
<glyph name="uni0149" format="2">
  <advance width="600"/>
  <unicode hex="0149"/>
  <outline>
    <contour>
      <point x="175.23728848341" y="562.6198549600525" type="line"/>
      <point x="127.23728848340998" y="632.6198549600525" type="line"/>
      <point x="148.76271151659" y="647.3801450399475" type="line"/>
      <point x="196.76271151659" y="577.3801450399475" type="line"/>
    </contour>
    <component base="n"/>
  </outline>
</glyph>
<glyph name="uni0150" format="2">
  <advance width="600"/>
  <unicode hex="0150"/>
  <outline>
    <contour>
      <point x="231.08282294217383" y="730.7627958465348" type="line"/>
      <point x="278.08282294217383" y="797.7627958465348" type="line"/>
      <point x="305.91717705782617" y="778.2372041534652" type="line"/>
      <point x="258.91717705782617" y="711.2372041534652" type="line"/>
    </contour>
    <contour>
      <point x="294.08282294217383" y="730.7627958465348" type="line"/>
      <point x="341.08282294217383" y="797.7627958465348" type="line"/>
      <point x="368.91717705782617" y="778.2372041534652" type="line"/>
      <point x="321.91717705782617" y="711.2372041534652" type="line"/>
    </contour>
    <component base="O"/>
  </outline>
</glyph>
<glyph name="uni016B" format="2">
  <advance width="600"/>
  <unicode hex="016B"/>
  <outline>
    <contour>
      <point x="232.0" y="597" type="line"/>
      <point x="368.0" y="597" type="line"/>
      <point x="368.0" y="631" type="line"/>
      <point x="232.0" y="631" type="line"/>
    </contour>
    <component base="u"/>
  </outline>
</glyph>
<glyph name="uni016F" format="2">
  <advance width="600"/>
  <unicode hex="016F"/>
  <outline>
    <contour>
      <point x="342.0" y="615" type="curve" smooth="yes"/>
      <point x="342.0" y="638.1959595"/>
      <point x="323.1959595" y="657"/>
      <point x="300.0" y="657" type="curve" smooth="yes"/>
      <point x="276.8040405" y="657"/>
      <point x="258.0" y="638.1959595"/>
      <point x="258.0" y="615" type="curve" smooth="yes"/>
      <point x="258.0" y="591.8040405"/>
      <point x="276.8040405" y="573"/>
      <point x="300.0" y="573" type="curve" smooth="yes"/>
      <point x="323.1959595" y="573"/>
      <point x="342.0" y="591.8040405"/>
    </contour>
    <contour>
      <point x="321.0" y="615" type="curve" smooth="yes"/>
      <point x="321.0" y="603.40202025"/>
      <point x="311.59797975" y="594"/>
      <point x="300.0" y="594" type="curve" smooth="yes"/>
      <point x="288.40202025" y="594"/>
      <point x="279.0" y="603.40202025"/>
      <point x="279.0" y="615" type="curve" smooth="yes"/>
      <point x="279.0" y="626.59797975"/>
      <point x="288.40202025" y="636"/>
      <point x="300.0" y="636" type="curve" smooth="yes"/>
      <point x="311.59797975" y="636"/>
      <point x="321.0" y="626.59797975"/>
    </contour>
    <component base="u"/>
  </outline>
</glyph>
<glyph name="uni0171" format="2">
  <advance width="600"/>
  <unicode hex="0171"/>
  <outline>
    <contour>
      <point x="231.08282294217383" y="581.7627958465348" type="line"/>
      <point x="278.08282294217383" y="648.7627958465348" type="line"/>
      <point x="305.91717705782617" y="629.2372041534652" type="line"/>
      <point x="258.91717705782617" y="562.2372041534652" type="line"/>
    </contour>
    <contour>
      <point x="294.08282294217383" y="581.7627958465348" type="line"/>
      <point x="341.08282294217383" y="648.7627958465348" type="line"/>
      <point x="368.91717705782617" y="629.2372041534652" type="line"/>
      <point x="321.91717705782617" y="562.2372041534652" type="line"/>
    </contour>
    <component base="u"/>
  </outline>
</glyph>
<glyph name="uni0173" format="2">
  <advance width="600"/>
  <unicode hex="0173"/>
  <outline>
    <contour>
      <point x="328.5386643669498" y="13.933520173761032" type="line"/>
      <point x="372.5386643669498" y="-171.06647982623898" type="line"/>
      <point x="339.4613356330502" y="-178.93352017376102" type="line"/>
      <point x="295.4613356330502" y="6.066479826238967" type="line"/>
    </contour>
    <component base="u"/>
  </outline>
</glyph>
<glyph name="uni0174" format="2">
  <advance width="600"/>
  <unicode hex="0174"/>
  <outline>
    <contour>
      <point x="229.14695803961962" y="732.1265139358517" type="line"/>
      <point x="287.1469580396196" y="799.1265139358517" type="line"/>
      <point x="312.8530419603804" y="776.8734860641483" type="line"/>
      <point x="254.85304196038038" y="709.8734860641483" type="line"/>
    </contour>
    <contour>
      <point x="312.8530419603804" y="799.1265139358517" type="line"/>
      <point x="370.8530419603804" y="732.1265139358517" type="line"/>
      <point x="345.1469580396196" y="709.8734860641483" type="line"/>
      <point x="287.1469580396196" y="776.8734860641483" type="line"/>
    </contour>
    <component base="W"/>
  </outline>
</glyph>
<glyph name="uni017C" format="2">
  <advance width="600"/>
  <unicode hex="017C"/>
  <outline>
    <contour>
      <point x="317.0" y="615" type="curve" smooth="yes"/>
      <point x="317.0" y="624.38884075"/>
      <point x="309.38884075" y="632.0"/>
      <point x="300.0" y="632.0" type="curve" smooth="yes"/>
      <point x="290.61115925" y="632.0"/>
      <point x="283.0" y="624.38884075"/>
      <point x="283.0" y="615" type="curve" smooth="yes"/>
      <point x="283.0" y="605.61115925"/>
      <point x="290.61115925" y="598.0"/>
      <point x="300.0" y="598.0" type="curve" smooth="yes"/>
      <point x="309.38884075" y="598.0"/>
      <point x="317.0" y="605.61115925"/>
    </contour>
    <component base="z"/>
  </outline>
</glyph>
<glyph name="uni01A0" format="2">
  <advance width="600"/>
  <unicode hex="01A0"/>
  <outline>
    <contour>
      <point x="362.0" y="752" type="line"/>
      <point x="384.0" y="760" type="line"/>
      <point x="416.0" y="794" type="line"/>
      <point x="400.7" y="794" type="line"/>
      <point x="364.7" y="766" type="line"/>
      <point x="362.0" y="736.7" type="line"/>
    </contour>
    <component base="O"/>
  </outline>
</glyph>
<glyph name="uni01A1" format="2">
  <advance width="600"/>
  <unicode hex="01A1"/>
  <outline>
    <contour>
      <point x="362.0" y="603" type="line"/>
      <point x="384.0" y="611" type="line"/>
      <point x="416.0" y="645" type="line"/>
      <point x="400.7" y="645" type="line"/>
      <point x="364.7" y="617" type="line"/>
      <point x="362.0" y="587.7" type="line"/>
    </contour>
    <component base="o"/>
  </outline>
</glyph>
<glyph name="uni01B0" format="2">
  <advance width="600"/>
  <unicode hex="01B0"/>
  <outline>
    <contour>
      <point x="362.0" y="603" type="line"/>
      <point x="384.0" y="611" type="line"/>
      <point x="416.0" y="645" type="line"/>
      <point x="400.7" y="645" type="line"/>
      <point x="364.7" y="617" type="line"/>
      <point x="362.0" y="587.7" type="line"/>
    </contour>
    <component base="u"/>
  </outline>
</glyph>
<glyph name="uni021B" format="2">
  <advance width="600"/>
  <unicode hex="021B"/>
  <outline>
    <contour>
      <point x="317.0" y="-105.0" type="curve" smooth="yes"/>
      <point x="317.0" y="-95.61115925"/>
      <point x="309.38884075" y="-88.0"/>
      <point x="300.0" y="-88.0" type="curve" smooth="yes"/>
      <point x="290.61115925" y="-88.0"/>
      <point x="283.0" y="-95.61115925"/>
      <point x="283.0" y="-105.0" type="curve" smooth="yes"/>
      <point x="283.0" y="-114.38884075"/>
      <point x="290.61115925" y="-122.0"/>
      <point x="300.0" y="-122.0" type="curve" smooth="yes"/>
      <point x="309.38884075" y="-122.0"/>
      <point x="317.0" y="-114.38884075"/>
    </contour>
    <contour>
      <point x="320.8602237327784" y="-14.175512739713346" type="line"/>
      <point x="296.8602237327784" y="-200.17551273971335" type="line"/>
      <point x="263.1397762672216" y="-195.82448726028665" type="line"/>
      <point x="287.1397762672216" y="-9.824487260286654" type="line"/>
    </contour>
    <component base="t"/>
  </outline>
</glyph>
<glyph name="uni0390" format="2">
  <advance width="600"/>
  <unicode hex="0390"/>
  <outline>
    <contour>
      <point x="279.0" y="615" type="curve"/>
      <point x="279.0" y="624.38884075"/>
      <point x="271.38884075" y="632.0"/>
      <point x="262.0" y="632.0" type="curve"/>
      <point x="252.61115925000001" y="632.0"/>
      <point x="245.0" y="624.38884075"/>
      <point x="245.0" y="615" type="curve"/>
      <point x="245.0" y="605.61115925"/>
      <point x="252.61115925000001" y="598.0"/>
      <point x="262.0" y="598.0" type="curve"/>
      <point x="271.38884075" y="598.0"/>
      <point x="279.0" y="605.61115925"/>
    </contour>
    <contour>
      <point x="355.0" y="615" type="curve"/>
      <point x="355.0" y="624.38884075"/>
      <point x="347.38884075" y="632.0"/>
      <point x="338.0" y="632.0" type="curve"/>
      <point x="328.61115925" y="632.0"/>
      <point x="321.0" y="624.38884075"/>
      <point x="321.0" y="615" type="curve"/>
      <point x="321.0" y="605.61115925"/>
      <point x="328.61115925" y="598.0"/>
      <point x="338.0" y="598.0" type="curve"/>
      <point x="347.38884075" y="598.0"/>
      <point x="355.0" y="605.61115925"/>
    </contour>
    <contour>
      <point x="249.82409700153647" y="566.8637003574773" type="line"/>
      <point x="325.8240970015365" y="644.8637003574773" type="line"/>
      <point x="350.1759029984635" y="621.1362996425227" type="line"/>
      <point x="274.1759029984635" y="543.1362996425227" type="line"/>
    </contour>
    <component base="i"/>
  </outline>
</glyph>
<glyph name="uni0393" format="2">
  <advance width="600"/>
  <unicode hex="0393"/>
  <outline>
    <contour>
      <point x="74.24000000000001" y="0" type="curve"/>
      <point x="99.75999999999999" y="0" type="line"/>
      <point x="108.72910433999999" y="0"/>
      <point x="116" y="7.270895660000001"/>
      <point x="116" y="16.240000000000002" type="curve"/>
      <point x="116" y="683.76" type="line"/>
      <point x="116" y="692.72910434"/>
      <point x="108.72910433999999" y="700"/>
      <point x="99.75999999999999" y="700" type="curve"/>
      <point x="74.24000000000001" y="700" type="line"/>
      <point x="65.27089566000001" y="700"/>
      <point x="58" y="692.72910434"/>
      <point x="58" y="683.76" type="curve"/>
      <point x="58" y="16.240000000000002" type="line"/>
      <point x="58" y="7.270895660000001"/>
      <point x="65.27089566000001" y="0"/>
    </contour>
    <contour>
      <point x="58" y="642" type="line"/>
      <point x="408" y="642" type="line"/>
      <point x="408" y="700" type="line"/>
      <point x="58" y="700" type="line"/>
    </contour>
  </outline>
</glyph>
<glyph name="uni0394" format="2">
  <advance width="600"/>
  <unicode hex="0394"/>
  <outline>
    <contour>
      <point x="39.93314730314012" y="7.297381701183571" type="line"/>
      <point x="221.93314730314012" y="707.2973817011836" type="line"/>
      <point x="278.0668526968599" y="692.7026182988164" type="line"/>
      <point x="96.06685269685988" y="-7.297381701183571" type="line"/>
    </contour>
    <contour>
      <point x="403.9331473031401" y="-7.297381701183571" type="line"/>
      <point x="221.93314730314012" y="692.7026182988164" type="line"/>
      <point x="278.0668526968599" y="707.2973817011836" type="line"/>
      <point x="460.0668526968599" y="7.297381701183571" type="line"/>
    </contour>
    <contour>
      <point x="88.24000000000001" y="0" type="curve"/>
      <point x="411.76" y="0" type="line"/>
      <point x="420.72910434" y="0"/>
      <point x="428" y="7.270895660000001"/>
      <point x="428" y="16.240000000000002" type="curve"/>
      <point x="428" y="41.76" type="line"/>
      <point x="428" y="50.72910434"/>
      <point x="420.72910434" y="58"/>
      <point x="411.76" y="58" type="curve"/>
      <point x="88.24000000000001" y="58" type="line"/>
      <point x="79.27089566000001" y="58"/>
      <point x="72" y="50.72910434"/>
      <point x="72" y="41.76" type="curve"/>
      <point x="72" y="16.240000000000002" type="line"/>
      <point x="72" y="7.270895660000001"/>
      <point x="79.27089566000001" y="0"/>
    </contour>
  </outline>
</glyph>
<glyph name="uni039B" format="2">
  <advance width="600"/>
  <unicode hex="039B"/>
  <outline>
    <contour>
      <point x="39.93314730314012" y="7.297381701183571" type="line"/>
      <point x="221.93314730314012" y="707.2973817011836" type="line"/>
      <point x="278.0668526968599" y="692.7026182988164" type="line"/>
      <point x="96.06685269685988" y="-7.297381701183571" type="line"/>
    </contour>
    <contour>
      <point x="403.9331473031401" y="-7.297381701183571" type="line"/>
      <point x="221.93314730314012" y="692.7026182988164" type="line"/>
      <point x="278.0668526968599" y="707.2973817011836" type="line"/>
      <point x="460.0668526968599" y="7.297381701183571" type="line"/>
    </contour>
  </outline>
</glyph>
<glyph name="uni03A0" format="2">
  <advance width="600"/>
  <unicode hex="03A0"/>
  <outline>
    <contour>
      <point x="76.24000000000001" y="0" type="curve"/>
      <point x="101.75999999999999" y="0" type="line"/>
      <point x="110.72910433999999" y="0"/>
      <point x="118" y="7.270895660000001"/>
      <point x="118" y="16.240000000000002" type="curve"/>
      <point x="118" y="683.76" type="line"/>
      <point x="118" y="692.72910434"/>
      <point x="110.72910433999999" y="700"/>
      <point x="101.75999999999999" y="700" type="curve"/>
      <point x="76.24000000000001" y="700" type="line"/>
      <point x="67.27089566000001" y="700"/>
      <point x="60" y="692.72910434"/>
      <point x="60" y="683.76" type="curve"/>
      <point x="60" y="16.240000000000002" type="line"/>
      <point x="60" y="7.270895660000001"/>
      <point x="67.27089566000001" y="0"/>
    </contour>
    <contour>
      <point x="392.24" y="0" type="curve"/>
      <point x="417.76" y="0" type="line"/>
      <point x="426.72910434" y="0"/>
      <point x="434" y="7.270895660000001"/>
      <point x="434" y="16.240000000000002" type="curve"/>
      <point x="434" y="683.76" type="line"/>
      <point x="434" y="692.72910434"/>
      <point x="426.72910434" y="700"/>
      <point x="417.76" y="700" type="curve"/>
      <point x="392.24" y="700" type="line"/>
      <point x="383.27089566" y="700"/>
      <point x="376" y="692.72910434"/>
      <point x="376" y="683.76" type="curve"/>
      <point x="376" y="16.240000000000002" type="line"/>
      <point x="376" y="7.270895660000001"/>
      <point x="383.27089566" y="0"/>
    </contour>
    <contour>
      <point x="60" y="642" type="line"/>
      <point x="440" y="642" type="line"/>
      <point x="440" y="700" type="line"/>
      <point x="60" y="700" type="line"/>
    </contour>
  </outline>
</glyph>
<glyph name="uni03A3" format="2">
  <advance width="600"/>
  <unicode hex="03A3"/>
  <outline>
    <contour>
      <point x="98.24000000000001" y="642" type="curve"/>
      <point x="405.76" y="642" type="line"/>
      <point x="414.72910434" y="642"/>
      <point x="422" y="649.27089566"/>
      <point x="422" y="658.24" type="curve"/>
      <point x="422" y="683.76" type="line"/>
      <point x="422" y="692.72910434"/>
      <point x="414.72910434" y="700"/>
      <point x="405.76" y="700" type="curve"/>
      <point x="98.24000000000001" y="700" type="line"/>
      <point x="89.27089566000001" y="700"/>
      <point x="82" y="692.72910434"/>
      <point x="82" y="683.76" type="curve"/>
      <point x="82" y="658.24" type="line"/>
      <point x="82" y="649.27089566"/>
      <point x="89.27089566000001" y="642"/>
    </contour>
    <contour>
      <point x="420.94883721275403" y="653.2700572312679" type="line"/>
      <point x="172.94883721275403" y="332.2700572312679" type="line"/>
      <point x="127.05116278724596" y="367.7299427687321" type="line"/>
      <point x="375.05116278724597" y="688.7299427687321" type="line"/>
    </contour>
    <contour>
      <point x="172.94883721275403" y="367.7299427687321" type="line"/>
      <point x="420.94883721275403" y="46.729942768732094" type="line"/>
      <point x="375.05116278724597" y="11.270057231267906" type="line"/>
      <point x="127.05116278724596" y="332.2700572312679" type="line"/>
    </contour>
    <contour>
      <point x="98.24000000000001" y="0" type="curve"/>
      <point x="405.76" y="0" type="line"/>
      <point x="414.72910434" y="0"/>
      <point x="422" y="7.270895660000001"/>
      <point x="422" y="16.240000000000002" type="curve"/>
      <point x="422" y="41.76" type="line"/>
      <point x="422" y="50.72910434"/>
      <point x="414.72910434" y="58"/>
      <point x="405.76" y="58" type="curve"/>
      <point x="98.24000000000001" y="58" type="line"/>
      <point x="89.27089566000001" y="58"/>
      <point x="82" y="50.72910434"/>
      <point x="82" y="41.76" type="curve"/>
      <point x="82" y="16.240000000000002" type="line"/>
      <point x="82" y="7.270895660000001"/>
      <point x="89.27089566000001" y="0"/>
    </contour>
  </outline>
</glyph>
<glyph name="uni03A6" format="2">
  <advance width="600"/>
  <unicode hex="03A6"/>
  <outline>
    <contour>
      <point x="428" y="350.0" type="curve"/>
      <point x="428" y="488.0711875"/>
      <point x="348.3066855" y="600.0"/>
      <point x="250" y="600.0" type="curve"/>
      <point x="151.69331449999999" y="600.0"/>
      <point x="72" y="488.0711875"/>
      <point x="72" y="350.0" type="curve"/>
      <point x="72" y="211.9288125"/>
      <point x="151.69331449999999" y="100.0"/>
      <point x="250" y="100.0" type="curve"/>
      <point x="348.3066855" y="100.0"/>
      <point x="428" y="211.9288125"/>
    </contour>
    <contour>
      <point x="370" y="350.0" type="curve"/>
      <point x="370" y="243.961328"/>
      <point x="316.27417" y="158.0"/>
      <point x="250" y="158.0" type="curve"/>
      <point x="183.72583" y="158.0"/>
      <point x="130" y="243.961328"/>
      <point x="130" y="350.0" type="curve"/>
      <point x="130" y="456.038672"/>
      <point x="183.72583" y="542.0"/>
      <point x="250" y="542.0" type="curve"/>
      <point x="316.27417" y="542.0"/>
      <point x="370" y="456.038672"/>
    </contour>
    <contour>
      <point x="237.24" y="-56" type="curve"/>
      <point x="262.76" y="-56" type="line"/>
      <point x="271.72910434" y="-56"/>
      <point x="279.0" y="-48.72910434"/>
      <point x="279.0" y="-39.76" type="curve"/>
      <point x="279.0" y="739.76" type="line"/>
      <point x="279.0" y="748.72910434"/>
      <point x="271.72910434" y="756"/>
      <point x="262.76" y="756" type="curve"/>
      <point x="237.24" y="756" type="line"/>
      <point x="228.27089566" y="756"/>
      <point x="221.0" y="748.72910434"/>
      <point x="221.0" y="739.76" type="curve"/>
      <point x="221.0" y="-39.76" type="line"/>
      <point x="221.0" y="-48.72910434"/>
      <point x="228.27089566" y="-56"/>
    </contour>
  </outline>
</glyph>
<glyph name="uni03A8" format="2">
  <advance width="600"/>
  <unicode hex="03A8"/>
  <outline>
    <contour>
      <point x="428" y="478" type="curve"/>
      <point x="428" y="575.202116"/>
      <point x="348.3066855" y="654"/>
      <point x="250" y="654" type="curve"/>
      <point x="151.69331449999999" y="654"/>
      <point x="72" y="575.202116"/>
      <point x="72" y="478" type="curve"/>
      <point x="72" y="380.797884"/>
      <point x="151.69331449999999" y="302"/>
      <point x="250" y="302" type="curve"/>
      <point x="348.3066855" y="302"/>
      <point x="428" y="380.797884"/>
    </contour>
    <contour>
      <point x="370" y="478" type="curve"/>
      <point x="370" y="412.8303995"/>
      <point x="316.27417" y="360"/>
      <point x="250" y="360" type="curve"/>
      <point x="183.72583" y="360"/>
      <point x="130" y="412.8303995"/>
      <point x="130" y="478" type="curve"/>
      <point x="130" y="543.1696005"/>
      <point x="183.72583" y="596"/>
      <point x="250" y="596" type="curve"/>
      <point x="316.27417" y="596"/>
      <point x="370" y="543.1696005"/>
    </contour>
    <contour>
      <point x="237.24" y="0" type="curve"/>
      <point x="262.76" y="0" type="line"/>
      <point x="271.72910434" y="0"/>
      <point x="279.0" y="7.270895660000001"/>
      <point x="279.0" y="16.240000000000002" type="curve"/>
      <point x="279.0" y="453.76" type="line"/>
      <point x="279.0" y="462.72910434"/>
      <point x="271.72910434" y="470"/>
      <point x="262.76" y="470" type="curve"/>
      <point x="237.24" y="470" type="line"/>
      <point x="228.27089566" y="470"/>
      <point x="221.0" y="462.72910434"/>
      <point x="221.0" y="453.76" type="curve"/>
      <point x="221.0" y="16.240000000000002" type="line"/>
      <point x="221.0" y="7.270895660000001"/>
      <point x="228.27089566" y="0"/>
    </contour>
  </outline>
</glyph>
<glyph name="uni03A9" format="2">
  <advance width="600"/>
  <unicode hex="03A9"/>
  <outline>
    <contour>
      <point x="74.24000000000001" y="0" type="curve"/>
      <point x="153.76" y="0" type="line"/>
      <point x="162.72910434" y="0"/>
      <point x="170" y="7.270895660000001"/>
      <point x="170" y="16.240000000000002" type="curve"/>
      <point x="170" y="41.76" type="line"/>
      <point x="170" y="50.72910434"/>
      <point x="162.72910434" y="58"/>
      <point x="153.76" y="58" type="curve"/>
      <point x="74.24000000000001" y="58" type="line"/>
      <point x="65.27089566000001" y="58"/>
      <point x="58" y="50.72910434"/>
      <point x="58" y="41.76" type="curve"/>
      <point x="58" y="16.240000000000002" type="line"/>
      <point x="58" y="7.270895660000001"/>
      <point x="65.27089566000001" y="0"/>
    </contour>
    <contour>
      <point x="346.24" y="0" type="curve"/>
      <point x="425.76" y="0" type="line"/>
      <point x="434.72910434" y="0"/>
      <point x="442" y="7.270895660000001"/>
      <point x="442" y="16.240000000000002" type="curve"/>
      <point x="442" y="41.76" type="line"/>
      <point x="442" y="50.72910434"/>
      <point x="434.72910434" y="58"/>
      <point x="425.76" y="58" type="curve"/>
      <point x="346.24" y="58" type="line"/>
      <point x="337.27089566" y="58"/>
      <point x="330" y="50.72910434"/>
      <point x="330" y="41.76" type="curve"/>
      <point x="330" y="16.240000000000002" type="line"/>
      <point x="330" y="7.270895660000001"/>
      <point x="337.27089566" y="0"/>
    </contour>
    <contour>
      <point x="92" y="44" type="line"/>
      <point x="38" y="190"/>
      <point x="68" y="708"/>
      <point x="250" y="708" type="curve"/>
      <point x="432" y="708"/>
      <point x="462" y="190"/>
      <point x="408" y="44" type="curve"/>
      <point x="344" y="44" type="line"/>
      <point x="384" y="172"/>
      <point x="360" y="642"/>
      <point x="250" y="642" type="curve"/>
      <point x="140" y="642"/>
      <point x="116" y="172"/>
      <point x="156" y="44" type="curve"/>
    </contour>
  </outline>
</glyph>
<glyph name="uni03AC" format="2">
  <advance width="600"/>
  <unicode hex="03AC"/>
  <outline>
    <contour>
      <point x="359" y="246" type="curve"/>
      <point x="359" y="381.8620485"/>
      <point x="294.08128875" y="492"/>
      <point x="214" y="492" type="curve"/>
      <point x="133.91871125" y="492"/>
      <point x="69" y="381.8620485"/>
      <point x="69" y="246" type="curve"/>
      <point x="69" y="110.13795150000001"/>
      <point x="133.91871125" y="0"/>
      <point x="214" y="0" type="curve"/>
      <point x="294.08128875" y="0"/>
      <point x="359" y="110.13795150000001"/>
    </contour>
    <contour>
      <point x="301" y="246" type="curve"/>
      <point x="301" y="142.170467"/>
      <point x="262.04877325" y="58"/>
      <point x="214" y="58" type="curve"/>
      <point x="165.95122675" y="58"/>
      <point x="127" y="142.170467"/>
      <point x="127" y="246" type="curve"/>
      <point x="127" y="349.82953299999997"/>
      <point x="165.95122675" y="434"/>
      <point x="214" y="434" type="curve"/>
      <point x="262.04877325" y="434"/>
      <point x="301" y="349.82953299999997"/>
    </contour>
    <contour>
      <point x="381.24" y="0" type="curve"/>
      <point x="406.76" y="0" type="line"/>
      <point x="415.72910434" y="0"/>
      <point x="423" y="7.270895660000001"/>
      <point x="423" y="16.240000000000002" type="curve"/>
      <point x="423" y="538.76" type="line"/>
      <point x="423" y="547.72910434"/>
      <point x="415.72910434" y="555"/>
      <point x="406.76" y="555" type="curve"/>
      <point x="381.24" y="555" type="line"/>
      <point x="372.27089566" y="555"/>
      <point x="365" y="547.72910434"/>
      <point x="365" y="538.76" type="curve"/>
      <point x="365" y="16.240000000000002" type="line"/>
      <point x="365" y="7.270895660000001"/>
      <point x="372.27089566" y="0"/>
    </contour>
    <contour>
      <point x="365" y="0" type="line"/>
      <point x="430" y="0" type="line"/>
      <point x="430" y="58" type="line"/>
      <point x="365" y="58" type="line"/>
    </contour>
    <contour>
      <point x="249.82409700153647" y="566.8637003574773" type="line"/>
      <point x="325.8240970015365" y="644.8637003574773" type="line"/>
      <point x="350.1759029984635" y="621.1362996425227" type="line"/>
      <point x="274.1759029984635" y="543.1362996425227" type="line"/>
    </contour>
  </outline>
</glyph>
<glyph name="uni03AE" format="2">
  <advance width="600"/>
  <unicode hex="03AE"/>
  <outline>
    <contour>
      <point x="76.24000000000001" y="0" type="curve"/>
      <point x="101.75999999999999" y="0" type="line"/>
      <point x="110.72910433999999" y="0"/>
      <point x="118" y="7.270895660000001"/>
      <point x="118" y="16.240000000000002" type="curve"/>
      <point x="118" y="538.76" type="line"/>
      <point x="118" y="547.72910434"/>
      <point x="110.72910433999999" y="555"/>
      <point x="101.75999999999999" y="555" type="curve"/>
      <point x="76.24000000000001" y="555" type="line"/>
      <point x="67.27089566000001" y="555"/>
      <point x="60" y="547.72910434"/>
      <point x="60" y="538.76" type="curve"/>
      <point x="60" y="16.240000000000002" type="line"/>
      <point x="60" y="7.270895660000001"/>
      <point x="67.27089566000001" y="0"/>
    </contour>
    <contour>
      <point x="124" y="-210" type="line"/>
      <point x="124" y="555" type="line"/>
      <point x="198.8" y="565"/>
      <point x="344" y="424.95"/>
      <point x="344" y="271.95" type="curve"/>
      <point x="344" y="-210" type="line"/>
      <point x="286" y="-210" type="line"/>
      <point x="286" y="271.95" type="line"/>
      <point x="286" y="523.1"/>
      <point x="256.8" y="497"/>
      <point x="182" y="497" type="curve"/>
      <point x="182" y="-210" type="line"/>
    </contour>
    <contour>
      <point x="249.82409700153647" y="566.8637003574773" type="line"/>
      <point x="325.8240970015365" y="644.8637003574773" type="line"/>
      <point x="350.1759029984635" y="621.1362996425227" type="line"/>
      <point x="274.1759029984635" y="543.1362996425227" type="line"/>
    </contour>
  </outline>
</glyph>
<glyph name="uni03AF" format="2">
  <advance width="600"/>
  <unicode hex="03AF"/>
  <outline>
    <contour>
      <point x="249.82409700153647" y="566.8637003574773" type="line"/>
      <point x="325.8240970015365" y="644.8637003574773" type="line"/>
      <point x="350.1759029984635" y="621.1362996425227" type="line"/>
      <point x="274.1759029984635" y="543.1362996425227" type="line"/>
    </contour>
    <component base="i"/>
  </outline>
</glyph>
<glyph name="uni03B1" format="2">
  <advance width="600"/>
  <unicode hex="03B1"/>
  <outline>
    <contour>
      <point x="359" y="246" type="curve"/>
      <point x="359" y="381.8620485"/>
      <point x="294.08128875" y="492"/>
      <point x="214" y="492" type="curve"/>
      <point x="133.91871125" y="492"/>
      <point x="69" y="381.8620485"/>
      <point x="69" y="246" type="curve"/>
      <point x="69" y="110.13795150000001"/>
      <point x="133.91871125" y="0"/>
      <point x="214" y="0" type="curve"/>
      <point x="294.08128875" y="0"/>
      <point x="359" y="110.13795150000001"/>
    </contour>
    <contour>
      <point x="301" y="246" type="curve"/>
      <point x="301" y="142.170467"/>
      <point x="262.04877325" y="58"/>
      <point x="214" y="58" type="curve"/>
      <point x="165.95122675" y="58"/>
      <point x="127" y="142.170467"/>
      <point x="127" y="246" type="curve"/>
      <point x="127" y="349.82953299999997"/>
      <point x="165.95122675" y="434"/>
      <point x="214" y="434" type="curve"/>
      <point x="262.04877325" y="434"/>
      <point x="301" y="349.82953299999997"/>
    </contour>
    <contour>
      <point x="381.24" y="0" type="curve"/>
      <point x="406.76" y="0" type="line"/>
      <point x="415.72910434" y="0"/>
      <point x="423" y="7.270895660000001"/>
      <point x="423" y="16.240000000000002" type="curve"/>
      <point x="423" y="538.76" type="line"/>
      <point x="423" y="547.72910434"/>
      <point x="415.72910434" y="555"/>
      <point x="406.76" y="555" type="curve"/>
      <point x="381.24" y="555" type="line"/>
      <point x="372.27089566" y="555"/>
      <point x="365" y="547.72910434"/>
      <point x="365" y="538.76" type="curve"/>
      <point x="365" y="16.240000000000002" type="line"/>
      <point x="365" y="7.270895660000001"/>
      <point x="372.27089566" y="0"/>
    </contour>
    <contour>
      <point x="365" y="0" type="line"/>
      <point x="430" y="0" type="line"/>
      <point x="430" y="58" type="line"/>
      <point x="365" y="58" type="line"/>
    </contour>
  </outline>
</glyph>
<glyph name="uni03B2" format="2">
  <advance width="600"/>
  <unicode hex="03B2"/>
  <outline>
    <contour>
      <point x="88.24000000000001" y="-210" type="curve"/>
      <point x="113.75999999999999" y="-210" type="line"/>
      <point x="122.72910433999999" y="-210"/>
      <point x="130" y="-202.72910434"/>
      <point x="130" y="-193.76" type="curve"/>
      <point x="130" y="743.76" type="line"/>
      <point x="130" y="752.72910434"/>
      <point x="122.72910433999999" y="760"/>
      <point x="113.75999999999999" y="760" type="curve"/>
      <point x="88.24000000000001" y="760" type="line"/>
      <point x="79.27089566000001" y="760"/>
      <point x="72" y="752.72910434"/>
      <point x="72" y="743.76" type="curve"/>
      <point x="72" y="-193.76" type="line"/>
      <point x="72" y="-202.72910434"/>
      <point x="79.27089566000001" y="-210"/>
    </contour>
    <contour>
      <point x="382" y="386" type="curve"/>
      <point x="382" y="478.783838"/>
      <point x="316.6335735" y="554"/>
      <point x="236" y="554" type="curve"/>
      <point x="155.3664265" y="554"/>
      <point x="90" y="478.783838"/>
      <point x="90" y="386" type="curve"/>
      <point x="90" y="293.216162"/>
      <point x="155.3664265" y="218"/>
      <point x="236" y="218" type="curve"/>
      <point x="316.6335735" y="218"/>
      <point x="382" y="293.216162"/>
    </contour>
    <contour>
      <point x="324" y="386" type="curve"/>
      <point x="324" y="325.2486775"/>
      <point x="284.601058" y="276"/>
      <point x="236" y="276" type="curve"/>
      <point x="187.398942" y="276"/>
      <point x="148" y="325.2486775"/>
      <point x="148" y="386" type="curve"/>
      <point x="148" y="446.7513225"/>
      <point x="187.398942" y="496"/>
      <point x="236" y="496" type="curve"/>
      <point x="284.601058" y="496"/>
      <point x="324" y="446.7513225"/>
    </contour>
    <contour>
      <point x="382" y="142" type="curve"/>
      <point x="382" y="224.8427125"/>
      <point x="316.6335735" y="292"/>
      <point x="236" y="292" type="curve"/>
      <point x="155.3664265" y="292"/>
      <point x="90" y="224.8427125"/>
      <point x="90" y="142" type="curve"/>
      <point x="90" y="59.157287499999995"/>
      <point x="155.3664265" y="-8"/>
      <point x="236" y="-8" type="curve"/>
      <point x="316.6335735" y="-8"/>
      <point x="382" y="59.157287499999995"/>
    </contour>
    <contour>
      <point x="324" y="142" type="curve"/>
      <point x="324" y="91.189803"/>
      <point x="284.601058" y="50"/>
      <point x="236" y="50" type="curve"/>
      <point x="187.398942" y="50"/>
      <point x="148" y="91.189803"/>
      <point x="148" y="142" type="curve"/>
      <point x="148" y="192.81019700000002"/>
      <point x="187.398942" y="234"/>
      <point x="236" y="234" type="curve"/>
      <point x="284.601058" y="234"/>
      <point x="324" y="192.81019700000002"/>
    </contour>
  </outline>
</glyph>
<glyph name="uni03B3" format="2">
  <advance width="600"/>
  <unicode hex="03B3"/>
  <outline>
    <contour>
      <point x="101.05910774665972" y="565.430948564472" type="line"/>
      <point x="271.0591077466597" y="124.430948564472" type="line"/>
      <point x="216.94089225334028" y="103.569051435528" type="line"/>
      <point x="46.94089225334029" y="544.569051435528" type="line"/>
    </contour>
    <contour>
      <point x="452.8068440725143" y="543.9368580018195" type="line"/>
      <point x="270.8068440725143" y="102.9368580018195" type="line"/>
      <point x="217.1931559274857" y="125.0631419981805" type="line"/>
      <point x="399.1931559274857" y="566.0631419981805" type="line"/>
    </contour>
    <contour>
      <point x="228.24" y="-210" type="curve"/>
      <point x="253.76" y="-210" type="line"/>
      <point x="262.72910434" y="-210"/>
      <point x="270" y="-202.72910434"/>
      <point x="270" y="-193.76" type="curve"/>
      <point x="270" y="-72.24000000000001" type="line"/>
      <point x="270" y="-63.27089566000001"/>
      <point x="262.72910434" y="-56"/>
      <point x="253.76" y="-56" type="curve"/>
      <point x="228.24" y="-56" type="line"/>
      <point x="219.27089566" y="-56"/>
      <point x="212" y="-63.27089566000001"/>
      <point x="212" y="-72.24000000000001" type="curve"/>
      <point x="212" y="-193.76" type="line"/>
      <point x="212" y="-202.72910434"/>
      <point x="219.27089566" y="-210"/>
    </contour>
  </outline>
</glyph>
<glyph name="uni03B4" format="2">
  <advance width="600"/>
  <unicode hex="03B4"/>
  <outline>
    <contour>
      <point x="396" y="226" type="curve"/>
      <point x="396" y="350.8163535"/>
      <point x="328.8427125" y="452"/>
      <point x="246" y="452" type="curve"/>
      <point x="163.1572875" y="452"/>
      <point x="96" y="350.8163535"/>
      <point x="96" y="226" type="curve"/>
      <point x="96" y="101.18364650000001"/>
      <point x="163.1572875" y="0"/>
      <point x="246" y="0" type="curve"/>
      <point x="328.8427125" y="0"/>
      <point x="396" y="101.18364650000001"/>
    </contour>
    <contour>
      <point x="338" y="226" type="curve"/>
      <point x="338" y="133.216162"/>
      <point x="296.810197" y="58"/>
      <point x="246" y="58" type="curve"/>
      <point x="195.18980299999998" y="58"/>
      <point x="154" y="133.216162"/>
      <point x="154" y="226" type="curve"/>
      <point x="154" y="318.783838"/>
      <point x="195.18980299999998" y="394"/>
      <point x="246" y="394" type="curve"/>
      <point x="296.810197" y="394"/>
      <point x="338" y="318.783838"/>
    </contour>
    <contour>
      <point x="154" y="420" type="line"/>
      <point x="120" y="620"/>
      <point x="220" y="748"/>
      <point x="374" y="706" type="curve"/>
      <point x="356" y="642" type="line"/>
      <point x="258" y="658"/>
      <point x="214" y="586"/>
      <point x="218" y="438" type="curve"/>
    </contour>
  </outline>
</glyph>
<glyph name="uni03B5" format="2">
  <advance width="600"/>
  <unicode hex="03B5"/>
  <outline>
    <contour>
      <point x="396.15999999999997" y="443.92" type="line"/>
      <point x="333.52" y="522"/>
      <point x="176.92000000000002" y="522"/>
      <point x="76" y="382.92" type="curve"/>
      <point x="76" y="173.07999999999998"/>
      <point x="176.92000000000002" y="34"/>
      <point x="333.52" y="34" type="curve"/>
      <point x="377.02" y="95.0"/>
      <point x="396.15999999999997" y="136.48000000000002"/>
      <point x="396.15999999999997" y="156.0" type="curve"/>
      <point x="347.44" y="182.84" type="line"/>
      <point x="316.12" y="92"/>
      <point x="134" y="199.92000000000002"/>
      <point x="134" y="278" type="curve"/>
      <point x="134" y="356.08"/>
      <point x="316.12" y="464"/>
      <point x="347.44" y="373.15999999999997" type="curve"/>
    </contour>
    <contour>
      <point x="233.92" y="246" type="curve"/>
      <point x="366.08" y="246" type="line"/>
      <point x="373.76780371999996" y="246"/>
      <point x="380" y="252.23219628"/>
      <point x="380" y="259.92" type="curve"/>
      <point x="380" y="290.08" type="line"/>
      <point x="380" y="297.76780371999996"/>
      <point x="373.76780371999996" y="304"/>
      <point x="366.08" y="304" type="curve"/>
      <point x="233.92" y="304" type="line"/>
      <point x="226.23219627999998" y="304"/>
      <point x="220" y="297.76780371999996"/>
      <point x="220" y="290.08" type="curve"/>
      <point x="220" y="259.92" type="line"/>
      <point x="220" y="252.23219628"/>
      <point x="226.23219627999998" y="246"/>
    </contour>
  </outline>
</glyph>
<glyph name="uni03B7" format="2">
  <advance width="600"/>
  <unicode hex="03B7"/>
  <outline>
    <contour>
      <point x="76.24000000000001" y="0" type="curve"/>
      <point x="101.75999999999999" y="0" type="line"/>
      <point x="110.72910433999999" y="0"/>
      <point x="118" y="7.270895660000001"/>
      <point x="118" y="16.240000000000002" type="curve"/>
      <point x="118" y="538.76" type="line"/>
      <point x="118" y="547.72910434"/>
      <point x="110.72910433999999" y="555"/>
      <point x="101.75999999999999" y="555" type="curve"/>
      <point x="76.24000000000001" y="555" type="line"/>
      <point x="67.27089566000001" y="555"/>
      <point x="60" y="547.72910434"/>
      <point x="60" y="538.76" type="curve"/>
      <point x="60" y="16.240000000000002" type="line"/>
      <point x="60" y="7.270895660000001"/>
      <point x="67.27089566000001" y="0"/>
    </contour>
    <contour>
      <point x="124" y="-210" type="line"/>
      <point x="124" y="555" type="line"/>
      <point x="198.8" y="565"/>
      <point x="344" y="424.95"/>
      <point x="344" y="271.95" type="curve"/>
      <point x="344" y="-210" type="line"/>
      <point x="286" y="-210" type="line"/>
      <point x="286" y="271.95" type="line"/>
      <point x="286" y="523.1"/>
      <point x="256.8" y="497"/>
      <point x="182" y="497" type="curve"/>
      <point x="182" y="-210" type="line"/>
    </contour>
  </outline>
</glyph>
<glyph name="uni03B8" format="2">
  <advance width="600"/>
  <unicode hex="03B8"/>
  <outline>
    <contour>
      <point x="420" y="278" type="curve"/>
      <point x="420" y="431.53516049999996"/>
      <point x="343.88840749999997" y="556"/>
      <point x="250" y="556" type="curve"/>
      <point x="156.1115925" y="556"/>
      <point x="80" y="431.53516049999996"/>
      <point x="80" y="278" type="curve"/>
      <point x="80" y="124.46483950000001"/>
      <point x="156.1115925" y="0"/>
      <point x="250" y="0" type="curve"/>
      <point x="343.88840749999997" y="0"/>
      <point x="420" y="124.46483950000001"/>
    </contour>
    <contour>
      <point x="362" y="278" type="curve"/>
      <point x="362" y="156.497355"/>
      <point x="311.855892" y="58"/>
      <point x="250" y="58" type="curve"/>
      <point x="188.14410800000002" y="58"/>
      <point x="138" y="156.497355"/>
      <point x="138" y="278" type="curve"/>
      <point x="138" y="399.50264500000003"/>
      <point x="188.14410800000002" y="498"/>
      <point x="250" y="498" type="curve"/>
      <point x="311.855892" y="498"/>
      <point x="362" y="399.50264500000003"/>
    </contour>
    <contour>
      <point x="117.92" y="246" type="curve"/>
      <point x="382.08" y="246" type="line"/>
      <point x="389.76780371999996" y="246"/>
      <point x="396" y="252.23219628"/>
      <point x="396" y="259.92" type="curve"/>
      <point x="396" y="290.08" type="line"/>
      <point x="396" y="297.76780371999996"/>
      <point x="389.76780371999996" y="304"/>
      <point x="382.08" y="304" type="curve"/>
      <point x="117.92" y="304" type="line"/>
      <point x="110.23219628" y="304"/>
      <point x="104" y="297.76780371999996"/>
      <point x="104" y="290.08" type="curve"/>
      <point x="104" y="259.92" type="line"/>
      <point x="104" y="252.23219628"/>
      <point x="110.23219628" y="246"/>
    </contour>
  </outline>
</glyph>
<glyph name="uni03BC" format="2">
  <advance width="600"/>
  <unicode hex="03BC"/>
  <outline>
    <contour>
      <point x="76.24000000000001" y="-210" type="curve"/>
      <point x="101.75999999999999" y="-210" type="line"/>
      <point x="110.72910433999999" y="-210"/>
      <point x="118" y="-202.72910434"/>
      <point x="118" y="-193.76" type="curve"/>
      <point x="118" y="538.76" type="line"/>
      <point x="118" y="547.72910434"/>
      <point x="110.72910433999999" y="555"/>
      <point x="101.75999999999999" y="555" type="curve"/>
      <point x="76.24000000000001" y="555" type="line"/>
      <point x="67.27089566000001" y="555"/>
      <point x="60" y="547.72910434"/>
      <point x="60" y="538.76" type="curve"/>
      <point x="60" y="-193.76" type="line"/>
      <point x="60" y="-202.72910434"/>
      <point x="67.27089566000001" y="-210"/>
    </contour>
    <contour>
      <point x="302.24" y="0" type="curve"/>
      <point x="327.76" y="0" type="line"/>
      <point x="336.72910434" y="0"/>
      <point x="344" y="7.270895660000001"/>
      <point x="344" y="16.240000000000002" type="curve"/>
      <point x="344" y="538.76" type="line"/>
      <point x="344" y="547.72910434"/>
      <point x="336.72910434" y="555"/>
      <point x="327.76" y="555" type="curve"/>
      <point x="302.24" y="555" type="line"/>
      <point x="293.27089566" y="555"/>
      <point x="286" y="547.72910434"/>
      <point x="286" y="538.76" type="curve"/>
      <point x="286" y="16.240000000000002" type="line"/>
      <point x="286" y="7.270895660000001"/>
      <point x="293.27089566" y="0"/>
    </contour>
    <contour>
      <point x="124" y="180" type="line"/>
      <point x="124" y="70"/>
      <point x="160" y="48"/>
      <point x="234" y="48" type="curve"/>
      <point x="306" y="48"/>
      <point x="344" y="92"/>
      <point x="344" y="190" type="curve"/>
      <point x="280" y="190" type="line"/>
      <point x="280" y="106"/>
      <point x="264" y="54"/>
      <point x="234" y="54" type="curve"/>
      <point x="202" y="54"/>
      <point x="124" y="96"/>
      <point x="124" y="190" type="curve"/>
    </contour>
  </outline>
</glyph>
<glyph name="uni03C0" format="2">
  <advance width="600"/>
  <unicode hex="03C0"/>
  <outline>
    <contour>
      <point x="74.24000000000001" y="497" type="curve"/>
      <point x="425.76" y="497" type="line"/>
      <point x="434.72910434" y="497"/>
      <point x="442" y="504.27089566"/>
      <point x="442" y="513.24" type="curve"/>
      <point x="442" y="538.76" type="line"/>
      <point x="442" y="547.72910434"/>
      <point x="434.72910434" y="555"/>
      <point x="425.76" y="555" type="curve"/>
      <point x="74.24000000000001" y="555" type="line"/>
      <point x="65.27089566000001" y="555"/>
      <point x="58" y="547.72910434"/>
      <point x="58" y="538.76" type="curve"/>
      <point x="58" y="513.24" type="line"/>
      <point x="58" y="504.27089566"/>
      <point x="65.27089566000001" y="497"/>
    </contour>
    <contour>
      <point x="116.24000000000001" y="0" type="curve"/>
      <point x="141.76" y="0" type="line"/>
      <point x="150.72910434" y="0"/>
      <point x="158" y="7.270895660000001"/>
      <point x="158" y="16.240000000000002" type="curve"/>
      <point x="158" y="538.76" type="line"/>
      <point x="158" y="547.72910434"/>
      <point x="150.72910434" y="555"/>
      <point x="141.76" y="555" type="curve"/>
      <point x="116.24000000000001" y="555" type="line"/>
      <point x="107.27089566000001" y="555"/>
      <point x="100" y="547.72910434"/>
      <point x="100" y="538.76" type="curve"/>
      <point x="100" y="16.240000000000002" type="line"/>
      <point x="100" y="7.270895660000001"/>
      <point x="107.27089566000001" y="0"/>
    </contour>
    <contour>
      <point x="358.24" y="0" type="curve"/>
      <point x="383.76" y="0" type="line"/>
      <point x="392.72910434" y="0"/>
      <point x="400" y="7.270895660000001"/>
      <point x="400" y="16.240000000000002" type="curve"/>
      <point x="400" y="538.76" type="line"/>
      <point x="400" y="547.72910434"/>
      <point x="392.72910434" y="555"/>
      <point x="383.76" y="555" type="curve"/>
      <point x="358.24" y="555" type="line"/>
      <point x="349.27089566" y="555"/>
      <point x="342" y="547.72910434"/>
      <point x="342" y="538.76" type="curve"/>
      <point x="342" y="16.240000000000002" type="line"/>
      <point x="342" y="7.270895660000001"/>
      <point x="349.27089566" y="0"/>
    </contour>
  </outline>
</glyph>
<glyph name="uni03C1" format="2">
  <advance width="600"/>
  <unicode hex="03C1"/>
  <outline>
    <contour>
      <point x="82.24000000000001" y="-210" type="curve"/>
      <point x="107.75999999999999" y="-210" type="line"/>
      <point x="116.72910433999999" y="-210"/>
      <point x="124" y="-202.72910434"/>
      <point x="124" y="-193.76" type="curve"/>
      <point x="124" y="538.76" type="line"/>
      <point x="124" y="547.72910434"/>
      <point x="116.72910433999999" y="555"/>
      <point x="107.75999999999999" y="555" type="curve"/>
      <point x="82.24000000000001" y="555" type="line"/>
      <point x="73.27089566000001" y="555"/>
      <point x="66" y="547.72910434"/>
      <point x="66" y="538.76" type="curve"/>
      <point x="66" y="-193.76" type="line"/>
      <point x="66" y="-202.72910434"/>
      <point x="73.27089566000001" y="-210"/>
    </contour>
    <contour>
      <point x="382" y="278" type="curve"/>
      <point x="382" y="413.8620485"/>
      <point x="314.8427125" y="524"/>
      <point x="232" y="524" type="curve"/>
      <point x="149.1572875" y="524"/>
      <point x="82" y="413.8620485"/>
      <point x="82" y="278" type="curve"/>
      <point x="82" y="142.1379515"/>
      <point x="149.1572875" y="32"/>
      <point x="232" y="32" type="curve"/>
      <point x="314.8427125" y="32"/>
      <point x="382" y="142.1379515"/>
    </contour>
    <contour>
      <point x="324" y="278" type="curve"/>
      <point x="324" y="174.170467"/>
      <point x="282.810197" y="90"/>
      <point x="232" y="90" type="curve"/>
      <point x="181.18980299999998" y="90"/>
      <point x="140" y="174.170467"/>
      <point x="140" y="278" type="curve"/>
      <point x="140" y="381.82953299999997"/>
      <point x="181.18980299999998" y="466"/>
      <point x="232" y="466" type="curve"/>
      <point x="282.810197" y="466"/>
      <point x="324" y="381.82953299999997"/>
    </contour>
  </outline>
</glyph>
<glyph name="uni03C2" format="2">
  <advance width="600"/>
  <unicode hex="03C2"/>
  <outline>
    <contour>
      <point x="408.4" y="467.04" type="line"/>
      <point x="336.4" y="556"/>
      <point x="174.4" y="556"/>
      <point x="70" y="397.53999999999996" type="curve"/>
      <point x="70" y="158.46"/>
      <point x="174.4" y="0"/>
      <point x="336.4" y="0" type="curve"/>
      <point x="381.4" y="69.5"/>
      <point x="408.4" y="116.76000000000002"/>
      <point x="408.4" y="139.0" type="curve"/>
      <point x="357.36" y="169.57999999999998" type="line"/>
      <point x="318.4" y="58"/>
      <point x="128" y="189.04"/>
      <point x="128" y="278" type="curve"/>
      <point x="128" y="366.96000000000004"/>
      <point x="318.4" y="498"/>
      <point x="357.36" y="386.42" type="curve"/>
    </contour>
    <contour>
      <point x="316.24" y="-210" type="curve"/>
      <point x="341.76" y="-210" type="line"/>
      <point x="350.72910434" y="-210"/>
      <point x="358" y="-202.72910434"/>
      <point x="358" y="-193.76" type="curve"/>
      <point x="358" y="-64.24000000000001" type="line"/>
      <point x="358" y="-55.27089566000001"/>
      <point x="350.72910434" y="-48"/>
      <point x="341.76" y="-48" type="curve"/>
      <point x="316.24" y="-48" type="line"/>
      <point x="307.27089566" y="-48"/>
      <point x="300" y="-55.27089566000001"/>
      <point x="300" y="-64.24000000000001" type="curve"/>
      <point x="300" y="-193.76" type="line"/>
      <point x="300" y="-202.72910434"/>
      <point x="307.27089566" y="-210"/>
    </contour>
  </outline>
</glyph>
<glyph name="uni03C4" format="2">
  <advance width="600"/>
  <unicode hex="03C4"/>
  <outline>
    <contour>
      <point x="88.24000000000001" y="497" type="curve"/>
      <point x="411.76" y="497" type="line"/>
      <point x="420.72910434" y="497"/>
      <point x="428" y="504.27089566"/>
      <point x="428" y="513.24" type="curve"/>
      <point x="428" y="538.76" type="line"/>
      <point x="428" y="547.72910434"/>
      <point x="420.72910434" y="555"/>
      <point x="411.76" y="555" type="curve"/>
      <point x="88.24000000000001" y="555" type="line"/>
      <point x="79.27089566000001" y="555"/>
      <point x="72" y="547.72910434"/>
      <point x="72" y="538.76" type="curve"/>
      <point x="72" y="513.24" type="line"/>
      <point x="72" y="504.27089566"/>
      <point x="79.27089566000001" y="497"/>
    </contour>
    <contour>
      <point x="234.24" y="0" type="curve"/>
      <point x="259.76" y="0" type="line"/>
      <point x="268.72910434" y="0"/>
      <point x="276" y="7.270895660000001"/>
      <point x="276" y="16.240000000000002" type="curve"/>
      <point x="276" y="538.76" type="line"/>
      <point x="276" y="547.72910434"/>
      <point x="268.72910434" y="555"/>
      <point x="259.76" y="555" type="curve"/>
      <point x="234.24" y="555" type="line"/>
      <point x="225.27089566" y="555"/>
      <point x="218" y="547.72910434"/>
      <point x="218" y="538.76" type="curve"/>
      <point x="218" y="16.240000000000002" type="line"/>
      <point x="218" y="7.270895660000001"/>
      <point x="225.27089566" y="0"/>
    </contour>
  </outline>
</glyph>
<glyph name="uni03C6" format="2">
  <advance width="600"/>
  <unicode hex="03C6"/>
  <outline>
    <contour>
      <point x="428" y="278" type="curve"/>
      <point x="428" y="411.65290949999996"/>
      <point x="348.3066855" y="520"/>
      <point x="250" y="520" type="curve"/>
      <point x="151.69331449999999" y="520"/>
      <point x="72" y="411.65290949999996"/>
      <point x="72" y="278" type="curve"/>
      <point x="72" y="144.3470905"/>
      <point x="151.69331449999999" y="36"/>
      <point x="250" y="36" type="curve"/>
      <point x="348.3066855" y="36"/>
      <point x="428" y="144.3470905"/>
    </contour>
    <contour>
      <point x="370" y="278" type="curve"/>
      <point x="370" y="176.379606"/>
      <point x="316.27417" y="94"/>
      <point x="250" y="94" type="curve"/>
      <point x="183.72583" y="94"/>
      <point x="130" y="176.379606"/>
      <point x="130" y="278" type="curve"/>
      <point x="130" y="379.62039400000003"/>
      <point x="183.72583" y="462"/>
      <point x="250" y="462" type="curve"/>
      <point x="316.27417" y="462"/>
      <point x="370" y="379.62039400000003"/>
    </contour>
    <contour>
      <point x="237.24" y="-210" type="curve"/>
      <point x="262.76" y="-210" type="line"/>
      <point x="271.72910434" y="-210"/>
      <point x="279.0" y="-202.72910434"/>
      <point x="279.0" y="-193.76" type="curve"/>
      <point x="279.0" y="743.76" type="line"/>
      <point x="279.0" y="752.72910434"/>
      <point x="271.72910434" y="760"/>
      <point x="262.76" y="760" type="curve"/>
      <point x="237.24" y="760" type="line"/>
      <point x="228.27089566" y="760"/>
      <point x="221.0" y="752.72910434"/>
      <point x="221.0" y="743.76" type="curve"/>
      <point x="221.0" y="-193.76" type="line"/>
      <point x="221.0" y="-202.72910434"/>
      <point x="228.27089566" y="-210"/>
    </contour>
  </outline>
</glyph>
<glyph name="uni03C8" format="2">
  <advance width="600"/>
  <unicode hex="03C8"/>
  <outline>
    <contour>
      <point x="237.24" y="-210" type="curve"/>
      <point x="262.76" y="-210" type="line"/>
      <point x="271.72910434" y="-210"/>
      <point x="279.0" y="-202.72910434"/>
      <point x="279.0" y="-193.76" type="curve"/>
      <point x="279.0" y="538.76" type="line"/>
      <point x="279.0" y="547.72910434"/>
      <point x="271.72910434" y="555"/>
      <point x="262.76" y="555" type="curve"/>
      <point x="237.24" y="555" type="line"/>
      <point x="228.27089566" y="555"/>
      <point x="221.0" y="547.72910434"/>
      <point x="221.0" y="538.76" type="curve"/>
      <point x="221.0" y="-193.76" type="line"/>
      <point x="221.0" y="-202.72910434"/>
      <point x="228.27089566" y="-210"/>
    </contour>
    <contour>
      <point x="225.2" y="482.8" type="line"/>
      <point x="208.4" y="550"/>
      <point x="113.9" y="550"/>
      <point x="53" y="430.3" type="curve"/>
      <point x="53" y="249.7"/>
      <point x="113.9" y="130"/>
      <point x="208.4" y="130" type="curve"/>
      <point x="234.64999999999998" y="182.5"/>
      <point x="225.2" y="218.2"/>
      <point x="225.2" y="235.0" type="curve"/>
      <point x="188.08" y="258.1" type="line"/>
      <point x="197.9" y="188"/>
      <point x="111" y="272.8"/>
      <point x="111" y="340" type="curve"/>
      <point x="111" y="407.2"/>
      <point x="197.9" y="492"/>
      <point x="188.08" y="421.9" type="curve"/>
    </contour>
    <contour>
      <point x="409.2" y="482.8" type="line"/>
      <point x="392.4" y="550"/>
      <point x="297.9" y="550"/>
      <point x="237" y="430.3" type="curve"/>
      <point x="237" y="249.7"/>
      <point x="297.9" y="130"/>
      <point x="392.4" y="130" type="curve"/>
      <point x="418.65" y="182.5"/>
      <point x="409.2" y="218.2"/>
      <point x="409.2" y="235.0" type="curve"/>
      <point x="372.08" y="258.1" type="line"/>
      <point x="381.9" y="188"/>
      <point x="295" y="272.8"/>
      <point x="295" y="340" type="curve"/>
      <point x="295" y="407.2"/>
      <point x="381.9" y="492"/>
      <point x="372.08" y="421.9" type="curve"/>
    </contour>
  </outline>
</glyph>
<glyph name="uni03CE" format="2">
  <advance width="600"/>
  <unicode hex="03CE"/>
  <outline>
    <contour>
      <point x="72.24000000000001" y="0" type="curve"/>
      <point x="97.75999999999999" y="0" type="line"/>
      <point x="106.72910433999999" y="0"/>
      <point x="114" y="7.270895660000001"/>
      <point x="114" y="16.240000000000002" type="curve"/>
      <point x="114" y="233.76" type="line"/>
      <point x="114" y="242.72910434"/>
      <point x="106.72910433999999" y="250"/>
      <point x="97.75999999999999" y="250" type="curve"/>
      <point x="72.24000000000001" y="250" type="line"/>
      <point x="63.27089566000001" y="250"/>
      <point x="56" y="242.72910434"/>
      <point x="56" y="233.76" type="curve"/>
      <point x="56" y="16.240000000000002" type="line"/>
      <point x="56" y="7.270895660000001"/>
      <point x="63.27089566000001" y="0"/>
    </contour>
    <contour>
      <point x="370.24" y="0" type="curve"/>
      <point x="395.76" y="0" type="line"/>
      <point x="404.72910434" y="0"/>
      <point x="412" y="7.270895660000001"/>
      <point x="412" y="16.240000000000002" type="curve"/>
      <point x="412" y="233.76" type="line"/>
      <point x="412" y="242.72910434"/>
      <point x="404.72910434" y="250"/>
      <point x="395.76" y="250" type="curve"/>
      <point x="370.24" y="250" type="line"/>
      <point x="361.27089566" y="250"/>
      <point x="354" y="242.72910434"/>
      <point x="354" y="233.76" type="curve"/>
      <point x="354" y="16.240000000000002" type="line"/>
      <point x="354" y="7.270895660000001"/>
      <point x="361.27089566" y="0"/>
    </contour>
    <contour>
      <point x="56" y="248" type="line"/>
      <point x="56" y="480"/>
      <point x="154" y="560"/>
      <point x="250" y="394" type="curve"/>
      <point x="346" y="560"/>
      <point x="444" y="480"/>
      <point x="444" y="248" type="curve"/>
      <point x="380" y="248" type="line"/>
      <point x="380" y="413"/>
      <point x="326" y="452"/>
      <point x="250" y="276" type="curve"/>
      <point x="174" y="452"/>
      <point x="120" y="413"/>
      <point x="120" y="248" type="curve"/>
    </contour>
    <contour>
      <point x="249.82409700153647" y="566.8637003574773" type="line"/>
      <point x="325.8240970015365" y="644.8637003574773" type="line"/>
      <point x="350.1759029984635" y="621.1362996425227" type="line"/>
      <point x="274.1759029984635" y="543.1362996425227" type="line"/>
    </contour>
  </outline>
</glyph>
<glyph name="uni03D3" format="2">
  <advance width="600"/>
  <unicode hex="03D3"/>
  <outline>
    <contour>
      <point x="249.82409700153647" y="715.8637003574773" type="line"/>
      <point x="325.8240970015365" y="793.8637003574773" type="line"/>
      <point x="350.1759029984635" y="770.1362996425227" type="line"/>
      <point x="274.1759029984635" y="692.1362996425227" type="line"/>
    </contour>
    <component base="A"/>
  </outline>
</glyph>
<glyph name="uni0414" format="2">
  <advance width="600"/>
  <unicode hex="0414"/>
  <outline>
    <contour>
      <point x="63.43065826417329" y="4.979228131101227" type="line"/>
      <point x="185.43065826417327" y="704.9792281311012" type="line"/>
      <point x="242.56934173582673" y="695.0207718688988" type="line"/>
      <point x="120.56934173582671" y="-4.979228131101227" type="line"/>
    </contour>
    <contour>
      <point x="379.4306582641733" y="-4.979228131101227" type="line"/>
      <point x="257.4306582641733" y="695.0207718688988" type="line"/>
      <point x="314.5693417358267" y="704.9792281311012" type="line"/>
      <point x="436.5693417358267" y="4.979228131101227" type="line"/>
    </contour>
    <contour>
      <point x="68.24000000000001" y="0" type="curve"/>
      <point x="431.76" y="0" type="line"/>
      <point x="440.72910434" y="0"/>
      <point x="448" y="7.270895660000001"/>
      <point x="448" y="16.240000000000002" type="curve"/>
      <point x="448" y="41.76" type="line"/>
      <point x="448" y="50.72910434"/>
      <point x="440.72910434" y="58"/>
      <point x="431.76" y="58" type="curve"/>
      <point x="68.24000000000001" y="58" type="line"/>
      <point x="59.27089566000001" y="58"/>
      <point x="52" y="50.72910434"/>
      <point x="52" y="41.76" type="curve"/>
      <point x="52" y="16.240000000000002" type="line"/>
      <point x="52" y="7.270895660000001"/>
      <point x="59.27089566000001" y="0"/>
    </contour>
  </outline>
</glyph>
<glyph name="uni0426" format="2">
  <advance width="600"/>
  <unicode hex="0426"/>
  <outline>
    <contour>
      <point x="74.24000000000001" y="150" type="curve"/>
      <point x="99.75999999999999" y="150" type="line"/>
      <point x="108.72910433999999" y="150"/>
      <point x="116" y="157.27089566"/>
      <point x="116" y="166.24" type="curve"/>
      <point x="116" y="683.76" type="line"/>
      <point x="116" y="692.72910434"/>
      <point x="108.72910433999999" y="700"/>
      <point x="99.75999999999999" y="700" type="curve"/>
      <point x="74.24000000000001" y="700" type="line"/>
      <point x="65.27089566000001" y="700"/>
      <point x="58" y="692.72910434"/>
      <point x="58" y="683.76" type="curve"/>
      <point x="58" y="166.24" type="line"/>
      <point x="58" y="157.27089566"/>
      <point x="65.27089566000001" y="150"/>
    </contour>
    <contour>
      <point x="392.24" y="0" type="curve"/>
      <point x="417.76" y="0" type="line"/>
      <point x="426.72910434" y="0"/>
      <point x="434" y="7.270895660000001"/>
      <point x="434" y="16.240000000000002" type="curve"/>
      <point x="434" y="683.76" type="line"/>
      <point x="434" y="692.72910434"/>
      <point x="426.72910434" y="700"/>
      <point x="417.76" y="700" type="curve"/>
      <point x="392.24" y="700" type="line"/>
      <point x="383.27089566" y="700"/>
      <point x="376" y="692.72910434"/>
      <point x="376" y="683.76" type="curve"/>
      <point x="376" y="16.240000000000002" type="line"/>
      <point x="376" y="7.270895660000001"/>
      <point x="383.27089566" y="0"/>
    </contour>
    <contour>
      <point x="58" y="0" type="line"/>
      <point x="440" y="0" type="line"/>
      <point x="440" y="58" type="line"/>
      <point x="58" y="58" type="line"/>
    </contour>
    <contour>
      <point x="392.24" y="-210" type="curve"/>
      <point x="417.76" y="-210" type="line"/>
      <point x="426.72910434" y="-210"/>
      <point x="434" y="-202.72910434"/>
      <point x="434" y="-193.76" type="curve"/>
      <point x="434" y="-66.24000000000001" type="line"/>
      <point x="434" y="-57.27089566000001"/>
      <point x="426.72910434" y="-50"/>
      <point x="417.76" y="-50" type="curve"/>
      <point x="392.24" y="-50" type="line"/>
      <point x="383.27089566" y="-50"/>
      <point x="376" y="-57.27089566000001"/>
      <point x="376" y="-66.24000000000001" type="curve"/>
      <point x="376" y="-193.76" type="line"/>
      <point x="376" y="-202.72910434"/>
      <point x="383.27089566" y="-210"/>
    </contour>
  </outline>
</glyph>
<glyph name="uni042E" format="2">
  <advance width="600"/>
  <unicode hex="042E"/>
  <outline>
    <contour>
      <point x="70.24000000000001" y="0" type="curve"/>
      <point x="95.75999999999999" y="0" type="line"/>
      <point x="104.72910433999999" y="0"/>
      <point x="112" y="7.270895660000001"/>
      <point x="112" y="16.240000000000002" type="curve"/>
      <point x="112" y="683.76" type="line"/>
      <point x="112" y="692.72910434"/>
      <point x="104.72910433999999" y="700"/>
      <point x="95.75999999999999" y="700" type="curve"/>
      <point x="70.24000000000001" y="700" type="line"/>
      <point x="61.27089566000001" y="700"/>
      <point x="54" y="692.72910434"/>
      <point x="54" y="683.76" type="curve"/>
      <point x="54" y="16.240000000000002" type="line"/>
      <point x="54" y="7.270895660000001"/>
      <point x="61.27089566000001" y="0"/>
    </contour>
    <contour>
      <point x="70.24000000000001" y="320" type="curve"/>
      <point x="175.76" y="320" type="line"/>
      <point x="184.72910434" y="320"/>
      <point x="192" y="327.27089566"/>
      <point x="192" y="336.24" type="curve"/>
      <point x="192" y="361.76" type="line"/>
      <point x="192" y="370.72910434"/>
      <point x="184.72910434" y="378"/>
      <point x="175.76" y="378" type="curve"/>
      <point x="70.24000000000001" y="378" type="line"/>
      <point x="61.27089566000001" y="378"/>
      <point x="54" y="370.72910434"/>
      <point x="54" y="361.76" type="curve"/>
      <point x="54" y="336.24" type="line"/>
      <point x="54" y="327.27089566"/>
      <point x="61.27089566000001" y="320"/>
    </contour>
    <contour>
      <point x="438" y="350" type="curve"/>
      <point x="438" y="488.0711875"/>
      <point x="378.901587" y="600"/>
      <point x="306" y="600" type="curve"/>
      <point x="233.098413" y="600"/>
      <point x="174" y="488.0711875"/>
      <point x="174" y="350" type="curve"/>
      <point x="174" y="211.9288125"/>
      <point x="233.098413" y="100"/>
      <point x="306" y="100" type="curve"/>
      <point x="378.901587" y="100"/>
      <point x="438" y="211.9288125"/>
    </contour>
    <contour>
      <point x="380" y="350" type="curve"/>
      <point x="380" y="243.961328"/>
      <point x="346.8690715" y="158"/>
      <point x="306" y="158" type="curve"/>
      <point x="265.1309285" y="158"/>
      <point x="232" y="243.961328"/>
      <point x="232" y="350" type="curve"/>
      <point x="232" y="456.038672"/>
      <point x="265.1309285" y="542"/>
      <point x="306" y="542" type="curve"/>
      <point x="346.8690715" y="542"/>
      <point x="380" y="456.038672"/>
    </contour>
  </outline>
</glyph>
<glyph name="uni042F" format="2">
  <advance width="600"/>
  <unicode hex="042F"/>
  <outline>
    <contour>
      <point x="334.24" y="0" type="curve"/>
      <point x="359.76" y="0" type="line"/>
      <point x="368.72910434" y="0"/>
      <point x="376" y="7.270895660000001"/>
      <point x="376" y="16.240000000000002" type="curve"/>
      <point x="376" y="683.76" type="line"/>
      <point x="376" y="692.72910434"/>
      <point x="368.72910434" y="700"/>
      <point x="359.76" y="700" type="curve"/>
      <point x="334.24" y="700" type="line"/>
      <point x="325.27089566" y="700"/>
      <point x="318" y="692.72910434"/>
      <point x="318" y="683.76" type="curve"/>
      <point x="318" y="16.240000000000002" type="line"/>
      <point x="318" y="7.270895660000001"/>
      <point x="325.27089566" y="0"/>
    </contour>
    <contour>
      <point x="406" y="512" type="curve"/>
      <point x="406" y="598.156421"/>
      <point x="334.36556" y="668"/>
      <point x="246" y="668" type="curve"/>
      <point x="157.63443999999998" y="668"/>
      <point x="86" y="598.156421"/>
      <point x="86" y="512" type="curve"/>
      <point x="86" y="425.843579"/>
      <point x="157.63443999999998" y="356"/>
      <point x="246" y="356" type="curve"/>
      <point x="334.36556" y="356"/>
      <point x="406" y="425.843579"/>
    </contour>
    <contour>
      <point x="348" y="512" type="curve"/>
      <point x="348" y="457.8760945"/>
      <point x="302.3330445" y="414"/>
      <point x="246" y="414" type="curve"/>
      <point x="189.6669555" y="414"/>
      <point x="144" y="457.8760945"/>
      <point x="144" y="512" type="curve"/>
      <point x="144" y="566.1239055"/>
      <point x="189.6669555" y="610"/>
      <point x="246" y="610" type="curve"/>
      <point x="302.3330445" y="610"/>
      <point x="348" y="566.1239055"/>
    </contour>
    <contour>
      <point x="287.552180663508" y="340.2855527512245" type="line"/>
      <point x="97.55218066350804" y="-13.7144472487755" type="line"/>
      <point x="46.44781933649196" y="13.7144472487755" type="line"/>
      <point x="236.44781933649196" y="367.7144472487755" type="line"/>
    </contour>
  </outline>
</glyph>
<glyph name="uni0434" format="2">
  <advance width="600"/>
  <unicode hex="0434"/>
  <outline>
    <contour>
      <point x="392" y="234" type="curve"/>
      <point x="392" y="363.2346315"/>
      <point x="328.4244345" y="468"/>
      <point x="250" y="468" type="curve"/>
      <point x="171.57556549999998" y="468"/>
      <point x="108" y="363.2346315"/>
      <point x="108" y="234" type="curve"/>
      <point x="108" y="104.7653685"/>
      <point x="171.57556549999998" y="0"/>
      <point x="250" y="0" type="curve"/>
      <point x="328.4244345" y="0"/>
      <point x="392" y="104.7653685"/>
    </contour>
    <contour>
      <point x="334" y="234" type="curve"/>
      <point x="334" y="136.797884"/>
      <point x="296.39191900000003" y="58"/>
      <point x="250" y="58" type="curve"/>
      <point x="203.608081" y="58"/>
      <point x="166" y="136.797884"/>
      <point x="166" y="234" type="curve"/>
      <point x="166" y="331.202116"/>
      <point x="203.608081" y="410"/>
      <point x="250" y="410" type="curve"/>
      <point x="296.39191900000003" y="410"/>
      <point x="334" y="331.202116"/>
    </contour>
    <contour>
      <point x="175.80206118246164" y="-8.248963207983126" type="line"/>
      <point x="121.80206118246164" y="-190.24896320798314" type="line"/>
      <point x="66.19793881753836" y="-173.75103679201686" type="line"/>
      <point x="120.19793881753836" y="8.248963207983126" type="line"/>
    </contour>
    <contour>
      <point x="379.80206118246167" y="8.248963207983126" type="line"/>
      <point x="433.80206118246167" y="-173.75103679201686" type="line"/>
      <point x="378.19793881753833" y="-190.24896320798314" type="line"/>
      <point x="324.19793881753833" y="-8.248963207983126" type="line"/>
    </contour>
    <contour>
      <point x="88.24000000000001" y="-190" type="curve"/>
      <point x="411.76" y="-190" type="line"/>
      <point x="420.72910434" y="-190"/>
      <point x="428" y="-182.72910434"/>
      <point x="428" y="-173.76" type="curve"/>
      <point x="428" y="-148.24" type="line"/>
      <point x="428" y="-139.27089566"/>
      <point x="420.72910434" y="-132"/>
      <point x="411.76" y="-132" type="curve"/>
      <point x="88.24000000000001" y="-132" type="line"/>
      <point x="79.27089566000001" y="-132"/>
      <point x="72" y="-139.27089566"/>
      <point x="72" y="-148.24" type="curve"/>
      <point x="72" y="-173.76" type="line"/>
      <point x="72" y="-182.72910434"/>
      <point x="79.27089566000001" y="-190"/>
    </contour>
  </outline>
</glyph>
<glyph name="uni0436" format="2">
  <advance width="600"/>
  <unicode hex="0436"/>
  <outline>
    <contour>
      <point x="237.24" y="0" type="curve"/>
      <point x="262.76" y="0" type="line"/>
      <point x="271.72910434" y="0"/>
      <point x="279.0" y="7.270895660000001"/>
      <point x="279.0" y="16.240000000000002" type="curve"/>
      <point x="279.0" y="538.76" type="line"/>
      <point x="279.0" y="547.72910434"/>
      <point x="271.72910434" y="555"/>
      <point x="262.76" y="555" type="curve"/>
      <point x="237.24" y="555" type="line"/>
      <point x="228.27089566" y="555"/>
      <point x="221.0" y="547.72910434"/>
      <point x="221.0" y="538.76" type="curve"/>
      <point x="221.0" y="16.240000000000002" type="line"/>
      <point x="221.0" y="7.270895660000001"/>
      <point x="228.27089566" y="0"/>
    </contour>
    <contour>
      <point x="94.3298773238021" y="570.7815420478717" type="line"/>
      <point x="454.3298773238021" y="15.781542047871632" type="line"/>
      <point x="405.6701226761979" y="-15.781542047871632" type="line"/>
      <point x="45.670122676197906" y="539.2184579521283" type="line"/>
    </contour>
    <contour>
      <point x="454.3298773238021" y="539.2184579521283" type="line"/>
      <point x="94.3298773238021" y="-15.781542047871632" type="line"/>
      <point x="45.670122676197906" y="15.781542047871632" type="line"/>
      <point x="405.6701226761979" y="570.7815420478717" type="line"/>
    </contour>
  </outline>
</glyph>
<glyph name="uni0447" format="2">
  <advance width="600"/>
  <unicode hex="0447"/>
  <outline>
    <contour>
      <point x="74.24000000000001" y="250" type="curve"/>
      <point x="99.75999999999999" y="250" type="line"/>
      <point x="108.72910433999999" y="250"/>
      <point x="116" y="257.27089566"/>
      <point x="116" y="266.24" type="curve"/>
      <point x="116" y="538.76" type="line"/>
      <point x="116" y="547.72910434"/>
      <point x="108.72910433999999" y="555"/>
      <point x="99.75999999999999" y="555" type="curve"/>
      <point x="74.24000000000001" y="555" type="line"/>
      <point x="65.27089566000001" y="555"/>
      <point x="58" y="547.72910434"/>
      <point x="58" y="538.76" type="curve"/>
      <point x="58" y="266.24" type="line"/>
      <point x="58" y="257.27089566"/>
      <point x="65.27089566000001" y="250"/>
    </contour>
    <contour>
      <point x="334.24" y="0" type="curve"/>
      <point x="359.76" y="0" type="line"/>
      <point x="368.72910434" y="0"/>
      <point x="376" y="7.270895660000001"/>
      <point x="376" y="16.240000000000002" type="curve"/>
      <point x="376" y="538.76" type="line"/>
      <point x="376" y="547.72910434"/>
      <point x="368.72910434" y="555"/>
      <point x="359.76" y="555" type="curve"/>
      <point x="334.24" y="555" type="line"/>
      <point x="325.27089566" y="555"/>
      <point x="318" y="547.72910434"/>
      <point x="318" y="538.76" type="curve"/>
      <point x="318" y="16.240000000000002" type="line"/>
      <point x="318" y="7.270895660000001"/>
      <point x="325.27089566" y="0"/>
    </contour>
    <contour>
      <point x="74.24000000000001" y="220" type="curve"/>
      <point x="423.76" y="220" type="line"/>
      <point x="432.72910434" y="220"/>
      <point x="440" y="227.27089566"/>
      <point x="440" y="236.24" type="curve"/>
      <point x="440" y="261.76" type="line"/>
      <point x="440" y="270.72910434"/>
      <point x="432.72910434" y="278"/>
      <point x="423.76" y="278" type="curve"/>
      <point x="74.24000000000001" y="278" type="line"/>
      <point x="65.27089566000001" y="278"/>
      <point x="58" y="270.72910434"/>
      <point x="58" y="261.76" type="curve"/>
      <point x="58" y="236.24" type="line"/>
      <point x="58" y="227.27089566"/>
      <point x="65.27089566000001" y="220"/>
    </contour>
  </outline>
</glyph>
<glyph name="uni0449" format="2">
  <advance width="600"/>
  <unicode hex="0449"/>
  <outline>
    <contour>
      <point x="74.24000000000001" y="0" type="curve"/>
      <point x="99.75999999999999" y="0" type="line"/>
      <point x="108.72910433999999" y="0"/>
      <point x="116" y="7.270895660000001"/>
      <point x="116" y="16.240000000000002" type="curve"/>
      <point x="116" y="538.76" type="line"/>
      <point x="116" y="547.72910434"/>
      <point x="108.72910433999999" y="555"/>
      <point x="99.75999999999999" y="555" type="curve"/>
      <point x="74.24000000000001" y="555" type="line"/>
      <point x="65.27089566000001" y="555"/>
      <point x="58" y="547.72910434"/>
      <point x="58" y="538.76" type="curve"/>
      <point x="58" y="16.240000000000002" type="line"/>
      <point x="58" y="7.270895660000001"/>
      <point x="65.27089566000001" y="0"/>
    </contour>
    <contour>
      <point x="234.24" y="0" type="curve"/>
      <point x="259.76" y="0" type="line"/>
      <point x="268.72910434" y="0"/>
      <point x="276" y="7.270895660000001"/>
      <point x="276" y="16.240000000000002" type="curve"/>
      <point x="276" y="538.76" type="line"/>
      <point x="276" y="547.72910434"/>
      <point x="268.72910434" y="555"/>
      <point x="259.76" y="555" type="curve"/>
      <point x="234.24" y="555" type="line"/>
      <point x="225.27089566" y="555"/>
      <point x="218" y="547.72910434"/>
      <point x="218" y="538.76" type="curve"/>
      <point x="218" y="16.240000000000002" type="line"/>
      <point x="218" y="7.270895660000001"/>
      <point x="225.27089566" y="0"/>
    </contour>
    <contour>
      <point x="334.24" y="0" type="curve"/>
      <point x="359.76" y="0" type="line"/>
      <point x="368.72910434" y="0"/>
      <point x="376" y="7.270895660000001"/>
      <point x="376" y="16.240000000000002" type="curve"/>
      <point x="376" y="538.76" type="line"/>
      <point x="376" y="547.72910434"/>
      <point x="368.72910434" y="555"/>
      <point x="359.76" y="555" type="curve"/>
      <point x="334.24" y="555" type="line"/>
      <point x="325.27089566" y="555"/>
      <point x="318" y="547.72910434"/>
      <point x="318" y="538.76" type="curve"/>
      <point x="318" y="16.240000000000002" type="line"/>
      <point x="318" y="7.270895660000001"/>
      <point x="325.27089566" y="0"/>
    </contour>
    <contour>
      <point x="58" y="0" type="line"/>
      <point x="440" y="0" type="line"/>
      <point x="440" y="58" type="line"/>
      <point x="58" y="58" type="line"/>
    </contour>
    <contour>
      <point x="334.24" y="-210" type="curve"/>
      <point x="359.76" y="-210" type="line"/>
      <point x="368.72910434" y="-210"/>
      <point x="376" y="-202.72910434"/>
      <point x="376" y="-193.76" type="curve"/>
      <point x="376" y="-66.24000000000001" type="line"/>
      <point x="376" y="-57.27089566000001"/>
      <point x="368.72910434" y="-50"/>
      <point x="359.76" y="-50" type="curve"/>
      <point x="334.24" y="-50" type="line"/>
      <point x="325.27089566" y="-50"/>
      <point x="318" y="-57.27089566000001"/>
      <point x="318" y="-66.24000000000001" type="curve"/>
      <point x="318" y="-193.76" type="line"/>
      <point x="318" y="-202.72910434"/>
      <point x="325.27089566" y="-210"/>
    </contour>
  </outline>
</glyph>
<glyph name="uni044E" format="2">
  <advance width="600"/>
  <unicode hex="044E"/>
  <outline>
    <contour>
      <point x="70.24000000000001" y="0" type="curve"/>
      <point x="95.75999999999999" y="0" type="line"/>
      <point x="104.72910433999999" y="0"/>
      <point x="112" y="7.270895660000001"/>
      <point x="112" y="16.240000000000002" type="curve"/>
      <point x="112" y="538.76" type="line"/>
      <point x="112" y="547.72910434"/>
      <point x="104.72910433999999" y="555"/>
      <point x="95.75999999999999" y="555" type="curve"/>
      <point x="70.24000000000001" y="555" type="line"/>
      <point x="61.27089566000001" y="555"/>
      <point x="54" y="547.72910434"/>
      <point x="54" y="538.76" type="curve"/>
      <point x="54" y="16.240000000000002" type="line"/>
      <point x="54" y="7.270895660000001"/>
      <point x="61.27089566000001" y="0"/>
    </contour>
    <contour>
      <point x="70.24000000000001" y="246" type="curve"/>
      <point x="157.76" y="246" type="line"/>
      <point x="166.72910434" y="246"/>
      <point x="174" y="253.27089566"/>
      <point x="174" y="262.24" type="curve"/>
      <point x="174" y="287.76" type="line"/>
      <point x="174" y="296.72910434"/>
      <point x="166.72910434" y="304"/>
      <point x="157.76" y="304" type="curve"/>
      <point x="70.24000000000001" y="304" type="line"/>
      <point x="61.27089566000001" y="304"/>
      <point x="54" y="296.72910434"/>
      <point x="54" y="287.76" type="curve"/>
      <point x="54" y="262.24" type="line"/>
      <point x="54" y="253.27089566"/>
      <point x="61.27089566000001" y="246"/>
    </contour>
    <contour>
      <point x="432" y="278" type="curve"/>
      <point x="432" y="412.757479"/>
      <point x="375.5878785" y="522"/>
      <point x="306" y="522" type="curve"/>
      <point x="236.4121215" y="522"/>
      <point x="180" y="412.757479"/>
      <point x="180" y="278" type="curve"/>
      <point x="180" y="143.242521"/>
      <point x="236.4121215" y="34"/>
      <point x="306" y="34" type="curve"/>
      <point x="375.5878785" y="34"/>
      <point x="432" y="143.242521"/>
    </contour>
    <contour>
      <point x="374" y="278" type="curve"/>
      <point x="374" y="175.2750365"/>
      <point x="343.555363" y="92"/>
      <point x="306" y="92" type="curve"/>
      <point x="268.444637" y="92"/>
      <point x="238" y="175.2750365"/>
      <point x="238" y="278" type="curve"/>
      <point x="238" y="380.7249635"/>
      <point x="268.444637" y="464"/>
      <point x="306" y="464" type="curve"/>
      <point x="343.555363" y="464"/>
      <point x="374" y="380.7249635"/>
    </contour>
  </outline>
</glyph>
<glyph name="uni044F" format="2">
  <advance width="600"/>
  <unicode hex="044F"/>
  <outline>
    <contour>
      <point x="334.24" y="0" type="curve"/>
      <point x="359.76" y="0" type="line"/>
      <point x="368.72910434" y="0"/>
      <point x="376" y="7.270895660000001"/>
      <point x="376" y="16.240000000000002" type="curve"/>
      <point x="376" y="538.76" type="line"/>
      <point x="376" y="547.72910434"/>
      <point x="368.72910434" y="555"/>
      <point x="359.76" y="555" type="curve"/>
      <point x="334.24" y="555" type="line"/>
      <point x="325.27089566" y="555"/>
      <point x="318" y="547.72910434"/>
      <point x="318" y="538.76" type="curve"/>
      <point x="318" y="16.240000000000002" type="line"/>
      <point x="318" y="7.270895660000001"/>
      <point x="325.27089566" y="0"/>
    </contour>
    <contour>
      <point x="398" y="398" type="curve"/>
      <point x="398" y="480.8427125"/>
      <point x="329.947282" y="548"/>
      <point x="246" y="548" type="curve"/>
      <point x="162.052718" y="548"/>
      <point x="94" y="480.8427125"/>
      <point x="94" y="398" type="curve"/>
      <point x="94" y="315.1572875"/>
      <point x="162.052718" y="248"/>
      <point x="246" y="248" type="curve"/>
      <point x="329.947282" y="248"/>
      <point x="398" y="315.1572875"/>
    </contour>
    <contour>
      <point x="340" y="398" type="curve"/>
      <point x="340" y="347.189803"/>
      <point x="297.9147665" y="306"/>
      <point x="246" y="306" type="curve"/>
      <point x="194.08523350000002" y="306"/>
      <point x="152" y="347.189803"/>
      <point x="152" y="398" type="curve"/>
      <point x="152" y="448.810197"/>
      <point x="194.08523350000002" y="490"/>
      <point x="246" y="490" type="curve"/>
      <point x="297.9147665" y="490"/>
      <point x="340" y="448.810197"/>
    </contour>
    <contour>
      <point x="273.9482284743324" y="229.64511226143156" type="line"/>
      <point x="105.94822847433237" y="-16.354887738568443" type="line"/>
      <point x="58.05177152566763" y="16.354887738568443" type="line"/>
      <point x="226.05177152566765" y="262.35488773856844" type="line"/>
    </contour>
  </outline>
</glyph>
<glyph name="uni04C1" format="2">
  <advance width="600"/>
  <unicode hex="04C1"/>
  <outline>
    <contour>
      <point x="237.24" y="0" type="curve"/>
      <point x="262.76" y="0" type="line"/>
      <point x="271.72910434" y="0"/>
      <point x="279.0" y="7.270895660000001"/>
      <point x="279.0" y="16.240000000000002" type="curve"/>
      <point x="279.0" y="683.76" type="line"/>
      <point x="279.0" y="692.72910434"/>
      <point x="271.72910434" y="700"/>
      <point x="262.76" y="700" type="curve"/>
      <point x="237.24" y="700" type="line"/>
      <point x="228.27089566" y="700"/>
      <point x="221.0" y="692.72910434"/>
      <point x="221.0" y="683.76" type="curve"/>
      <point x="221.0" y="16.240000000000002" type="line"/>
      <point x="221.0" y="7.270895660000001"/>
      <point x="228.27089566" y="0"/>
    </contour>
    <contour>
      <point x="99.90871098104084" y="713.0283803790377" type="line"/>
      <point x="451.9087109810408" y="13.028380379037678" type="line"/>
      <point x="400.0912890189592" y="-13.028380379037678" type="line"/>
      <point x="48.09128901895916" y="686.9716196209623" type="line"/>
    </contour>
    <contour>
      <point x="451.9087109810408" y="686.9716196209623" type="line"/>
      <point x="99.90871098104084" y="-13.028380379037678" type="line"/>
      <point x="48.09128901895916" y="13.028380379037678" type="line"/>
      <point x="400.0912890189592" y="713.0283803790377" type="line"/>
    </contour>
    <contour>
      <point x="364.0" y="764" type="curve"/>
      <point x="364.0" y="744.67003375"/>
      <point x="335.346224" y="729"/>
      <point x="300.0" y="729" type="curve"/>
      <point x="264.653776" y="729"/>
      <point x="236.0" y="744.67003375"/>
      <point x="236.0" y="764" type="curve"/>
      <point x="236.0" y="783.32996625"/>
      <point x="264.653776" y="799"/>
      <point x="300.0" y="799" type="curve"/>
      <point x="335.346224" y="799"/>
      <point x="364.0" y="783.32996625"/>
    </contour>
    <contour>
      <point x="230.0" y="728" type="line"/>
      <point x="370.0" y="728" type="line"/>
      <point x="370.0" y="766" type="line"/>
      <point x="230.0" y="766" type="line"/>
    </contour>
  </outline>
</glyph>
